/* XPM */
static char *ac37cf8b0f744070c477d0b46d85a39fEWXfcVdHosrOGXFy[] = {
/* columns rows colors chars-per-pixel */
"64 64 175 2 ",
"   c #40312A",
".  c #4C382F",
"X  c #66493A",
"o  c #714E3B",
"O  c #73513F",
"+  c #7B533D",
"@  c #463E43",
"#  c #3F404C",
"$  c #3C4256",
"%  c #3D4A66",
"&  c #4B464E",
"*  c #554646",
"=  c #444A5B",
"-  c #484958",
";  c #554E54",
":  c #55545D",
">  c #5A5458",
",  c #644C42",
"<  c #6A4E41",
"1  c #675048",
"2  c #6B534B",
"3  c #725242",
"4  c #7C5642",
"5  c #765748",
"6  c #78594B",
"7  c #7A5A4B",
"8  c #6B5C5C",
"9  c #785E56",
"0  c #7D6156",
"q  c #7D635B",
"w  c #424B62",
"e  c #4B4F61",
"r  c #4C5064",
"t  c #4A556E",
"y  c #59596A",
"u  c #4B5673",
"i  c #4B5B7B",
"p  c #525F7C",
"a  c #55627E",
"s  c #59647C",
"d  c #67616D",
"f  c #786768",
"g  c #626373",
"h  c #6E6A71",
"j  c #83573F",
"k  c #825A44",
"l  c #8B5E45",
"z  c #845D4A",
"x  c #8B614B",
"c  c #926246",
"v  c #946449",
"b  c #996649",
"n  c #9E6A4D",
"m  c #856456",
"M  c #976951",
"N  c #9B6C53",
"B  c #936E5C",
"V  c #A36C4D",
"C  c #A46E50",
"Z  c #A67255",
"A  c #AD7454",
"S  c #A7755B",
"D  c #AF785A",
"F  c #B17656",
"G  c #B47957",
"H  c #B57A59",
"J  c #BB7E5B",
"K  c #977466",
"L  c #B07C60",
"P  c #BE815D",
"I  c #BC8364",
"U  c #B48269",
"Y  c #C2835E",
"T  c #C58561",
"R  c #C98761",
"E  c #CC8A64",
"W  c #CA8D6B",
"Q  c #D18D66",
"!  c #D38F69",
"~  c #D69069",
"^  c #DB946B",
"/  c #C78E70",
"(  c #DC9A77",
")  c #E1976D",
"_  c #E4996F",
"`  c #E69B70",
"'  c #EA9D72",
"]  c #EFA074",
"[  c #F3A376",
"{  c #F8A677",
"}  c #F7A678",
"|  c #F9A779",
" . c #FFAB7C",
".. c #FFB07F",
"X. c #495D82",
"o. c #4F6083",
"O. c #4A628E",
"+. c #536384",
"@. c #5A6583",
"#. c #5B6A8C",
"$. c #4C6797",
"%. c #536A92",
"&. c #5E6F90",
"*. c #59719B",
"=. c #5D739B",
"-. c #616780",
";. c #616C8B",
":. c #6B7389",
">. c #7A7D88",
",. c #637393",
"<. c #6A7794",
"1. c #6A7A98",
"2. c #727694",
"3. c #4B6CA7",
"4. c #4E71AF",
"5. c #5C75A4",
"6. c #5372AB",
"7. c #5A76AA",
"8. c #5977AD",
"9. c #4F72B0",
"0. c #5475B2",
"q. c #5778B3",
"w. c #5C7CB5",
"e. c #5F7FB8",
"r. c #6178A2",
"t. c #627BAB",
"y. c #607FB7",
"u. c #607FB8",
"i. c #77859E",
"p. c #6A82AD",
"a. c #7887A6",
"s. c #6582B4",
"d. c #6A83B0",
"f. c #6583B9",
"g. c #6986BB",
"h. c #6D8ABD",
"j. c #7B8FB3",
"k. c #718DBF",
"l. c #7990B9",
"z. c #6F8BC0",
"x. c #738EC0",
"c. c #7691C1",
"v. c #7B94C3",
"b. c #7F98C5",
"n. c #878F9F",
"m. c #A9969A",
"M. c #8493AF",
"N. c #8493B1",
"B. c #8996B6",
"V. c #8197BC",
"C. c #97A3BA",
"Z. c #F3AF8C",
"A. c #829AC6",
"S. c #869EC9",
"D. c #889FC9",
"F. c #8CA2CB",
"G. c #98A6C5",
"H. c #91A6CD",
"J. c #94A9CF",
"K. c #95AACF",
"L. c #96ABD0",
"P. c #97ABD0",
"I. c #99ADD1",
"U. c #9AAED1",
"Y. c #9DB1D3",
"T. c #9EB1D4",
"R. c #A3B5D5",
"E. c #A7B8D7",
"W. c #A8B9D7",
"Q. c #AABAD9",
"!. c #ABBCD9",
"~. c #B0BFDB",
"^. c #B2C1DD",
"/. c #B8C6DF",
"(. c #BDCBE3",
/* pixels */
"e.e.w.q.0.0.0.0.w.k.D.A.h.f.f.f.f.f.f.f.f.f.f.c.D.k.q.0.4.4.4.4.9.9.0.0.e.y.f.s.f.h.g.f.f.f.f.g.f.g.g.h.c.J.!.F.k.f.e.q.e.e.s.e.",
"e.e.e.w.q.q.w.g.c.v.x.h.g.f.g.g.f.g.g.f.f.f.f.h.F.I.h.0.9.9.4.4.4.9.4.0.0.w.u.u.f.f.g.g.g.f.f.g.f.g.g.f.g.c.Y.I.h.s.q.q.q.e.e.e.",
"y.y.w.w.f.k.v.c.h.g.g.g.g.g.g.h.h.k.h.g.f.f.f.h.F.~.R.v.f.q.0.9.9.0.9.4.0.0.w.e.w.f.f.g.g.g.g.f.g.f.f.g.f.h.v.J.b.f.w.e.e.y.y.y.",
"s.f.g.k.c.k.g.f.g.h.h.h.h.h.h.x.k.k.h.h.h.h.h.h.H.^.W.J.F.v.c.z.g.f.e.e.w.0.0.w.f.s.g.h.z.h.g.g.f.f.f.g.g.g.h.v.F.S.c.h.g.f.f.f.",
"v.x.k.g.f.f.g.h.h.h.h.h.h.h.k.h.h.h.h.h.g.h.h.A.R.J.k.s.y.e.e.f.f.f.g.g.g.g.f.f.g.k.c.c.c.c.c.k.h.h.g.g.h.z.v.b.S.L.T.T.J.F.F.A.",
"f.f.f.f.f.h.h.h.h.h.h.k.k.h.h.h.h.h.g.h.h.h.b.J.D.h.y.w.0.6.6.0.0.0.9.0.0.e.f.h.A.J.I.R.R.R.R.H.F.S.F.A.F.F.I.Y.R.E.Q.R.I.F.v.h.",
"e.y.f.g.h.h.h.h.x.k.x.c.x.k.k.h.g.h.h.h.k.b.F.v.h.f.y.w.w.0.0.0.0.9.6.0.0.q.e.f.v.I.~.~.!.R.H.A.x.x.x.c.b.F.I.R.!.^.I.F.x.g.w.w.",
"e.y.f.g.h.c.b.S.D.D.D.S.S.S.S.S.A.b.A.A.A.b.k.h.h.y.6.6.q.w.0.0.q.w.w.w.w.e.g.A.H.H.D.A.v.x.k.h.f.g.g.g.h.z.x.c.v.S.F.F.A.x.s.f.",
"F.S.A.D.J.J.H.S.b.x.x.x.x.x.c.D.I.R.T.b.x.h.h.h.%.& 1 * $ $.f.f.u.f.u.f.x.S.A.x.g.g.g.g.g.g.g.f.g.f.g.g.g.h.g.u.f.s.f.e.f.x.A.F.",
"J.E./.^.J.b.k.k.x.x.k.x.k.k.k.h.x.v.F.F.b.c.k.&.5 Z T Y b , +.h.k.b.F.J.D.h.e.w.w.e.u.f.f.f.f.f.g.f.f.f.f.f.u.w.q.q.0.0.0.0.e.x.",
"g.c.F.I.Y.F.b.k.x.x.k.k.x.h.x.h.h.h.h.x.b.F.F.m.~ :.g E [ H X i.R.R.H.c.u.w.q.q.0.w.u.f.f.f.f.g.f.g.g.f.f.s.y.q.q.0.0.0.0.q.w.e.",
"g.k.k.k.v.F.J.D.c.x.k.k.k.k.z.x.k.k.h.h.x.v.G.Z./ C.B.m  .[ Y 8 G.H.S.v.z.e.q.0.0.w.y.f.f.g.f.f.g.f.h.g.g.f.y.w.q.0.0.0.0.q.y.u.",
"h.h.k.k.k.x.c.A.D.D.A.c.x.k.k.k.k.k.x.k.b.A.m...U C./.i.R Z...F a v.c.x.v.v.c.x.g.f.f.f.f.f.f.f.f.g.g.h.h.h.g.f.u.q.q.w.q.u.f.g.",
"h.k.k.k.x.x.c.x.c.c.A.A.A.A.A.b.b.F.F.F.F.j.B ..Z i.I.a.2 [  .{ 2 $.q.0.0.q.w.z.c.b.c.h.f.f.g.g.g.g.g.g.g.g.f.f.u.y.y.w.w.y.u.f.",
"k.k.k.k.x.x.c.c.x.x.x.x.x.c.x.c.v.l.k.k.k.=.N ..D &.l.b.t n  . .I % 0.0.0.q.q.q.e.f.c.S.k.g.g.f.g.f.f.f.f.f.f.u.y.w.w.q.w.w.f.h.",
"h.k.k.k.x.x.x.x.x.x.x.k.x.k.x.x.k.k.k.k.v.<.P Z.T a c.k.7.. _ ..} 1 $.q.q.q.q.f.f.f.f.h.b.c.g.f.f.g.f.f.f.g.f.g.f.u.w.y.w.u.g.h.",
"g.k.k.k.k.k.x.l.l.c.x.h.x.z.h.h.c.x.c.b.F.@.I ..[ 0 +.f.g.# Z |  .Y = w.w.f.s.f.f.f.g.f.g.v.c.g.f.f.f.f.f.f.f.f.f.f.f.f.g.g.g.g.",
"k.k.k.k.x.c.x.x.k.k.h.x.h.h.h.h.h.x.A.A.x.i P  . .{ M i O.0 P ^  .| 5 $.f.f.f.f.g.g.f.g.g.g.v.c.f.g.f.f.u.f.u.f.f.f.f.g.g.g.g.h.",
"g.k.k.k.x.x.x.x.k.k.k.k.h.h.g.z.h.v.A.z.k.5.9 {  . .| M x ` ] R  . .Q - s.g.g.g.g.f.f.g.g.g.h.b.h.g.f.f.u.u.s.f.u.u.f.f.f.g.g.h.",
"k.k.k.k.x.x.x.x.k.k.h.%.t - - r a &.5.s.x.h.a R .. . . . . . .`  . . .M X.g.g.g.g.g.g.g.h.g.g.c.S.h.g.f.f.u.e.y.f.s.f.f.g.g.g.h.",
"k.h.k.k.x.x.c.c.c.g.e o v V n c v k o & t %.i I  .' ] .. . . . . . . .{ 2 *.h.g.g.g.g.g.g.h.h.h.S.S.h.g.u.u.y.y.u.s.f.f.f.h.h.h.",
"k.x.k.x.x.x.c.c.c.r.O m 8 2 V c o v A A v X   ~ ..[ E E |  . . . . . . .~ : s.h.h.g.g.h.h.h.h.x.b.J.S.k.g.f.f.y.e.u.f.f.g.h.h.k.",
"x.x.c.c.c.c.x.k.z.@.O #.g.&.3 P C P Y P P Y v [  . . .~ P ^ |  . . .| ^  .S +.h.h.h.h.k.x.h.h.x.x.S.T.H.c.k.g.f.f.u.g.g.h.k.x.x.",
"c.x.c.c.c.x.k.k.d.; 2 p.b.V.6 J Y ~ _ ] ] n Y Q |  . . .[ R Y _  . .[ Y  .} q s.h.h.c.c.x.h.x.c.v.b.L.~.R.F.x.h.f.f.g.k.x.x.x.x.",
"F.F.F.F.F.D.S.D.,.+ 9 l.T.R.2 H Y ^ ` ' D C | G {  . . . . .] Y ! | ~ E  ...~ -.z.f.f.z.z.c.v.v.v.A.J./.(./.Y.F.A.c.v.b.b.A.A.F.",
"I.F.A.v.x.c.v.D.a.3 x h >.n.: j Y Q J c Z |  .P `  . . . . . . .^ P P {  . . .B o.f.z.f.h.x.c.b.F.R.^.Q.R.I.J.H.F.H.I.R.R.!.!.E.",
"S.A.A.c.k.k.x.b.A.> C C c k o . + j c Y {  ...E !  . . . . . . . . . . . . . .] N y 8.h.g.z.v.H.W.W.J.F.b.c.k.h.k.c.A.F.R.(.!.L.",
"F.F.S.c.k.k.c.A.Y.2.X H G G G D H Y ) [ {  . .` P  . . . . . . . . . . . . . .| R E 8 5.z.b.J.J.S.v.k.h.h.g.f.f.f.k.c.b.A.I.Q.T.",
"I.H.S.v.k.x.b.F.J.l.= k G G G G Y E ^ ' [ {  .| H {  . . . . . . . . . . . . .E ! .._ 2 ,.F.S.v.c.k.h.f.f.f.u.f.f.h.k.v.b.A.H.I.",
"A.F.D.D.D.D.D.S.v.v.d.& c G G G P E ) ' { {  . .P _  . . . . . . . . . . . .{ J |  . .] 6 +.h.h.h.h.g.f.f.u.f.f.f.g.k.x.c.b.A.A.",
"x.x.x.c.c.c.c.c.c.c.c.t.& l G G J E ^ _ [ |  . .E ^  . . . . . . . . . . . .[ P |  . . .[ 6 u h.h.k.g.f.e.f.s.f.f.g.h.c.c.c.c.c.",
"k.k.k.k.h.k.k.k.h.h.h.h.8.= + G J Y ~ _ ] |  . .! ~  . . . . . . . . . . . . .E _  . . . .[ z g B.h.h.g.f.f.f.f.g.h.h.k.k.x.x.x.",
"x.x.k.k.k.h.g.h.h.g.g.g.g.w.w k J Y ! ) [ |  . .E ^  . . . . . . . . . . . . .[ T }  . . . .` c m a.z.h.g.f.f.g.h.h.h.k.x.x.x.x.",
"c.c.x.k.k.k.h.h.g.g.g.g.f.f.8.@ F Y ! ) ' }  . .E '  . . . . . . . . . . . . . .^ R  . . .| ' Q c > t.z.h.z.h.z.k.k.x.x.c.A.A.v.",
"A.v.c.x.k.k.h.h.g.g.g.f.f.f.e.$ V Y Q ) ` ] |  .Y [  . . . . . . . . . . . . . . .Q ^  . .| _ Q J v @.v.b.A.v.v.x.c.A.S.A.A.D.D.",
"F.A.c.x.k.k.k.h.g.g.g.f.f.u.u.i k Y Q ) ! J  .[ T  . . . . . . . . .| ) |  . . . .| E ]  .} _ E H b ;.F.J.I.I.J.H.J.J.S.b.A.F.I.",
"!.F.A.c.k.k.k.h.h.g.g.f.u.u.g.k.1 H Q ^ ` V ` E ~  . . . . . . . . .E E  . . . . . .[ ^  .[ ) R H l <.F.A.b.A.D.J.H.A.A.A.S.S.J.",
"W.I.A.c.x.k.k.h.h.g.g.g.h.x.A.v.X.l E ^ ` P E T ]  . . . . . . . .Q R  . . . . . . . .) ) ] ^ Y D l #.x.v.k.v.b.A.A.A.A.A.A.A.D.",
"H.I.H.v.k.k.k.k.c.c.b.A.A.x.s.u.y.; J ~ _ _ J }  . . .| }  . . .E J |  . . . . . . . .{ P ` ! P D l ,.b.v.x.x.v.b.b.A.b.b.A.A.A.",
"A.S.F.H.D.D.F.F.D.A.x.g.s.u.u.u.u.$.X Q _ [ E _  . .| J A E ] ^ J  . . . . . . . . . . .Y Y ! J F < j.J.S.v.x.x.v.v.b.b.v.v.A.A.",
"b.x.c.v.b.v.c.k.g.g.u.u.u.u.y.y.u.f.w c _ ] ] E |  . .[ [ E D P }  . . . . . . . . . . .` C E J v g E.!.Q.J.b.v.c.v.c.v.v.b.v.v.",
"x.l.x.x.h.h.h.g.g.g.g.g.g.u.u.u.y.f.1.* T ' | _ ^  . . . . .|  . . . . . . . . . . ... .' F R F 8 l.L.^./.^.R.F.S.A.b.c.c.c.c.c.",
"x.x.h.k.h.h.h.g.g.g.g.u.u.u.u.u.f.u.f.;.4 ` |  .^ ]  . . . . . . . . . ... . ...| ] ^ _ ' F J 6 1.A.R.R.H.F.F.J.J.F.A.c.c.c.c.k.",
"x.z.h.h.h.h.g.g.g.g.g.g.g.u.h.h.x.c.S.H.:.A [  .| ~ [  .^ ^ [  .| ` E T Y Q ~ E E ~ _ [  .Y 3 p z.b.I.H.b.v.v.b.A.S.D.A.v.c.x.x.",
"x.h.h.h.h.g.g.g.g.g.g.u.g.k.c.D.H.D.A.A.V.f ~  . .} ~ ` _ E J H J Q _ ] _ ) ~ _ }  . ...` q #.g.z.c.F.H.v.c.c.v.v.v.v.S.A.c.k.k.",
"h.h.h.h.h.h.g.h.g.g.h.x.v.D.T.T.D.x.g.z.D.N.K }  . .} ~ _  . .[ }  .Z. . . . . . . . ._ f r.g.z.z.z.v.F.c.c.c.c.c.c.v.v.A.c.c.k.",
"h.h.h.h.g.h.h.h.h.x.v.A.J.~.Q.D.v.h.g.z.D.z.=.L  . . . .^ Q `  . . . . . . . . . ...Y 8 5.g.g.g.h.h.c.F.x.x.z.x.l.c.x.c.c.A.c.k.",
"x.x.k.x.h.h.x.x.c.A.H.W.~.~.E.H.v.x.z.c.z.u.u.@.T  . . . .[ Q Q '  . . . . .{  . .H 8 t.f.g.g.h.h.h.h.F.v.h.h.h.z.x.k.k.k.x.v.c.",
"k.x.c.c.x.b.A.D.F.J.I.I.J.D.H.F.A.v.x.g.y.y.y.q.g !  . . . . .' Q ! | Z. . . .| D d 8.f.f.g.g.g.g.g.c.F.k.h.h.h.h.k.k.k.h.h.k.h.",
"h.g.h.h.h.h.x.c.v.v.v.c.c.c.x.k.h.g.u.u.y.y.w.e.8.2.(  . . . . ...` Y [  . .| Z s w.f.f.f.f.g.g.g.c.F.v.k.h.k.h.h.h.h.h.h.h.h.h.",
"g.g.g.g.g.g.k.k.x.k.k.k.h.h.h.g.f.u.y.w.e.w.w.w.w.6.y R Z. . . . ...Z./  .` K 1.k.k.h.h.h.h.h.c.b.F.c.h.h.h.k.h.h.h.h.z.h.h.h.h.",
"g.g.g.g.h.k.x.x.k.k.h.h.h.g.f.u.f.u.y.e.e.y.y.y.w.q.3.u S Q ! W I W U U U U G.^.!.E.Y.I.I.L.H.F.v.h.g.h.h.h.h.h.c.h.h.h.h.h.h.f.",
"g.h.k.k.k.k.x.x.h.g.g.g.g.g.u.u.u.u.e.y.w.u.y.u.e.w.0.0.X.+.1.a.M.M.a.j.A.F.L.I.Y.R.!.^.Q.F.v.x.g.g.g.g.h.h.h.h.h.h.k.h.h.h.h.f.",
"g.g.u.u.u.g.g.h.h.h.g.f.u.f.g.u.y.u.w.w.w.w.w.w.w.e.y.w.u.v.A.b.k.g.g.g.f.f.f.f.g.h.v.F.R.R.b.x.h.g.h.g.g.g.h.h.h.h.h.h.h.h.h.h.",
"w.w.w.y.y.y.y.u.g.g.h.g.g.f.u.u.e.w.w.u.w.w.w.w.q.q.f.x.v.z.f.q.q.q.q.0.q.q.q.q.w.w.f.h.v.L.L.c.h.g.g.g.h.g.h.h.h.h.h.h.h.h.f.f.",
"w.w.w.q.w.y.y.y.f.f.s.g.f.f.f.u.y.u.w.w.w.w.w.w.f.k.x.g.z.f.f.f.w.q.9.0.6.0.q.q.q.w.f.f.g.x.F.F.h.g.g.g.g.g.g.g.g.h.h.h.g.f.f.w.",
"w.w.w.q.w.w.w.e.u.f.f.f.f.f.y.y.u.u.w.w.w.w.f.x.c.g.w.w.q.q.q.q.q.w.q.0.0.0.0.0.w.w.f.f.f.f.z.b.x.g.g.g.g.g.g.h.h.h.h.g.g.f.w.w.",
"w.w.0.w.0.q.w.w.y.u.f.f.y.u.u.w.w.w.y.w.u.x.x.h.y.w.q.q.q.q.q.0.0.0.0.0.0.0.q.q.q.q.f.f.f.f.f.c.b.g.f.f.g.g.g.g.g.g.g.g.f.s.s.w.",
"w.e.u.f.f.y.w.w.w.y.u.u.y.e.u.e.w.w.w.h.x.k.w.w.w.w.w.q.q.q.0.q.0.0.0.0.0.q.q.w.w.f.f.s.f.f.f.g.b.c.f.g.g.g.g.g.g.g.g.g.f.f.w.w.",
"c.k.k.k.k.k.k.h.g.f.u.y.e.e.w.w.y.g.v.b.f.w.q.w.w.q.w.q.w.q.q.q.q.q.q.q.q.q.w.e.w.w.f.f.f.f.g.f.k.b.h.g.f.g.g.g.h.g.g.g.g.h.c.c.",
"w.w.0.q.0.0.q.e.h.c.c.h.s.f.f.k.A.S.x.u.q.w.w.q.q.q.w.w.w.w.w.w.q.q.w.w.e.e.e.e.s.f.f.f.f.f.f.g.g.c.b.h.f.g.f.f.g.f.c.b.b.v.z.f.",
"q.0.0.0.0.0.0.9.0.e.k.S.F.H.R.!.E.A.k.u.y.w.q.w.w.w.q.w.q.e.e.w.e.w.w.w.e.e.e.s.f.f.f.f.g.f.g.f.f.g.c.F.c.h.h.h.c.F.F.v.h.f.f.w.",
"w.q.0.0.0.9.9.6.0.0.f.h.H.!.!.R.J.H.D.v.x.k.s.y.y.q.w.q.q.q.q.e.w.w.e.e.e.y.y.f.g.f.f.f.f.f.g.g.f.g.g.F.I.F.b.F.L.F.z.f.f.f.f.s.",
"y.w.w.0.0.0.9.0.0.w.f.A.I.F.c.h.h.g.g.g.g.k.c.g.y.y.q.q.0.0.0.0.0.q.w.e.u.e.f.s.g.g.f.f.g.f.f.f.g.f.g.k.J.^.Q.T.b.h.f.f.f.f.w.f."
};
