/* XPM */
static char *_db9efa105d94bf4c5e6799eb575cef9nWwPPYuitt8JLVaE[] = {
/* columns rows colors chars-per-pixel */
"64 64 256 2 ",
"   c #393A32",
".  c #781D2D",
"X  c #307D33",
"o  c #47483D",
"O  c #6B5C2D",
"+  c #587533",
"@  c #3C1D72",
"#  c #6B1B5E",
"$  c #732E4E",
"%  c #703273",
"&  c #3A7D45",
"*  c #4E524E",
"=  c #555749",
"-  c #7D4157",
";  c #596A53",
":  c #686A58",
">  c #756D53",
",  c #6E715D",
"<  c #4D5A6C",
"1  c #754F71",
"2  c #5C6775",
"3  c #6B706F",
"4  c #777A65",
"5  c #951519",
"6  c #AA191A",
"7  c #943015",
"8  c #AB3717",
"9  c #92182B",
"0  c #AF1C26",
"q  c #922D33",
"w  c #A82629",
"e  c #B82527",
"r  c #A93539",
"t  c #B53032",
"y  c #CA2819",
"u  c #C72A28",
"i  c #DA2E2F",
"p  c #D1302E",
"a  c #C92937",
"s  c #C7373A",
"d  c #D83937",
"f  c #90591D",
"g  c #B34716",
"h  c #924E2C",
"j  c #B45032",
"k  c #8E752B",
"l  c #A86738",
"z  c #D15115",
"x  c #D46A10",
"c  c #ED740F",
"v  c #CC4E34",
"b  c #D8463A",
"n  c #EA552D",
"m  c #C66537",
"M  c #D36D30",
"N  c #971954",
"B  c #91155C",
"V  c #91324F",
"C  c #AC324E",
"Z  c #B93745",
"A  c #91316D",
"S  c #AA3375",
"D  c #C93A44",
"F  c #D63A47",
"G  c #CB3354",
"H  c #DE3D52",
"J  c #924C53",
"K  c #B44E51",
"L  c #936E51",
"P  c #AF704C",
"I  c #9C4B66",
"U  c #8B5471",
"Y  c #AD4F6E",
"T  c #B85967",
"R  c #8F6A7A",
"E  c #BA6767",
"W  c #AB6D73",
"Q  c #C74747",
"!  c #D25052",
"~  c #E8524F",
"^  c #D26B52",
"/  c #E57055",
"(  c #CD516B",
")  c #E35B63",
"_  c #CE6F6E",
"`  c #E5706C",
"'  c #3A872A",
"]  c #388D2E",
"[  c #5F9F1F",
"{  c #699D1E",
"}  c #69A61D",
"|  c #77A61C",
" . c #478C27",
".. c #50942F",
"X. c #579928",
"o. c #4B8C37",
"O. c #669C26",
"+. c #718D34",
"@. c #669B37",
"#. c #5AA32E",
"$. c #69A826",
"%. c #76AA26",
"&. c #78B22E",
"*. c #66A437",
"=. c #79A936",
"-. c #56914B",
";. c #669946",
":. c #6F9456",
">. c #6BA349",
",. c #74A549",
"<. c #7AB143",
"1. c #7AA356",
"2. c #5B8971",
"3. c #7E8567",
"4. c #6B976A",
"5. c #6F9673",
"6. c #75A26A",
"7. c #84AC1B",
"8. c #8CB81C",
"9. c #97B619",
"0. c #A6BA15",
"q. c #918E33",
"w. c #B08832",
"e. c #86B425",
"r. c #96B926",
"t. c #83AC3A",
"y. c #8EB331",
"u. c #ACB733",
"i. c #DB8618",
"p. c #EF8C17",
"a. c #F6981A",
"s. c #F4B019",
"d. c #D48B32",
"f. c #F3952A",
"g. c #D6AC35",
"h. c #EEB030",
"j. c #A4C61E",
"k. c #9BC321",
"l. c #ABC52D",
"z. c #F0CE1B",
"x. c #F1CE2C",
"c. c #EFE138",
"v. c #97925A",
"b. c #AD8E4F",
"n. c #8CB14E",
"m. c #ABB849",
"M. c #83886C",
"N. c #88976B",
"B. c #888D74",
"V. c #978E71",
"C. c #8D9576",
"Z. c #949A7A",
"A. c #B28772",
"S. c #87AA65",
"D. c #92AF70",
"F. c #99A87A",
"G. c #ABAE70",
"H. c #CB914E",
"J. c #CCAD52",
"K. c #EBB252",
"L. c #C78A76",
"P. c #EE8D60",
"I. c #CAB36C",
"U. c #98C350",
"Y. c #ACC750",
"T. c #ACC76D",
"R. c #D0C74C",
"E. c #F2D34E",
"W. c #E1DB62",
"Q. c #F3EB69",
"!. c #3D1E85",
"~. c #761A9C",
"^. c #4C2D8E",
"/. c #712B8F",
"(. c #732AB0",
"). c #5F5C9A",
"_. c #715590",
"`. c #6F6D93",
"'. c #69789A",
"]. c #546BAF",
"[. c #4E71AF",
"{. c #5A74A9",
"}. c #4E72B0",
"|. c #5375B2",
" X c #5778B3",
".X c #5C7BB5",
"XX c #5E7BB6",
"oX c #6B66AA",
"OX c #6878AA",
"+X c #7476A5",
"@X c #607FB7",
"#X c #627EB7",
"$X c #7125C4",
"%X c #911B9E",
"&X c #8F318D",
"*X c #AA348B",
"=X c #8D28AD",
"-X c #8B5092",
";X c #AE548B",
":X c #906F8D",
">X c #AD6E86",
",X c #9363A7",
"<X c #CC5484",
"1X c #8408C6",
"2X c #5D8589",
"3X c #769988",
"4X c #6D8B91",
"5X c #6D9194",
"6X c #769499",
"7X c #6B88A7",
"8X c #7788AB",
"9X c #7995A6",
"0X c #6C86B4",
"qX c #6483B9",
"wX c #6986BB",
"eX c #6D89BD",
"rX c #748BB5",
"tX c #718CBE",
"yX c #7892B8",
"uX c #6F8BC1",
"iX c #738EC0",
"pX c #7691C1",
"aX c #7B95C3",
"sX c #7F98C5",
"dX c #8F938E",
"fX c #AA8692",
"gX c #8EAD87",
"hX c #9BA483",
"jX c #A3AA85",
"kX c #A9B485",
"lX c #B0BC8F",
"zX c #8C90AA",
"xX c #AB97A9",
"cX c #8FA5B0",
"vX c #AAADBC",
"bX c #D2A886",
"nX c #97C08F",
"mX c #B5C58B",
"MX c #C2CD91",
"NX c #DFE2A2",
"BX c #829AC6",
"VX c #859DC8",
"CX c #889FC9",
"ZX c #89A0C7",
"AX c #8BA2CB",
"SX c #90A6C4",
"DX c #91A6CD",
"FX c #94A9CF",
"GX c #98ACD1",
"HX c #9EB1D3",
"JX c #AAB4CF",
"KX c #A2B4D5",
"LX c #A5B7D8",
"PX c #ACBCDA",
"IX c #B4C3DD",
"UX c #B9C6E1",
/* pixels */
"XXXXXX X|.}.}.|..XpXAXaXeXqXqXqXqXqXqXqXqXqXqXpXZXeX|.}.[.[.[.[.[.[.|. XXXqXqX.XqXwXwXqXqXqXqXqXqXqXwXwXtXDXPXAXtXwXXX XXXXXqXqX",
"qXXX.X X X X.XeXaXaXtXwXqXqXwXqXwXwXqXqXqXqXqXeXDXGXeX|.[.[.[.[.[.[.[.[. X.X.XqXqXqXwXwXqXqXqXqXqXwXqXwXwXtXGXHXiXqX X X.XXX.X.X",
".XqX.XXXqXuXaXtXeXqXwXeXeXwXeXeXeXeXeXwXqXqXqXeXAXIXHXpXqX X[.[.[.[.[.[.[.|. XqX#XqXqXqXqXqXqXqXqXqXqXqXwXwXtXFXBXqXXXXX.X XqXqX",
"qXqXeXtXyXtXwXwXqXeXeXwXeXeXeXeXuXeXeXeXwXwXqXeXDXIXLXGXAXsXtXeXqXqXqX.X X|.|. X@XqXqXeXtXeXeXwXwXqXqXwXqXwXtXiXAXVXtXtXwXqXqXqX",
"tXpXeXwXqXqXwXeXwXeXeXeXeXeXeXeXeXwXwXeXwXeXeXVXLXFXeXqXqX.XqXqXwXqXwXwXeXqXqXqXwXtXiXpXpXpXiXiXwXwXwXwXwXtXaXBXCXFXHXHXDXCXCXsX",
"qXqXqXqXwXwXwXeXeXeXeXeXeXeXeXeXeXeXeXwXeXeXaXDXZXeXqX X|.}.|.[.|.[.|.[. X.XqXeXBXDXGXGXHXLXGXFXCXVXBXBXBXAXFXHXHXLXLXPXHXGXBXeX",
".XqXqXqXwXeXeXeXeXiXiXiXuXeXeXeX9XeXeXeXeXaXVXaXeXqXqX.X X|.|.[.|.[.|.|.|. X.XqXaXFXPXIXPXLXFXBXaXtXaXaXBXAXGXLXIXIXKXAXtXwXqX.X",
"XXqXqXwXeXtXsXBXVXAXAXVXVXBXsXcXt.1.yX3XzXBXiXeXwXqXXX.X.X X|. X X X.X X X.XwXsXDXFXAXBXaXaXiXwXqXqXqXwXeXtXiXiXaXBXAXAXCXeXqXqX",
"AXBXBXVXFXFXFXAXsXpXiXtXiXiXaXcXt.7.D.t.5.iXeXeXwXwXqXqXXX@X@XqXqXqXqXqXuXVXZXyXeXwXwXwXiXqXqXqXwXqXqXwXwXqXqXqXqXqXqXqXqXtXsXAX",
"HXPXPXPXFXBXeXtXeXtXiXeXtXeXuXuX6X=.e.e.3XiXtXuXeXeXeXwXeXwXeXeXeXpXZXAXAXfXE W '.qXqXqXqXqXqXqXqXqXqXqXqXqXqX.X X X|.|.[.|.qXeX",
"eXBXFXHXGXVXiXtXiXiXtXeXtXtXuXuXiXrX1.| gXAXDXVXaXyXtXaXiXiXaXCXHXLXvX>X0XfXv v `. XqX+X>X1 @XqXqXwXwXqXqXqX.X X|.|.|.|.|.|. XqX",
"eXeXtXtXBXAXFXBXpXtXtXiXiXeXuXeXiX5.=.| :.9XSXHXgX,.cXDXDXHXPXPXKXfXW ` >XdX^ `.|.{.qX+Xb C `.0XwXqXwXwXqXqXqX.X X|.|.|.[.|. XqX",
"wXeXeXtXiXiXaXVXVXBXaXiXtXiXiXeXtX6Xn.&.%.*.N.KXgX%.D.UXIXPXvXJXcX_ ! / ` _ _ :XoX$X@X+XG Z Z U qXwXqXeXeXwXwXqX.X X X|. XqXqXqX",
"eXeXuXtXtXtXiXiXpXBXBXBXsXaXsXaXBX9XD.mX=.{ gXKXJX=.>.cXCXGXP.` ( W :XT ` _ W :X:X=XiXE Q u C +XwXwX8XqXwXqXqXqXqXqX.XqX.X.X.XqX",
"eXeXiXtXtXpXiXiXpXtXiXiXpXiXaXaXyX1.8.n.=.1.SXGXCX@.O.@.yXxX` ) W W T >X` K :XoXbX! T >XD y % wX+X8XE :XqXqXqXqX.X.X X X X.XqXqX",
"eX8XrX9X3XtXiXiXiXiXiXiXtXtXtXuXtX6X*.} } 3XBXpXyX5.X.@.>XL.<X( _.OXE ) _ I A ;X^ b D W Q 0 `.+X_ T m R qXqXOXqXqXqX.X.X.XqXqXwX",
"tX1.t.S.<.rXiXiX6X5.tXuXuXuXuXeX5.3X8X@.} ;.5.rXuXrX5.;.:X_ %X<XK +X( ! Y =X1X;X^ G *X! y 5 $ :X/ b v K +XfX! +XqXqXqXqXqXqXwXwX",
"eX6X,.n.%.3XyXrX3X&.4.9XeXeXuX5X&.*.9X,.O.@.4XtXeX5.4.;.4XL.( ( T >X) :X_.1X1X1X>XH G u 9 %X_.,X( b u U W n j `.qXqXqXqXwXwXwXwX",
"eXeXrX3X%.=.,.5.iX5.} *.7XeXeX7X<.$.>.O.5.rXeXeXeX2.X.[ ..B.;X<XY *X~ U I ,X1X=X^ ~ p 6 B %XC V Y ! K K Q K I T +XOXOXqXqXwXwXwX",
"eXtXuX3XS.U.%.5.uX7X4.*.2X7X0XeX6.} $.4.0XeXtXeXrX'.:.+.2..XXXoX_ ~ ! C V #XoX-X/ v 9 N _.*Xd r :X+X&Xp I R j r +XE V `.7XwXwXeX",
"eXeXuXrXS.U.&.5.yXuX0X6.;.;.;.rX4.$.*.-.2.rXiXeX2.7X>XQ `. X].:XT K ~ e U 0XeX8X>XQ B A _.*Xt -XzX,X) F I t w $ '.! t w 1 qXwXeX",
"iXiXuXyX6.&.%.*.4.tX7X,.9.e.%.6.=.%.;.:.5.6XeX0X-.5.:.K J S (.oXU Y b e J I 0XzX:XZ B 9 *X) I @X+X! d 0 V 1 _.U _ W p q `.qXeXrX",
"iXiXyXtX6X9X>.*.5XuX0XdX0.y.$.$.=.5.7XeXS.D.7X0X2.o.@.A.! D C -XK G Q u q U rX_ ) d e B (.Y C A ~.D 6 . ^.:X:XY ^ W p V @XtXeXtX",
"tXpXtXyX&.>.>.5.uX0Xn.n.0.$.[ } *.:.n.gXG.T.@.5X4.X.v.` ` s S *X! j j e A $X&XD S a u 9 ~.( p 9 /.a w . A ) ! &XK u q _.W 8XpXpX",
"VXZXZXZX6.&.$.6.9XZXl.0.0.&.*.%.X.@.y.u.u.1.X.-...#.;.P E ! C V v.b.h u B $XS d I b 6 # (.>X( a C r 1 # ~.C D /.C 0 -XzX! :XBXsX",
"GXAXVXaX9X>.$.<.T.U.l.U.$.$.%.*.5.7XD.G.8X2X....>.2.'.W ( Y Z w %.q.f j w U ^ ~ b i w B (.,X( i Z w # ;X( Y ~ Z 1 U W :XC K xXxX",
"VXBXsX6.4.>.<.cXR.0.0.n.$.*.$.1.9XeXkXT.6X'...*.>.2.'.U U 3Xl C h f L R w L l G b t V ~.$X,X<X&XG e # &X! a Z U -XI K % C ( ) r ",
"ZXAXgXn.&.&.<.n.l.j.0.e.X.X.%.O.;.9XG.l.4.-.X.X...@.M.t u :.O J e F a q 6 O ^ b u 6 9 ~.,X_ /.*XF a V ! C D Y oX;X~ V A s t W W ",
"GXAXD.Y.S.$.[ 6.n.l.r.$.$.X.$.X.-.D.u.r.X. .#. .n.q.v j e t s ! G G G a 5 O q.n N A 9 ).,X~ H a F ~ i ~ +X% U _./.A i F p w zXKX",
"SXcXn.l.6.&.6.cXm.l.r.7.%.@.$.X.2X6Xn.Y.T.{ X. .l q e p F k q.L C U oX( e O ^ u N `.1 :X>X~ F 6 u i a G :X/.I ( G D a w I r I CX",
"pX6Xr.D.3X&.>.=.9.9.j.9.} X.$.X.2.2.>.T.Y.{ .. .f r b l j R 5XL F e J Y 0 w v q V F >X) F e 5 6 6 0 6 0 t V V r Z r q J zXJ I pX",
"rXS.l.D.>.$.$.&.k.9.9.j.9.7.| $...o.2XN.r.O...O. .+._ L h b.R v.;XC s F a u u # ~.&X&XF u w N V 5 5 5 0 w - U q % OX1 w q `.7XtX",
"pXU.j.Y.T.<.$.} y.y.Y.r.k.9.| ..X. .2 D.8.y.m.y. .+.L V d P ^ j P ! k L ^ ! ! q (.$X&Xt Y ~.-X-X(.% # . . . 5 6 J OX^.9 7 `.aXtX",
"pX9Xl.T.T.MX&.$.#.>.T.%.7.r.|  . .] o.y.| 7.r.7...O D v H.lX) j g.h.J.l l ! P.u 9 Y M ^ ;X*X( C A -X!.].oX).$ 6 V @ !.).U rXaXpX",
"sX9Xk.j.k.Y.r.} #.X.#.$.$.y.e.| #.o. .X.O.7.7.| ] + + =.k.v.L d.s.a.Q.J.J U ( b u c s.K.~ ) ` G D A ^.rX:XU 3 5 w 5 - aXBXBXCXVX",
"sXgXY.k.k.k.8.%.<.#.#...*.n.%.| *.nXo.X ' &.7.{ ' + l q.q.P f w.s.z.c.NXH.v ! ~ i p.z.E.t i i D -X^.S ! t $ 1 . . J zXBXaXBXCXFX",
"HXsXT.U.D.n.&.y.&.T.nX..| | %.[ ] -.] '  .| | | $.O.W j v _ v b / h.z.Q.W.L.~ d y z s.bX% e u M M C K K % @ ).h # oXAXsXBXBXVXFX",
"PXsXyXyXrX6X6X1.<.D.N.6.N.N.v...o.& & ' O.| | | }  .9XA.^ P.^ ^ _ P.x.c.Q.lXA.) n y a.K.&Xw i.a.h.r t w # !.^.@ @ OXVXsXBXBXVXVX",
"HXKXsXsXeXzXgXhXmXhXhXhXZ.Z.B.M.5.OX{.-. .{ { { ' ] 4.>.Y.E.a.u.D.G.I.z.c.I.G./ / n p.K.A 9 M x.A._.V q $ ].).^.).pXsXsXsXsXBXBX",
"sXFXHX9XdXdXhXkXmXhXF.mXF.B.M.M.4 2.7X|.X @.O. .' ] { $.R.c.z.R.I.J.W.h.x.K.R.s.f.i c f.1 % P K.jXdXF.V.dXyXpXpXpXsXsXsXsXsXsXBX",
"sXaXzXhXC.C.C.dXC.Z.C.kXN.4 4 , , , 3 '.& -.X.-.] ] #.D.Y.c.z.u.m.f.K.h.s.J.x.c.K.z c M R hXH.E.lXjXhXZ.C.C.6XtXpXaXaXaXaXaXaXaX",
"pXyXdXB.B.C.Z.B.4 M.3.N.F.3.N., : : : + ' ..gXNXD.>.<.1.Q.c.h.@.b.a.J.h.s.b.R.z.Q.M M v.G.T.f.h.MXhXZ.B.3.R 4 3 yXsXaXaXiXaXiXaX",
"uX9X5.B.R M.M.M.F.M., 3.G.6.N.: = = = = -.D.lXlXkXG.F.G.W.c.g.G.H.f.J.a.h.G.J.x.Q.M P g.a.K.c d.G.G.V.F.3., : : : 9XaXyXaXpXiXiX",
"eXeX4X4 3., > N.D., , , 3.3., = * = = : Z.mXkXlXlXkXF.G.c.x.g.G.M ^ H.p.H.M.u.c.E.z m.z.E.W.n M f.h.G.3.: ; = = * < VXBXaXpXiXiX",
"tXeXwX+X3 , ; : : : B.F.kXG.F.V.= * , C.F.jXF.jXlXJ.J.V.h.h.K.MXm m M f.P 4 q.z.x.z b.z.Q.b.z g g.E.G.= = * o     * yXVXaXiXiXtX",
"eXeXeXuXqX7X'.2 4 jXlXkXlXhXhXF.B., 3.3.B.M.B.M.F.R.s.N.H.h.K.G.j P d.a.L , i.s.i.8 P z.W.l y h w.c.v.* o       * OXsXaXBXiXiXtX",
"eXeXeXwXwXwXuX4XM.C.C.C.jXkXhXB.B.M., , > N.N.: : R.z.L > d.f.L L P l c l > i.a.z h b.x.g.g h = w.x.v.* < < 2 ).qXiXaXiXaXaXiXtX",
"tXeXeXeXwXuX7X, , 4 N.3.4 3.4 , , , : o * = = = = m.s.w.O > M d.L j j z j L p.c 7 L d.x.x h 3 2 d.h.dXBXyXeXuXiXtXeXtXtXtXaXsXiX",
"pXaXpXpXpXpXyX2 = o ; = o = = = ; ; `.).< < < < < v.x.p.L 4X9XA.l J 8 z v P p.x g i.s.i.h '.uXW p.H.iXCXpXeXeXeXeXeXeXtXtXeXtXiX",
"eXwXeXeXeXpXsXyX4X`.'.2 2 `.`.7XOXqX.XqXqX7XqX X}.'.H.a.p.^ >XzXR j 8 y z x c x x p.x 7 1 wX:Xc H.8XVXCXtXeXeXeXeXeXeXeXeXeXeXeX",
"wXeXeXwXwXeXeXtXpXpXpXpXtXeXqXwXqXqXqX.X XqX X X.X}.{.B.P ^ z v dXW z 8 y z x s.p.g $ 1 3 R M x zXVXVXiXtXeXeXeXeXeXeXeXeXeXwXeX",
"qXqXqXwXwXeXpXpXuXeXeXeXeXwXqXqXqXqX.XqXqX X XqX.X X[.[.|.{.'.J g R P x z c x s.c g 3 q 8 8 v W BXiXuXwXwXtXeXeXeXeXeXeXwXeXeXqX",
"wXeXeXeXpXpXtXtXeXeXeXwXwXqXqXqXqX.X.X.X.XqXqX.X.X X}.}. X XqXiX:Xh A.i.x x x s.c g 7 l xXzXzXyXeXwXwXwXeXeXeXeXuXeXeXiXeXeXeX@X",
"eXeXeXeXqXeXeXeXeXwXqXqXqXqXqXqXqX.X.X.X.X.X XqXqXXX X X}.eXsXDXAX1 M p.c p.p.s.c g m vXIXGXiXeXwXwXwXwXwXwXeXeXeXeXeXeXeXeXeXeX",
"qX.X.X.XqXqXqXqXeXwXqXqXqXqXqXqX.X.X.X.X X.X X.X X XXXwXyXaXwXqX@X).x f.a.f.a.a.p.z E aXCXLXDXiXeXwXwXwXwXwXwXeXeXeXeXwXeXeXeX#X",
" X X.X.X X.X.XqXqXqXqXqXqXqXqX XqX.X.X.X.X.X.X.X XqXtXpXiXuXqXXX X`.x f.a.f.p.p.f.c dXwXuXBXDXBXwXwXwXwXwXwXwXwXwXwXeXeXiXwX#X#X",
".X X XqX XqX XqXqXqXqXqXqXqX XqX.X.X.X.X.X.X.XwXtXyXqX@X.X.XXX@XXXOXI M m ^ M l m P OXXXwXuXpXVXtXwXqXwXwXwXwXwXwXeXeXeXwXqXXXXX",
" X X X X X X XqXqXqXqXqXqXqXqX XqXXX.XXX.XqXtXaXwXXX X X X|. X|.|.|.|.{.{.{.{.OXOX XqXqXqXqXwXiXsXwXqXwXwXwXwXwXwXwXwXwXqX@XXX.X",
" X X X X X X X XqXqX X XqXqX XqX.X.X.XXXwXyXwX.XXX.X X X X|.|.|.|.|.|.|.|.|. XXX XqXXXqXqXwXqXeXBXeXqXwXqXwXwXwXwXwXwXqXqXqX.X.X",
"eXiXtXpXtXwXqXqX XqXqXqX X XqX XXXXXwXaXtXqX X X|..X.X X X X X X|.|.|.|. X X XXX XqXqXXXqXqXqXqXiXsXqXwXqXwXqXwXwXwXwXwXqXqXqXqX",
"wXqXqXqXqXqXqXwXyXeXqXqXqXqX XqXwXaXBXwX.X X X X.X X.X X X.X X X X X X X.X X.X.X@XqXqXqXqXqXwXqXqXsXaXqXqXqXwXqXwXwXwXeXiXaXaXpX",
" X X}.}.|.}.[.}.qXwXaXsXeXrXpXAXGXaXqX@XXX.X X.X X.X.X.X.X.X.X.X X.X X.X.XqXqXqX#X#XqXqXqXqXqXqXqXwXsXaXwXqXwXwXwXiXaXAXaXeXqX.X",
" X|.|.|.|.|.|.}.[..XqXaXFXHXIXIXLXDXCXtXqX@X.X X.X X X.X.X X.X.X.X.X.X.XqX.X.XqXqX#X@XqXqXqXwXqXqXqXeXAXAXaXtXpXVXDXBXeXqXqXqX.X",
"qX X|.}.}.|.}.[.|. XqXpXFXIXFXAXBXsXaXtXtXaXwX@X.X.X X X|. X X X.X.XqX.X.X.XqXqXeXqXqXqXwXqXqXqXwXqXqXaXLXGXAXGXGXaXwXqXqXqXqX#X"
};
