/* XPM */
static char *result[] = {
/* columns rows colors chars-per-pixel */
"64 64 210 2 ",
"   c #3C322A",
".  c #3A3C3C",
"X  c #56281F",
"o  c #73321B",
"O  c #503129",
"+  c #593528",
"@  c #473938",
"#  c #573C38",
"$  c #6A3725",
"%  c #753622",
"&  c #6E3933",
"*  c #55453A",
"=  c #6F4336",
"-  c #784533",
";  c #784B32",
":  c #3F3F45",
">  c #553A40",
",  c #3F4451",
"<  c #3E4E69",
"1  c #4C4646",
"2  c #42424C",
"3  c #524348",
"4  c #454758",
"5  c #4B5651",
"6  c #56525A",
"7  c #664544",
"8  c #615748",
"9  c #6C4F59",
"0  c #6B5559",
"q  c #74635F",
"w  c #454E62",
"e  c #4E5569",
"r  c #56556B",
"t  c #4A5975",
"y  c #565C78",
"u  c #655768",
"i  c #735967",
"p  c #655B73",
"a  c #5E6466",
"s  c #58647B",
"d  c #686A63",
"f  c #7B6564",
"g  c #766775",
"h  c #657279",
"j  c #9A290E",
"k  c #852C18",
"l  c #9A2D11",
"z  c #88371D",
"x  c #9B391A",
"c  c #A92E0F",
"v  c #AA2F10",
"b  c #A93514",
"n  c #A53C1B",
"m  c #B73D17",
"M  c #883A25",
"N  c #973C20",
"B  c #AE3E20",
"V  c #C43D14",
"C  c #A9421C",
"Z  c #BC421A",
"A  c #B8471D",
"S  c #86452B",
"D  c #984423",
"F  c #994E39",
"G  c #945535",
"H  c #A64C2C",
"J  c #B84723",
"K  c #A95228",
"L  c #BA5629",
"P  c #B65B2E",
"I  c #A34A32",
"U  c #A85438",
"Y  c #BB5936",
"T  c #A86437",
"R  c #B96338",
"E  c #C54116",
"W  c #C2431A",
"Q  c #C6451A",
"!  c #CB4519",
"~  c #CD4C1D",
"^  c #D04619",
"/  c #D1491A",
"(  c #C54B23",
")  c #C75627",
"_  c #CD5422",
"`  c #C35B2C",
"'  c #D25824",
"]  c #D35B26",
"[  c #C95A33",
"{  c #C9642D",
"}  c #D5622B",
"|  c #D8692E",
" . c #C96636",
".. c #D56731",
"X. c #D66D33",
"o. c #C9743A",
"O. c #D5773A",
"+. c #895C4A",
"@. c #985945",
"#. c #A75C40",
"$. c #876558",
"%. c #9A6452",
"&. c #94735C",
"*. c #BA6549",
"=. c #B06D4A",
"-. c #A5745B",
";. c #B6745C",
":. c #866663",
">. c #86736D",
",. c #87757A",
"<. c #957C79",
"1. c #A67664",
"2. c #C66945",
"3. c #C9784F",
"4. c #D57A45",
"5. c #C46C50",
"6. c #C67758",
"7. c #CA7C62",
"8. c #DA813F",
"9. c #B1825F",
"0. c #AF8A74",
"q. c #BA8776",
"w. c #DB874B",
"e. c #C78459",
"r. c #E18744",
"t. c #CA866A",
"y. c #DA9868",
"u. c #C88C78",
"i. c #C8927E",
"p. c #D8A77E",
"a. c #4D5E82",
"s. c #586787",
"d. c #4B6592",
"f. c #566B97",
"g. c #5B729D",
"h. c #656886",
"j. c #776F82",
"k. c #76748B",
"l. c #657499",
"z. c #737D94",
"x. c #526FA4",
"c. c #4E71AF",
"v. c #5974A4",
"b. c #5372A9",
"n. c #5D7AAE",
"m. c #4F72B0",
"M. c #5375B2",
"N. c #5778B3",
"B. c #5C7CB5",
"V. c #5C7DB8",
"C. c #657AA3",
"Z. c #637DAD",
"A. c #607FB7",
"S. c #617FB8",
"D. c #867A84",
"F. c #6A82AF",
"G. c #7686A9",
"H. c #6681B3",
"J. c #6B85B4",
"K. c #6F89B7",
"L. c #6482B9",
"P. c #6986BC",
"I. c #6D89BD",
"U. c #7389B4",
"Y. c #718DBF",
"T. c #7992BE",
"R. c #6E8BC0",
"E. c #738EC0",
"W. c #7691C1",
"Q. c #7B94C3",
"!. c #7F98C5",
"~. c #90898E",
"^. c #A48D8B",
"/. c #B58D82",
"(. c #B29A8D",
"). c #B9A29A",
"_. c #828CA5",
"`. c #9C96A5",
"'. c #8898B8",
"]. c #ABAAA4",
"[. c #C99683",
"{. c #D29987",
"}. c #C69E90",
"|. c #CDA598",
" X c #D0AD93",
".X c #C8AFA8",
"XX c #D2B3A8",
"oX c #819AC6",
"OX c #869DC8",
"+X c #889FC9",
"@X c #8CA2CB",
"#X c #91A6CD",
"$X c #94A9CF",
"%X c #9AABCA",
"&X c #96ABD0",
"*X c #9AAED1",
"=X c #9EB1D3",
"-X c #A8B4CA",
";X c #A3B5D5",
":X c #A7B8D7",
">X c #A8B8D7",
",X c #ABBCD9",
"<X c #B0BFDB",
"1X c #B3C2DC",
"2X c #B8C6DF",
"3X c #B9C6E0",
"4X c #BDCAE1",
"5X c #D2C9C5",
"6X c #E2D7D3",
"7X c #E9E2DF",
/* pixels */
"V.A.B.N.N.M.c.M.N.E.+XoXI.L.L.L.L.L.L.L.L.L.L.W.OXY.N.c.c.c.c.c.c.c.M.N.B.L.A.L.L.P.P.L.L.L.L.L.L.L.P.P.E.&X,X@XY.L.V.N.B.V.H.L.",
"A.V.V.N.N.N.N.P.Q.!.E.I.P.L.P.L.L.L.L.P.L.L.L.I.@X*XI.N.m.c.c.c.c.c.m.m.n.N.V.V.L.P.P.P.L.L.L.L.L.P.L.P.I.W.*X*XY.V.N.N.B.B.V.V.",
"A.V.B.B.S.I.Q.E.P.P.P.P.P.P.P.P.I.Y.I.I.L.L.L.I.@X1X;XW.L.N.m.c.c.c.c.m.m.M.N.L.A.A.L.L.L.L.L.L.L.L.P.L.P.P.W.&X!.L.B.V.B.V.H.V.",
"L.L.K.Y.W.R.P.P.P.P.P.P.I.P.I.Y.I.I.I.I.P.P.P.I.@X1X:X$X@XQ.W.I.P.L.V.V.N.N.N.N.V.L.P.I.Y.K.I.P.P.L.P.L.L.P.I.Q.@XOXY.I.P.L.L.L.",
"Q.Y.Y.K.L.L.P.P.P.I.P.I.I.Y.I.I.I.P.P.L.I.I.I.oX:X$XI.L.V.V.L.L.L.L.P.P.P.P.L.L.I.Y.Y.E.W.Q.W.Y.P.P.P.P.P.E.Q.!.@X$X=X=X$X@X@XoX",
"L.L.A.L.P.P.I.I.Y.I.I.Y.Y.I.I.I.I.I.I.I.P.I.Q.$XOXI.L.N.M.M.m.c.m.m.m.m.N.B.L.Y.!.$X=X;X;X;X=X$X@XOXOXOXOX@X*X=X;X:X:X;X=X@XT.P.",
"B.A.L.L.P.I.I.I.Y.Y.E.E.Y.Y.I.I.I.I.I.I.I.!.OXQ.P.L.L.N.N.M.M.m.M.m.N.M.N.N.N.L.Q.=X,X1X,X;X#XoXE.E.E.W.!.@X*X;X,X1X=X@XW.P.L.B.",
"V.L.L.P.I.E.!.oX+X@X+X+XOXoXoXOX!.!.!.oXoX!.Y.I.I.L.L.N.B.n.M.M.N.B.N.N.N.V.K.oX@X#XOX!.Q.W.I.I.L.P.L.P.I.I.E.E.T.OX@X@XoXI.L.B.",
"@X+XOX+X#X$X$XOXQ.E.E.E.Y.E.W.OX*X;X=XoXY.I.I.I.I.P.L.S.A.S.A.L.L.S.L.L.W.oX!.Y.I.L.P.P.I.L.L.L.P.L.L.P.L.L.L.L.L.L.L.V.L.Y.oX@X",
"&X,X<X<X$XoXY.Y.Y.Y.Y.P.I.Y.I.I.Y.Q.OX@XoXW.Y.I.I.Y.I.I.I.P.I.I.Y.Q.@X$X@XI.L.N.N.L.L.L.L.L.L.L.L.L.L.L.L.L.L.B.N.M.M.M.c.N.L.Y.",
"P.W.+X*X*X@XQ.Y.Y.Y.Y.Y.Y.I.Y.Y.I.I.I.Y.oX@X#X@X!.Q.Q.W.W.E.!.@X;X;X#XY.L.M.M.M.N.M.L.n.s.x.S.L.L.I.L.L.L.L.B.N.M.M.M.m.m.N.N.V.",
"P.I.I.I.oX+X$XOXQ.E.Y.Y.Y.Y.Y.I.Y.I.I.I.I.Q.@X=X:X;X*X$X*X;X<X<X;X#X+XQ.P.L.N.x.d.x.L.t X & p L.P.L.I.I.L.L.L.B.M.M.M.M.M.N.B.L.",
"P.I.Y.Y.Y.Y.W.oXOXOXoXW.E.Y.I.E.I.Y.Y.W.Q.@X$X;X,X3X3X2X<X>X*X+XQ.Q.E.E.Q.Q.s.@ $ - 9 r k j k u g.L.I.P.K.I.L.L.B.N.N.N.B.B.L.L.",
"I.I.Y.Y.Y.E.E.E.W.W.oXoXoXoXoXoXoXOXOX@X@X#X$X;X,X;X&X@XOX!.E.P.A.B.N.m.M.b., x ~ A F :.b m 5./.(.G.J.L.P.L.L.L.L.L.V.B.B.B.L.L.",
"I.I.Y.Y.Y.E.E.E.E.E.E.E.E.E.E.W.Q.W.W.Y.Y.Q.#X$XOX!.Q.Q.W.Y.P.L.B.x.s.s.f.d.@ m b l q.;.E t.XXt.6.6.f A.L.L.L.L.B.B.N.N.N.B.L.J.",
"I.Y.Y.E.E.E.E.E.E.E.Y.Y.Y.Y.Y.Y.Y.Y.I.I.W.OXQ.E.E.E.Y.I.I.P.P.L.v.2 N J I ^.`.%.v V {.5.[ }.[ ' ] } Y h n.V.L.L.H.L.B.B.L.L.P.P.",
"I.Y.Y.Y.Y.W.Y.E.E.E.Y.Y.Y.I.I.I.E.E.E.Q.OXW.Y.E.I.Y.I.P.P.P.P.L.s.@ W / } 3.7Xu.V V [.5.6.-.= &.4.o.$.8 = a.L.L.L.L.L.L.L.P.P.P.",
"I.I.Y.Y.E.Y.E.E.Y.Y.I.Y.I.P.P.I.I.E.oXOXY.I.I.I.I.I.P.P.L.L.L.L.g.O Z / ] ..XXi.V m [.=.u.G   h {.8.8 $.C 3 B.L.L.L.L.L.L.P.P.P.",
"I.I.R.Y.Y.Y.Y.Y.Y.Y.I.Y.P.P.P.P.I.Q.!.I.I.I.I.I.I.P.P.L.L.A.V.L.g.@ Z / ' { ^.^.n o %.U {.-.d `.y.8.e.=.K 3 B.B.L.L.L.L.L.P.P.P.",
"I.I.Y.R.Y.W.Y.Y.Y.I.Y.I.P.I.P.I.W.!.I.P.I.E.I.I.I.I.L.L.V.B.B.B.n., o m Z 7 f.v.r + Z A t.3.4.r.8.r.8.o.S a.L.L.B.L.L.L.L.P.I.P.",
"I.Y.I.Y.Y.W.W.Y.Y.Y.Y.P.P.I.I.W.OXI.P.P.I.I.I.I.I.P.L.V.B.B.N.B.B.x.4 # p H.P.R.s.+ ( } 3.t.' | P ; P K u L.N.L.L.N.L.L.L.P.I.I.",
"Y.Y.Y.Y.Y.W.E.oXW.Y.Y.I.P.I.E.@XQ.I.I.I.I.I.I.I.P.I.L.S.B.B.B.B.B.L.L.L.P.I.P.I.g.O J | X.;. .] ) K L g L.L.L.L.B.L.L.P.P.I.I.Y.",
"Y.E.W.E.W.W.I.I.Y.I.I.I.I.W.@X@XY.I.I.P.P.P.P.P.P.P.L.L.B.B.N.B.B.L.L.L.P.P.I.I.K.4 o A U k.D.%.K T ~.+XW.P.P.L.L.L.P.P.I.Y.Y.Y.",
"W.W.W.W.W.E.Y.I.I.I.Y.Y.Q.$X;X!.E.E.I.P.P.P.P.I.K.P.P.L.B.B.B.B.L.L.L.I.P.P.P.I.K.F.y u l.K.Y.J.G.T.%X<X=X@XT.I.L.L.P.I.Y.Y.W.W.",
"@X#X@X@X+XOXOXoXoXoX+X@X*X2X;XQ.W.E.I.L.S.P.P.P.P.R.P.S.B.B.B.V.L.L.L.I.I.I.L.I.P.L.I.I.W.W.Q.Q.Q.!.$X1X4X1X=X@XQ.W.Q.!.!.Q.!.@X",
"%X+XoXQ.W.W.Q.+X*X>X<X<X2X2X,X#XW.E.I.P.P.P.P.P.E.P.L.B.B.A.A.A.L.L.L.I.I.P.I.L.P.L.L.P.I.Y.W.!.@X;X1X1X:X*X$X$X@X@X*X=X:X1X1X:X",
"OXoXoXW.Y.Y.U.oX@X,X<X>X&X@X$X:X@XI.H.Z.S.P.S.P.P.P.S.B.B.V.L.L.L.I.I.I.I.I.L.L.L.L.L.P.P.I.Q.#X,X:X$XOX!.W.K.I.I.W.!.#X;X2X1X@X",
"+X+XOXE.Y.R.E.oX*X=X@XoX!.T.U.T.&XJ.> # p S.I.P.P.P.S.A.V.A.L.Y.I.I.I.I.P.I.I.L.A.L.P.P.I.!.#X$XOXQ.W.I.I.L.L.L.P.I.W.Q.@X&X:X=X",
"*X#XoXoXI.E.oX@X$XoXoXW.U.r 3 7 g z.% j k p Z.P.P.P.L.L.S.L.P.I.I.I.P.I.L.P.P.L.L.L.P.I.oX@XOXQ.E.I.I.L.L.B.L.V.L.I.Y.W.Q.!.#X=X",
"OX+X+X@X+X+X+XoXQ.W.W.W.r + Z A D f M v B %.D.z.P.P.P.L.L.P.P.P.I.P.P.P.P.L.L.V.V.P.Q.oXQ.Y.I.I.I.I.L.L.L.L.L.L.L.P.I.W.W.Q.!.!.",
"E.W.E.E.E.W.oXY.Z.J.K.S.2 x W b @.0.W [ XXXX[.u.,.Z.P.P.P.P.P.P.P.I.I.P.L.L.N.B.L.Y.W.L.L.L.P.I.R.I.I.L.L.V.L.L.L.L.I.W.W.Q.W.W.",
"R.R.I.R.S.E.I.s.- I @.,.D.+.l m 7.u.! [.7.' ' ] ` g P.P.P.P.P.P.P.I.P.L.L.B.B.I.Q.I.A.L.L.L.P.I.I.I.I.L.L.V.L.L.L.I.I.Y.I.Y.Y.R.",
"W.Y.Y.I.Y.P.n.: n / ' 2.6XXXE E 7.7.[ i.D @.O.O.#.q 0 s P.P.P.I.I.P.I.P.L.I.Q.Y.S.B.S.A.S.S.P.P.Y.I.Y.P.L.L.L.L.P.Y.Y.Y.Y.E.E.E.",
"Q.W.Y.Y.Y.P.H.> n ~ ' { {.XXZ V 6.q.6.-.* 5  XO.; d C # U.Q.W.E.I.I.I.T.@X!.I.B.B.A.A.S.S.S.L.P.P.Y.P.Y.Y.P.Y.P.Y.Y.Y.Y.Q.Q.Q.Q.",
"Q.Q.Y.Y.Y.I.J.2 n ^ ' } q.].J x %.1.t.1.5 d  Xr.9.9.L - '.@XOXoXQ.Q.@X$XOXI.L.N.B.B.B.A.S.L.L.P.P.P.Y.E.oXoXQ.W.W.W.oXoXoXoX+X+X",
"@X!.Q.T.Y.Y.P.w o E Q H f l.u O N n 6.t.e.t.r.r.8.o.K i 2X<X>X=X;X,X=X@XW.I.L.B.B.B.B.B.S.S.L.L.P.E.oX+X$X*X*X$X$X$X$XoXQ.oX+X=X",
",X@XQ.Q.Y.Y.I.C., + & h.A.S.v.@ Z ] 2.t.' | o.G T R ; '.3X4X4X<X=X*X$X$X#X@XQ.Y.S.S.A.A.B.S.S.S.Q.+X$XoXoXQ.oX+X#X#XoXoXoXoX@X$X",
":X=X!.W.E.Y.I.R.L.g.A.R.P.E.U.@ J ] X.e. .' ` S P G z.@X>X<X*X+X!.!.Q.W.W.I.Q.!.oXoXW.Y.P.P.W.oXoXW.Y.E.W.W.Q.Q.oXoXoXoXoXoXoXOX",
"#X=X#XQ.E.I.Y.Y.E.Q.oXoX!.Y.L.w o ~ [ $.,.*.) ` @.l.W.W.$X=XoXQ.Q.Q.Q.I.I.I.P.L.S.P.S.W.oX#X=X+XE.W.Q.Q.Q.W.Y.Q.!.!.oXoXQ.!.oXoX",
"!.oX@X@X+X+X+X+X+XoXY.P.L.A.V.v.4 7 i A.n.g.s.h.A.R.I.R.&X+XW.W.Y.I.I.I.L.P.P.I.I.I.Y.P.I.Y.oX@X*X*X$X#XOXQ.Y.E.Q.Q.Q.Q.!.Q.oXoX",
"Q.Q.Q.Q.Q.Q.Q.I.P.P.L.L.L.L.A.V.B.L.L.N.M.N.N.L.S.P.P.Q.$XY.S.I.L.L.L.L.L.L.L.L.L.P.Y.T.Y.P.P.Y.oX$X:X<X,X&XQ.E.E.Q.Q.Q.Q.Q.Q.Q.",
"Y.Y.Y.Y.I.I.P.P.P.P.L.L.L.V.V.B.B.L.N.N.V.L.L.P.I.Y.oX$XR.A.A.S.L.L.V.B.B.L.B.L.L.P.P.I.Y.I.R.E.Q.oX&X<X2X<X=X#XoX!.Q.W.E.E.Q.E.",
"Y.Y.I.I.I.I.P.I.P.P.L.L.A.A.A.L.L.L.L.P.W.!.@X@X&X*X=XoXA.N.N.A.B.V.B.B.B.B.V.V.L.P.L.I.P.I.s.e l.Q.:X;X#X@X#X$X$X@XoXQ.Q.E.E.E.",
"Y.Y.I.I.I.P.P.P.P.L.L.L.L.L.P.I.I.Q.!.@X=X,X1X1X<X<X#XI.A.M.M.N.B.N.N.N.N.B.B.B.B.v.t e s.Z.# k M j.&X#XoXQ.Q.oXoXOX+XoXQ.E.E.Y.",
"I.I.I.I.P.P.P.P.P.L.L.P.P.I.W.@X@X@X!.!.@X=X@X@X$X=X&XQ.S.A.N.M.M.n.N.N.N.N.N.V.x., % C D 9 7 j j M ,._.T.W.Q.W.Q.Q.oXoXQ.E.E.Y.",
"I.I.I.I.P.I.P.P.L.I.I.E.Q.OX=X=X@XE.I.I.@X@XW.W.Q.oXOX@XW.S.A.M.M.m.M.N.N.N.N.N.t + W Z x <.U V 5.|.|.)._.U.Y.T.Y.Q.W.Q.oXE.E.Y.",
"I.I.I.I.I.I.P.K.I.I.W.!.$X,X,X@XW.I.L.R.@XI.L.L.S.I.S.W.+XI.S.A.M.M.M.M.t 9 i h.s = n c J |.( 2.XX6.[ ..R g I.Y.Y.E.E.E.W.oXW.Y.",
"W.W.Y.I.I.I.R.W.W.!.$X;X1X2X:X@X!.R.I.W.P.L.V.L.A.A.A.S.E.OXS.A.M.m.M.< $ W Q Y .X5XU V [ |.( u.*.J ..X...+.s.l.Y.Y.Y.Y.Y.E.Q.E.",
"I.R.Q.Q.W.Q.oX@X@X#X=X*X#X@X@X@XOXoXI.S.S.S.S.N.N.M.M.M.A.P.oXS.M.c.M.< $ ^ _ } t.6XY V [ {.Y [.; 1 0.w.T a ; * l.I.I.Y.I.I.I.I.",
"P.P.P.P.P.I.Y.Q.Q.Q.Q.Q.W.W.Y.I.I.S.S.A.A.A.S.N.S.M.m.m.M.M.A.W.E.L.L.t % ! ~ ] 2.5X2.V H (.*.q.* . ].w.T >.P M s.I.I.I.I.I.P.I.",
"P.P.P.P.P.I.I.Y.I.Y.I.I.P.P.P.P.S.S.S.A.A.N.S.A.A.M.m.c.m.M.A.P.E.OX#Xz.+ W ~ _ U _.:.% $ U Y [.9.0.p.r.w.w.P - g.I.I.I.I.P.P.I.",
"L.P.L.P.I.I.Y.W.I.Y.Y.P.P.P.P.L.S.A.A.A.A.A.S.N.N.N.m.m.m.M.A.S.Y.OX:X-X6 $ c @.`.%X#X6 z ~ ` u.{ X.O.o.o.O.D u I.Y.I.I.I.P.P.P.",
"P.I.I.I.Y.W.Y.I.I.P.P.L.P.L.L.L.S.S.N.N.A.S.A.A.S.N.M.M.M.A.I.+X$X=X$X$X'.s.h +X=X;X,Xa z ' ..t.5.}  .S S P 0 H.I.I.I.I.I.I.P.P.",
"P.P.L.L.L.L.P.P.I.I.P.L.L.L.L.L.S.S.S.A.N.N.N.A.A.S.N.A.S.E.oXoXY.L.L.L.L.L.L.L.J.I.Q.s.$ _ | R 1. .' ) L $.H.E.I.I.I.I.I.I.P.P.",
"N.B.B.B.N.L.L.L.L.P.L.P.L.L.H.N.B.N.N.A.N.S.A.N.M.N.S.W.W.oXS.A.N.N.M.M.N.N.N.N.B.V.L.F.2 % I j.C.k.f $.j.S.P.P.I.I.I.I.I.K.P.L.",
"L.N.N.N.B.B.B.B.L.L.L.L.L.L.L.L.S.A.A.N.A.N.N.A.S.R.W.I.S.S.S.S.N.M.m.M.m.M.m.M.N.N.L.L.L.l.G.oXI.P.L.L.L.P.P.P.L.I.I.I.I.L.V.B.",
"B.B.N.N.B.B.N.L.L.L.L.L.L.L.B.L.A.A.A.N.A.N.S.W.W.P.A.B.N.N.N.B.N.N.N.M.m.M.M.M.N.B.A.S.L.I.E.oXW.L.L.P.L.P.P.P.I.I.I.L.L.L.B.B.",
"N.N.N.N.N.N.N.B.B.L.H.L.B.L.B.B.N.A.N.A.S.R.oXS.A.B.M.M.M.M.M.M.M.M.M.M.M.M.M.N.N.B.A.L.L.L.L.E.!.P.L.P.P.P.P.P.P.P.P.P.L.L.B.B.",
"V.L.L.L.L.B.B.N.N.V.L.V.B.L.B.B.A.N.A.S.W.I.A.N.N.B.N.B.N.N.M.M.M.M.M.m.N.N.N.N.B.A.A.L.L.L.L.L.oXY.L.P.P.P.P.P.P.P.P.L.L.L.B.B.",
"T.Y.R.I.E.I.I.I.L.L.V.L.L.B.B.B.A.S.oXoXS.A.N.N.N.N.N.B.N.N.N.N.N.N.N.N.N.N.N.B.V.A.A.L.L.P.P.L.I.oXI.L.L.L.P.P.L.P.L.I.L.I.W.W.",
"N.N.M.M.M.M.N.L.P.Q.Q.P.L.L.L.I.oXOXY.S.A.N.A.N.N.N.A.N.B.B.B.N.B.N.N.N.B.V.A.A.V.A.L.L.L.P.P.L.L.W.!.P.L.P.L.L.P.L.Y.!.oXQ.I.L.",
"N.N.M.M.m.M.m.m.m.B.K.oX@X@X=X1X>XOXY.S.A.N.N.N.B.N.A.N.B.B.N.B.B.B.B.B.V.A.A.L.L.L.A.L.L.L.L.L.L.P.W.@XW.P.P.I.W.@X@XQ.I.L.V.B.",
"B.N.M.M.m.M.m.m.M.N.L.I.@X1X,X=X*X#X@XOXR.I.S.A.N.N.N.N.N.N.N.N.B.B.B.A.V.A.A.L.P.L.L.L.L.L.L.P.L.L.P.@X=X@XoX@X$XOXI.P.L.L.L.V.",
"B.B.N.M.M.M.m.m.M.N.L.oX$X@XQ.P.Y.S.S.S.S.Y.oXS.S.A.N.M.M.M.M.M.N.N.B.A.A.L.A.A.L.P.L.L.L.L.L.L.P.L.P.Y.$X,X,X=XoXI.L.L.H.L.V.L."
};
