/* XPM */
static char *_63c8a0413ee457ece55b42c16d02e3aeceWlZfuXEBRTcl9[] = {
/* columns rows colors chars-per-pixel */
"64 64 193 2 ",
"   c #1D1A18",
".  c #221E21",
"X  c #2B2723",
"o  c #2C2924",
"O  c #292829",
"+  c #352D26",
"@  c #382E27",
"#  c #332E2A",
"$  c #382E28",
"%  c #36312D",
"&  c #3A332C",
"*  c #2E323D",
"=  c #363536",
"-  c #3B3631",
";  c #3E3934",
":  c #3B3A39",
">  c #423C36",
",  c #433E38",
"<  c #3F403E",
"1  c #45423E",
"2  c #49443D",
"3  c #363C45",
"4  c #3E4149",
"5  c #3A445A",
"6  c #3D4D6A",
"7  c #454440",
"8  c #494743",
"9  c #4C4A45",
"0  c #42444C",
"q  c #49474B",
"w  c #4B4B4B",
"e  c #514C44",
"r  c #514E4B",
"t  c #53524E",
"y  c #5A564D",
"u  c #5C584F",
"i  c #474B55",
"p  c #545453",
"a  c #5A5752",
"s  c #575857",
"d  c #5C5A54",
"f  c #52565D",
"g  c #5D5D5C",
"h  c #625E55",
"j  c #5E615E",
"k  c #64625E",
"l  c #49546A",
"z  c #545B6A",
"x  c #425577",
"c  c #535E75",
"v  c #5E6263",
"b  c #58647A",
"n  c #636563",
"m  c #686763",
"M  c #656866",
"N  c #6A6966",
"B  c #63676E",
"V  c #656969",
"C  c #6A6E6D",
"Z  c #6B6D6F",
"A  c #6D716F",
"S  c #71716F",
"D  c #6C7272",
"F  c #6F7478",
"G  c #717976",
"H  c #747B7B",
"J  c #7B7D7C",
"K  c #7D827E",
"L  c #4F658E",
"P  c #566685",
"I  c #5C6A85",
"U  c #496392",
"Y  c #586D95",
"T  c #5C739D",
"R  c #6B7586",
"E  c #737B82",
"W  c #7A7D81",
"Q  c #657798",
"!  c #4E6CA1",
"~  c #4E71AF",
"^  c #5D75A1",
"/  c #4F72B0",
"(  c #5475B2",
")  c #5778B3",
"_  c #5C7CB5",
"`  c #647CA7",
"'  c #607FB7",
"]  c #607FB8",
"[  c #778182",
"{  c #7B8484",
"}  c #7B848C",
"|  c #7F898A",
" . c #6F829F",
".. c #778597",
"X. c #6780AD",
"o. c #6A83AE",
"O. c #7589A9",
"+. c #7C8DAD",
"@. c #7F94AD",
"#. c #6581B4",
"$. c #6B84B3",
"%. c #6583B9",
"&. c #6986BB",
"*. c #6D8ABD",
"=. c #7189B5",
"-. c #718DBF",
";. c #7D92B5",
":. c #7790BE",
">. c #7A92BB",
",. c #738EC0",
"<. c #7691C1",
"1. c #7B94C3",
"2. c #7F98C5",
"3. c #828685",
"4. c #838C8C",
"5. c #8B8D8C",
"6. c #848F91",
"7. c #869193",
"8. c #8A9495",
"9. c #87969A",
"0. c #8A9699",
"q. c #8B999A",
"w. c #919491",
"e. c #929C9D",
"r. c #99A09F",
"t. c #8F9DA0",
"y. c #8595AA",
"u. c #939FA1",
"i. c #8398B8",
"p. c #8399BC",
"a. c #899DBB",
"s. c #95A1A3",
"d. c #9AA4A5",
"f. c #97A5A9",
"g. c #9CA6A9",
"h. c #9DAAAC",
"j. c #8FA2BC",
"k. c #94A5BC",
"l. c #9AA9B9",
"z. c #A3ADAD",
"x. c #A4AFB1",
"c. c #A2AFB9",
"v. c #A5B1B3",
"b. c #AAB4B5",
"n. c #A6B2B9",
"m. c #ABB6B9",
"M. c #ADBABC",
"N. c #B7BCBB",
"B. c #B2BCBD",
"V. c #829AC6",
"C. c #869EC8",
"Z. c #889FC9",
"A. c #8EA2C5",
"S. c #8CA2CB",
"D. c #98AAC6",
"F. c #91A6CD",
"G. c #94A9CE",
"H. c #95A9CF",
"J. c #9AACCC",
"K. c #96ABD0",
"L. c #97ABD0",
"P. c #99ADD1",
"I. c #9AAED2",
"U. c #9DB1D3",
"Y. c #9EB1D4",
"T. c #A8B6C4",
"R. c #B3BEC0",
"E. c #A2B4D5",
"W. c #A3B5D5",
"Q. c #A7B8D7",
"!. c #ADBBD6",
"~. c #AABAD9",
"^. c #ACBCDA",
"/. c #B0BFDB",
"(. c #B6C1C2",
"). c #B9C2C1",
"_. c #BAC3C3",
"`. c #BEC7C6",
"'. c #BFC8C7",
"]. c #B5C1CA",
"[. c #BCC6C9",
"{. c #BFC9CA",
"}. c #B3C2DD",
"|. c #B8C6DF",
" X c #BBC9E1",
".X c #C0C8C7",
"XX c #C2CBCC",
"oX c #C8D0CF",
"OX c #C6CFD0",
"+X c #C8CED1",
"@X c #C7D0D1",
"#X c #CBD3D4",
"$X c #CFD7D9",
/* pixels */
"_ _ _ _ ( ( / ( _ -.C.2.*.%.&.%.] ] %.] ] ] ] 2.C.,.( / ~ ~ ~ ~ ~ ~ ( ) _ ] ] %.%.*.&.%.%.%.&.%.%.%.&.&.,.K.Q.C.,.&._ _ _ _ %._ ",
"%._ _ _ _ ) _ &.1.1.,.*.&.%.&.&.&._ *.&.&.%.] ,.F.L.*.( ( ~ ~ ~ ~ ~ ~ ( ) _ ] ] %.&.&.&.&.%.%.%.&.&.&.&.,.<.P.P.,._ _ ( _ _ ] %.",
"%._ _ _ %.*.1.<.*.&.&.&.&.*.&.*.&.,.,.&.&.] &.&.Z./.E.1.%.) ( ( ~ ~ ( ~ ( ( _ ] ] #.%.%.&.%.&.%.%.&.%.&.%.&.<.G.V.%._ _ _ ] ] _ ",
"%.%.*.<.<.-.*.%.&.*.*.*.*.*.*.*.,.,.&.&.*.*.&.,.F./.~.K.S.1.,.-.*.%._ ] ) ( ( _ ] %.&.*.,.*.*.&.&.%.%.&.&.&.,.1.S.C.,.,.*.&.%.%.",
"<.<.-.&.%.%.&.*.*.*.*.*.*.,.*.*.*.&.,.,.,.&.,.V.W.P.,.] ] ] ' ] %.%.%.&.*.&.%.&.*.-.-.<.1.1.1.-.*.&.&.&.,.,.1.V.C.P.U.Y.F.S.S.V.",
"%.%.%.%.%.*.*.*.,.*.*.*.*.*.*.*.*.*.&.&.&.*.1.F.C.*._ _ ( ( ( ~ ( ( ( ( ( _ %.-.V.G.I.W.W.W.I.G.S.C.C.C.C.S.P.U.W.W.~.W.U.S.1.*.",
"_ %.%.%.*.*.*.*.*.,.<.<.,.,.,.*.,.&.&.*.,.1.C.2.*.] ] _ ) ( ( ( ( ( ( ( ( ) _ %.1.P././.~.W.F.V.,.,.,.<.V.C.K.W.^.}.P.S.1.&._ _ ",
"_ %.%.&.*.<.2.C.Z.S.S.C.V.C.V.C.V.1.V.C.C.1.,.&.*.&.] ' _ ) ) ) ( ( _ _ _ _ *.V.F.F.Z.V.1.-.-.*.&.%.&.&.-.,.,.,.1.C.S.S.V.,.%._ ",
"S.C.V.S.F.K.F.V.1.<.,.,.,.,.1.C.K.W.P.C.,.,.&.,.*.*.%.] ] ' %.' %.%.] &.<.C.C.-.*.&.*.&.*.&.%.%.%.%.&.%.&.&.%.%.%.%.%._ %.,.V.F.",
"K.Q.}.}.K.2.<.,.,.,.,.-.*.*.*.,.,.1.Z.Z.V.,.,.,.*.-.-.*.*.*.*.*.-.2.S.G.Z.-._ ) _ ] ] ] %.%.%.%.&.&.%.&.%.%.%.) ) ( ( ( ( ) _ ,.",
"*.<.S.K.U.S.1.,.,.,.*.-.,.&.,.,.*.*.*.,.2.S.S.Z.V.1.1.1.<.<.1.F.I.E.F.,.] ) ) ) ( _ ] #.%.%.%.&.%.&.&.%.%.%.] _ ( ( ( ( ( ( _ ] ",
"*.*.,.*.1.S.F.S.<.,.,.,.,.,.,.*.,.,.*.,.,.1.S.W.W.W.P.G.P.W././.W.F.Z.1.-.] ) ) ) _ ] %.%.%.&.%.%.&.&.*.&.%.] _ ) ( ( ( ( _ _ %.",
"&.*.,.-.,.,.<.2.S.C.1.<.,.,.,.,.-.-.,.,.1.Z.K.W.!. X|.|./.~.P.S.V.2.,.,.1.1.-.-.&.] ' #.%.%.%.%.&.&.&.&.*.*.&.%.] ) ) _ _ ] %.%.",
"*.*.,.-.,.,.,.,.,.1.V.V.1.2.2.1.V.C.C.Z.S.F.G.W.~.W.G.S.Z.1.-.&._ _ ( ( ) ) ] ,.p.Z.:.-.*.%.%.%.&.&.&.&.&.&.%.%.#.] ] _ _ _ %.&.",
"*.-.*.,.,.,.<.<.,.,.,.,.,.,.1.<.1.,.,.,.,.1.G.G.Z.V.2.1.1.:.:.-.=.>.;.i.p.k.T.T.M.R.R.n.n.k.i.-.&.%.%.%.%.%.%.%.] _ _ ) _ _ %.&.",
"*.*.,.-.,.,.,.,.,.<.,.,.,.,.,.,.-.-.-.-.1.Z.1.,.,.-.-.k.n.m.B.B.R.R.R.).)..X.X.X[..X`.[..X.XB.c.y.o.%.%.%.%.%.%.%.] ] _ _ %.&.&.",
"*.,.,.,.,.,.,.,.,.,.-.*.,.*.*.*.,.,.,.2.S.<.,.-.-.p.T..X).).).).).).).).).{..X.X'.'.'.'._.N.m.m.w.Z #.%.%.%.%.%.%.%.%.&.%.&.&.*.",
"*.*.-.,.,.,.<.,.,.,.-.,.*.*.*.*.*.,.2.S.*.*.-.*.a.B.XXXX_.).).).).).).).(..X.XXX'..X`.).M.b.m.m.e.m ` %.%.%.] ] %.%.%.%.&.&.&.*.",
"*.-.-.-.,.,.-.-.,.-.-.-.*.*.&.&.*.1.2.*.*.-.:.k.N..XXX.X`.).).).).).).).).`..X.X'.`.B.m.b.m.m.m.d.k Q %._ %.] %.%.%.%.#.&.%.&.*.",
"-.*.-.,.,.<.:.-.,.*.*.*.&.&.*.*.<.2.*.*.*.1.l.M..XoXXX@X_.).).).).(.).).).)..X.X).B.B.B.(.).(.B.z.N Q %.%.%._ ] %.] %.%.%.&.&.*.",
"*.,.,.*.*.<.<.<.,.,.*.*.&.*.*.:.V.*.*.*.p.n.B._.XXXXXXXX.X).).).).(.N.).).(.m.x.h.r.r.e.e.e.d.v.z.N R &.%.] _ %.] ] %.%.&.&.*.*.",
",.*.,.,.,.<.<.<.<.:.,.*.*.*.<.S.1.*.*.:.n.M.B.{.XXXXXX.X_.B.B.N.B.N.).b.z.d.e.e.e.5.4.3.3.3.3.6.3.k R -.&.%.%.] _ %.%.&.&.*.*.,.",
",.<.<.<.<.<.,.*.*.*.*.*.*.<.F.S.<.*.-.f.b.B..XXXXX.X_..X).N.m.v.z.v.x.s.d.f.d.z.e.4.3.3.4.3.J V e 2 A A.1.*.&.%.%.%.%.&.*.-.,.,.",
"<.<.<.<.<.<.,.*.-.*.-.<.1.G.W.2.<.-.i.z.b.R..XXX.X.X).N.N.v.d.s.g.f.q.s.s.e.d.d.3.3.5.{ H Z p 2 2 > v !.W.S.<.*.%.%.*.*.-.,.,.<.",
"S.S.S.S.S.C.V.C.V.V.S.S.P. XI.1.<.=.f.v.n.`.XXXX.X{.'.`.XX(.h.s.q.d.s.e.q.t.8.| | 4.5.{ V w , , > > B ^. X|.U.S.2.1.1.2.2.2.V.S.",
"K.S.V.1.<.<.1.S.P.Q.^.}.}. X}.S.1...g.v.(.@XXXXXXXXX@X.X{.@X].h.s.s.s.q.t.t.6.{ H G D M 8 , , , > 2 y.}.~.P.G.F.S.S.P.W.Q.~.^.Q.",
"V.2.V.<.-.-.<.2.S.^.^.W.K.F.K.Q.Z.} z.B.(.{.@X@X@X$X#X#XXX{.).b.b.m.z.g.d.7.H D D D v 2 > , > , > p a.C.2.<.*.*.-.<.V.F.~.|.}.F.",
"S.S.S.<.-.-.<.2.P.Y.S.C.2.1.2.J.R.B._.].(.(.).{.@X#X#X$X@X{.).v.v.m.d.s.7.D D A D M 9 , 2 , > , > I <.*.*.&.%.%.&.*.<.1.C.K.~.U.",
"U.F.2.1.,.<.1.S.F.C.C.A.J.T.].{.XXXXXXOX{.[.].M.R.`.XXXX{.{.).b.b.b.g.8.F D D D Z w 1 , , , , > w #.&.%.%.%.%.%.%.*.,.1.2.V.F.I.",
"2.S.S.S.C.C.S.V.1.1.l.(.'.oXXXXXXXXXXX{.{.OX{.R.R.B.M.m.n.m.h.g.z.g.d.| D D D D s 1 , , , ; & - I ,.&.%.%.%.%.%.%.*.*.<.<.1.V.V.",
"<.<.<.<.<.1.<.<.<.D.].B.M.B.).).[.XXXXXX{.{.(.(.R.M.n.v.h.s.r.u.s.u.s.4.D D D V 9 2 ; - % # # 4 o.-.*.%.%._ %.%.%.&.*.<.<.<.<.<.",
"-.*.*.*.*.*.,.<.T.OX@XOXXXB.m.m.m.M.R.R.R.T.M.M.n.v.h.f.u.s.s.s.u.u.s.7.D Z D s ; & % # # + O P *.*.*.&.%.%.%.%.%.*.*.*.-.,.,.,.",
"<.:.-.-.*.*.*.k.XXXX@XXX{.).B.x.x.h.h.h.h.h.g.g.f.d.e.s.s.u.s.r.u.u.u.8.w 1 3 & % # # # # X 5 $.*.*.*.*.%.%.%.*.*.*.*.<.<.<.<.<.",
"<.<.<.-.*.*.j.n.M.M.(.(.).R.(.M.h.s.u.q.q.q.q.q.q.q.e.s.s.r.s.s.z.u.s.e.w : 1 8 7 1 1 > = l X.&.*.,.,.*.<.*.*.*.*.,.*.<.<.2.2.<.",
"2.1.<.-.-.>.h.h.f.s.u.s.h.x.z.z.v.s.q.q.q.q.q.7.q.0.q.q.e.u.r.s.e.d.z.v.d.v.m.b.v.v.m.v.s.;.%.&.&.*.*.<.2.2.2.<.<.<.2.S.2.2.S.S.",
"F.2.:.:.-.@.q.q.q.q.q.q.q.q.t.r.d.z.s.q.q.q.q.q.0.q.q.8.q.q.t.f.b.B.XXXX#X@XXX.X{.{.oX#XOXT.j.*.*.,.2.S.F.U.L.K.S.L.G.C.2.2.S.K.",
"}.S.1.<.-.y.q.9.q.q.9.q.q.q.q.q.q.t.d.h.q.q.q.e.q.q.q.q.q.q.v.`.OX#X#X#XOX{.{.{.{.{.{.{.{.[.(.n.j.A.G.S.2.1.2.S.L.F.S.2.2.V.S.F.",
"Q.P.2.<.-...q.q.q.q.q.q.q.q.q.q.q.q.| A y k S K 4.w.q.q.r.M.XX#X#X#X+XOX{.{.{.{.{.{.{.{.[.(.z.q.q.q.y.:.<.<.<.2.2.2.2.2.V.V.V.S.",
"F.U.G.2.=.K q.9.q.9.q.q.q.q.q.8.K M 9 - @ + @ & 1 e k 5.].@X#X#X+XXX{.{.{.{.{.{.{.{.].(.m.f.| { [ { { } >.<.:.<.2.2.2.2.2.2.V.V.",
"2.2.S.F.;.p K q.q.q.q.q.q.6.G d 2 - & + @ @ @ & & ; y v.OXOXOX{.[.XX{.{.XX{.{.].R.n.v.f.f.| { { { H Z n ..<.:.,.<.2.2.2.2.2.2.2.",
"1.1.<.2.:.w < j G { { G j 9 , - & & @ @ @ @ > 1 > > K [..X[.{.{.[.[.[.R.B.m.h.s.q.7.6.q.9.} H Z M M n s E L.2.<.1.1.<.1.1.1.1.1.",
"*.<.<.-.&.i + - , 2 2 ; ; ; & @ + + @ @ 2 > > > > 8 d.'.{.XX(.M.x.f.s.q.7.| | | 4.6.| G V M j n g p 9 7 } }.Y.S.V.2.2.<.<.1.<.<.",
"<.-.-.*.*.c + + $ & & & @ @ @ & & & 1 1 > > > > > s b.).B.z.8.4.4.6.4.| | 4.q.7.H M g d p r 9 w 8 7 1 w +.S.F.L.L.S.2.<.<.<.<.<.",
"*.-.-.*.*.` b w - & @ # + @ & & < 1 & 1 > > 1 > , n d.d.8.4.6.8.8.8.8.e.s.q.{ V w 8 7 7 7 1 1 , 1 1 1 b 2.1.2.2.2.S.S.2.<.<.<.<.",
"-.*.*.*.*.&.*.#.^ Y P c z f f z t w w 0 2 2 2 2 ; n q.q.q.0.7.0.u.s.s.q.7.F M p 7 7 7 7 1 7 e r 7 : q ;.2.<.<.<.2.2.1.S.2.<.<.<.",
"-.*.*.*.*.*.&.&.&.*.,.,.<.C.U.J.>.o.X.#...O.Q Q I W q.8.| | u.s.u.q.9.| Z v n 9 7 7 7 1 8 V 5.w.4.J J y.+.=.<.<.<.<.<.<.2.<.<.*.",
"*.*.*.*.*.*.*.*.*.:.<.2.G.}.~.S.2.,.&.,.V.,.*.&.-.} | H 4.u.s.t.9.9.} V v M g 1 1 7 7 1 k 5.5.5.K 3.3.K s i T *.,.,.<.<.<.2.<.<.",
"<.<.,.*.*.*.*.:.<.V.F.W.}.|.Q.F.<.,.&.,.,.%.%.%.#.4.{ 4.s.s.t.9.6.H M n M M 9 1 7 7 1 : N J G S S S S N t - : P *.*.*.,.<.<.<.<.",
"*.*.1.<.,.1.2.2.S.L.P.P.G.S.S.S.V.1.,.&.] _ _ _ O.4.3.r.u.7.W D V n n V n 9 7 7 1 > - - d Z N k a h y 9 8 - # = P -.*.*.*.,.*.*.",
"*.*.*.*.&.,.<.1.1.1.1.,.1.,.,.,.&.&.%._ ] ] _ %.O.4.9.7.W V v M n M n p 1 1 7 7 : % % 8 m k n y e e 2 1 - # # # 0 $.,.*.*.*.*.*.",
"%.*.%.*.%.&.,.,.<.,.,.,.,.,.&.&.%.%.%._ _ _ _ _  .| { H S n n n g r > ; 1 1 7 ; - % & a k h h y e e e 2 - # % # 4 _ -.*.*.*.*.&.",
"*.%.*.%.&.,.,.,.<.,.%.*.%.&.%.%.%.%._ ] %._ %._ ^ v D K J v t 7 - - - 1 7 1 % o o o X e h h d h u e > > # % % % 0 $.-.*.*.*.&.&.",
"&.*.,.,.,.,.,.,.*.&.&.&.%.%.%.%.%._ _ ] _ ] ] _ _ z w p = X # % - ; , 1 > O     O * i V d y u u y 2 $ # % # # # 4 $.-.-.*.*.*.&.",
"&.&.%.%.%.%.%.&.,.,.&.%.%.%.%.%.%._ _ _ _ _ _ _ _ ^ q #     . . # = = 3 3 5 x L T #.-.p.R h t w 9 q 0 w i l c c T *.*.*.*.*.&.&.",
"#.%.( ) ( %.%.%.%.%.%.%.%.%.%.%.%._ _ _ _ _ _ _ _ ) P = . O * 3 6 x U ! / ( ) _ _ _ &.*.2.A.A.$.` #._ _ %.%.*.*.*.*.*.*.*.*.&.%.",
"#.( ) #.) %.( %.%.%.%.%.%.%.%.%.] _ ] _ _ _ _ _ %.,.-.^ Y T _ ' _ ) ( ( ( ( ) ) _ _ %.%.*.-.S.V.-.&.=.*.*.*.*.&.&.*.*.*.*.%.] ] ",
") ) ) ) ) %.( %.%.%.%.%.%.%.%.) ] ] _ _ _ _ %.,.,.,._ _ ) ) ) _ _ ) ) ( ( ( ( ( ) _ %.%.%.&.*.V.,.&.&.&.&.&.*.&.*.*.*.*.] ] ] ' ",
") %.) ( ( ) ) #.%.%.%.%.) %.) %._ ] _ _ ] ,.1.&._ _ _ ) ) ) ( ( ( ( ( ( ( ) ) ) ( _ ] #.%.&.&.,.2.&.%.%.&.&.&.*.*.%.*.%.%.] ] _ ",
"%.%.) %.%.%.#.( ( %.%.%.) %.%.) _ _ ] &.1.,._ _ ) _ _ ) ) ) ) ) ) ( ( ( ( ) ) _ _ %.] %.%.%.&.&.V.,.&.&.&.&.&.&.&.*.%.*.%.%.' _ ",
",.,.,.,.,.,.,.*.&.%.) %.%.%.) %._ &.1.1.%._ ) ) ) _ ) _ ) _ ) ) ) ) ) ) _ ) _ _ _ ] %.%.%.&.&.%.*.V.*.%.%.&.%.&.*.%.*.%.*.-.,.-.",
") ) ) ) ) ( ) %.&.,.,.,.%.%.%.,.V.C.,.] _ ) ) _ _ _ _ ) _ _ _ _ _ _ _ _ _ ] ] _ ] %.%.%.&.%.%.&.%.1.2.&.%.&.&.%.%.*.,.V.C.1.-.' ",
") ) ( ( ) / / / / %.,.2.2.G.P.}.W.C.,.%._ _ _ _ ) _ _ _ _ _ _ _ _ _ _ _ _ _ _ ,.%.%.%.%.%.%.&.%.&.%.1.Z.<.*.*.*.<.C.S.1.&.%.] _ ",
"%.( ( ( / ( / / / ) %.,.S.}.}.P.G.S.C.2.,.,.%._ _ _ ) _ ) ) ) _ _ _ _ ] ] ] _ %.&.%.%.%.%.&.%.&.&.%.*.C.P.S.V.S.K.C.-.&.%.%.#.] ",
"_ %.) ( ( ( / / / %.%.2.L.S.,.,.,.&.%.&.%.,.,.,._ _ ) ( ( ( ( ( ( _ _ ] ] ] %.] %.*.%.%.%.%.%.&.%.&.&.,.P.~.~.U.V.-.%.%.%.%.%.] "
};
