/* XPM */
static char *d5f2e58341a84bdcad0af9d73741afe6M5sppWJzB0AYSyen[] = {
/* columns rows colors chars-per-pixel */
"64 64 206 2 ",
"   c #1E191B",
".  c #201B1C",
"X  c #173E27",
"o  c #292628",
"O  c #302F34",
"+  c #423E3F",
"@  c #054C22",
"#  c #065527",
"$  c #1B4D32",
"%  c #175935",
"&  c #274838",
"*  c #21553D",
"=  c #345836",
"-  c #06622C",
";  c #08632E",
":  c #0C6C34",
">  c #17663A",
",  c #156D3A",
"<  c #087334",
"1  c #0C7739",
"2  c #0D7D3C",
"3  c #12743B",
"4  c #1B753B",
"5  c #117D3E",
"6  c #2B693A",
"7  c #306C3C",
"8  c #495436",
"9  c #57563A",
"0  c #6C553C",
"q  c #74593E",
"w  c #1F5C42",
"e  c #2D4C47",
"r  c #295848",
"t  c #33564A",
"y  c #334E55",
"u  c #2C5A51",
"i  c #37595A",
"p  c #1D6A45",
"a  c #1A7546",
"s  c #147D43",
"d  c #26694A",
"f  c #23754A",
"g  c #36744B",
"h  c #2A6956",
"j  c #356959",
"k  c #3D4D6A",
"l  c #3D5269",
"z  c #3B5F77",
"x  c #386767",
"c  c #3B646C",
"v  c #3D6574",
"b  c #4A4649",
"n  c #544D4A",
"m  c #485359",
"M  c #5A5658",
"N  c #675544",
"B  c #755B42",
"V  c #7B5E42",
"C  c #665A57",
"Z  c #7C6145",
"A  c #7A654C",
"S  c #69734C",
"D  c #696359",
"F  c #786556",
"G  c #434E67",
"H  c #435769",
"J  c #5B5D69",
"K  c #455A78",
"L  c #635F65",
"P  c #476A69",
"I  c #557E65",
"U  c #416378",
"Y  c #4B6D7D",
"T  c #5D657B",
"R  c #517678",
"E  c #696569",
"W  c #716867",
"Q  c #636574",
"!  c #846345",
"~  c #896646",
"^  c #836945",
"/  c #8C6946",
"(  c #846649",
")  c #866A4D",
"_  c #8B6C4D",
"`  c #906B47",
"'  c #926D48",
"]  c #9B724A",
"[  c #8E6F51",
"{  c #8E7153",
"}  c #877159",
"|  c #937454",
" . c #9A7957",
".. c #957959",
"X. c #9C7C59",
"o. c #A2774D",
"O. c #A67A4F",
"+. c #A87B4F",
"@. c #AA7C50",
"#. c #A17E5A",
"$. c #897463",
"%. c #0D853E",
"&. c #0B893F",
"*. c #11833F",
"=. c #0E8641",
"-. c #0C8C41",
";. c #128341",
":. c #1A8345",
">. c #0B9444",
",. c #26824C",
"<. c #368456",
"1. c #43865F",
"2. c #4F8866",
"3. c #658B75",
"4. c #A4825C",
"5. c #A9855F",
"6. c #AC8761",
"7. c #AD8961",
"8. c #B38D64",
"9. c #B79066",
"0. c #B99167",
"q. c #BD9469",
"w. c #C0976A",
"e. c #C49A6C",
"r. c #485D83",
"t. c #4C6483",
"y. c #496887",
"u. c #4D6E8E",
"i. c #586888",
"p. c #587583",
"a. c #546A93",
"s. c #546D9B",
"d. c #5A6F98",
"f. c #587397",
"g. c #5D739A",
"h. c #636E89",
"j. c #657899",
"k. c #4F6EA7",
"l. c #4E71AF",
"z. c #5B73A2",
"x. c #5674AA",
"c. c #5976AC",
"v. c #5D79AD",
"b. c #4F72B0",
"n. c #5475B2",
"m. c #5778B3",
"M. c #5C7CB5",
"N. c #5D7DB6",
"B. c #657AA2",
"V. c #627BAB",
"C. c #617FB6",
"Z. c #607FB8",
"A. c #6A828A",
"S. c #769281",
"D. c #6E8295",
"F. c #77869B",
"G. c #7587A4",
"H. c #6481B5",
"J. c #6B84B4",
"K. c #6583B9",
"L. c #6986BB",
"P. c #6D8ABD",
"I. c #778CB4",
"U. c #718DBF",
"Y. c #7A92BE",
"T. c #738EC0",
"R. c #7691C1",
"E. c #7B94C3",
"W. c #7F98C5",
"Q. c #8E8E8E",
"!. c #889396",
"~. c #8CA696",
"^. c #8496B6",
"/. c #9BAFA3",
"(. c #A9A7A7",
"). c #ABB8B0",
"_. c #B4B6B5",
"`. c #829AC6",
"'. c #8B9FC5",
"]. c #869EC8",
"[. c #889FC9",
"{. c #8DA0C6",
"}. c #8CA2CB",
"|. c #91A6CD",
" X c #96A8C8",
".X c #94A9CF",
"XX c #97ABD0",
"oX c #9AADD1",
"OX c #9DB1D3",
"+X c #9EB1D3",
"@X c #A3B5D5",
"#X c #A7B8D7",
"$X c #A8B8D7",
"%X c #ABBCD9",
"&X c #B0BFDB",
"*X c #BDC4C0",
"=X c #B3C2DD",
"-X c #B8C5DF",
";X c #BECBE2",
":X c gray79",
">X c #CDD1CE",
",X c #D5D6D5",
"<X c #EBEAEB",
"1X c #F0EDEF",
"2X c #F7F6F7",
"3X c #FEFCFD",
/* pixels */
"N.Z.N.m.n.n.n.n.M.R.].W.T.L.K.K.K.Z.K.Z.K.Z.L.R.].U.m.b.l.l.l.l.l.b.n.n.N.Z.K.K.K.L.L.K.K.K.K.L.K.K.T.K.T.|.#X}.T.K.K.n.K.m.K.K.",
"Z.N.N.N.m.n.M.L.R.E.R.L.K.K.L.K.K.L.L.L.K.K.Z.P.|.XXP.m.n.b.l.l.l.b.l.n.n.N.N.C.K.K.L.L.K.K.K.K.K.L.K.L.T.T.OXoXT.K.m.m.n.K.m.K.",
"N.H.N.N.K.P.E.R.U.L.L.L.L.L.T.K.P.U.P.L.L.K.L.L.[.&X@XE.K.m.n.b.l.n.b.n.n.n.N.N.K.K.H.L.L.K.K.K.K.K.K.T.K.K.R.oXE.K.K.m.m.K.K.N.",
"K.K.L.T.R.T.L.K.L.L.L.T.L.T.L.T.U.U.P.P.P.P.L.U.|.&X#X.X}.E.T.T.L.K.N.N.M.n.n.N.H.K.L.P.T.T.T.K.K.K.K.K.K.T.T.E.}.W.T.T.K.K.K.K.",
"E.R.T.L.K.K.L.T.L.L.L.L.T.T.L.T.L.P.P.P.P.P.P.].$XXXU.Z.C.C.N.Z.K.L.L.L.L.L.K.K.P.T.R.R.R.E.R.T.T.L.T.K.T.T.E.W.}.oXOXOX|.}.}.`.",
"K.K.K.K.L.L.P.L.T.T.T.T.T.L.T.L.P.P.P.P.P.P.E.|.[.P.N.N.n.n.n.l.b.b.b.n.n.N.K.U.`.|.OX+X@X@X+XXX}.}.}.W.W.}.OX+XOXOX=XOXOX}.R.T.",
"M.N.K.L.L.P.P.P.T.T.R.R.T.T.L.T.P.P.P.P.U.E.'.E.P.Z.Z.N.M.n.b.n.n.n.n.n.m.M.N.K.E.oX=X=X=XOX}.W.T.T.T.T.W.W.oX+X=X=X+X}.T.K.K.m.",
"N.K.K.L.P.R.W.].].].}.].W.].].W.`.E.`.`.].`.U.U.P.L.Z.N.s.y.z z U a.n.M.m.N.L.`.}.}.}.W.R.R.T.P.K.K.K.T.T.T.T.T.E.`.}.}.W.T.K.K.",
"}.}.W.}.|.XX|.W.E.R.T.T.T.T.R.].XX@XoX].T.T.L.L.P.L.f.x r % # 1 s p y.K.T.].`.U.L.L.T.L.L.L.L.K.L.K.L.K.L.K.K.K.K.K.K.K.K.T.W.}.",
"XX#X=X=XXXW.R.T.T.T.T.T.L.T.T.T.T.E.[.[.].T.U.U.J.u.h : @ @ # 2 -.d D..X].T.N.N.N.N.K.N.K.K.K.K.K.L.K.K.K.K.K.M.m.n.n.n.b.n.K.T.",
"L.R.}.XXoX}.E.T.T.T.T.L.T.T.T.T.P.P.U.T.E.}.|.`.p.a >.-.< < < *.j D.].R.N.N.m.m.n.N.m.v.H.K.L.K.K.T.L.K.K.K.M.M.m.m.n.n.n.m.m.K.",
"L.T.T.T.E.}.|.}.R.T.T.T.L.T.T.L.U.U.P.U.T.E.}.^.h >.>.>.>.>.;.j F.}.].E.T.N.m.n.m.m.v j u.K.K.K.K.K.L.T.K.K.K.M.n.n.n.n.n.m.M.K.",
"L.T.T.T.T.T.R.W.}.].W.R.T.T.T.T.U.U.T.T.E.'.{.R -.>.>.>.>.*.j G.`.E.T.T.E.E.R.U.L.z.d =.p s.L.K.K.K.L.T.T.L.K.K.M.M.m.m.m.K.K.K.",
"T.L.T.L.T.T.T.T.R.E.W.W.E.E.W.E.`.].[.[.]. X^.g >.>.>.>.&.h j.L.H.N.m.m.m.m.N.L.T.j.a >.-.x H.K.L.L.L.K.L.K.K.K.K.M.K.M.M.M.K.K.",
"T.L.T.T.T.T.T.R.T.T.T.T.T.T.R.E.E.T.U.U.U.E.j.d >.>.>.>.a y.L.K.N.m.n.n.n.m.m.M.N.t.a -.&.p s.L.K.L.K.K.K.K.K.K.K.m.m.M.m.M.K.L.",
"L.T.T.L.T.T.T.R.T.T.T.T.T.T.T.T.U.U.T.U.E.}.j.d >.>.>.>.h V.L.K.N.N.m.m.m.m.N.N.H.H 2 : # % u.K.K.K.K.K.K.K.K.K.K.K.M.M.K.K.K.T.",
"P.T.P.T.T.T.T.T.T.T.T.T.T.L.T.L.T.T.R.W.].R.z.r =.>.>.-.c H.H.V.v.M.N.N.N.N.K.K.v.l %.< # > Y C.L.K.K.K.K.K.K.K.K.K.K.L.K.L.L.L.",
"L.T.T.T.T.T.T.T.T.T.L.T.T.L.L.T.L.T.W.W.T.T.J.H > >.>.5 m Q J C D L T g.H.K.K.K.g.d >.%.# : R U.L.K.K.K.K.K.N.K.K.K.K.K.L.L.L.L.",
"L.T.T.T.T.T.T.T.T.T.T.L.L.L.L.L.L.E.W.T.P.U.P.g.e 4 g S 4.6.) ^ ] ] / C i.C.L.L.y.a >.>.; ; Y `.T.K.K.K.K.M.M.K.K.K.K.K.L.L.L.L.",
"T.P.L.T.T.T.P.T.T.L.T.T.L.L.T.L.E.W.T.L.U.U.P.g.M { 5.7.4...A ) ~ q ! V A h.C.V.h &.>.>.>.;.y.T.W.T.L.K.K.M.K.K.K.N.K.K.K.L.L.T.",
"P.T.T.P.T.T.R.R.T.T.T.L.T.L.T.E.].U.L.P.P.P.h.C { 6. .| X.6.0.w.8.V ! B 5.$.i.c s >.>.>.>.s f.T.}.W.T.K.K.M.M.K.K.N.K.K.L.L.T.L.",
"P.U.U.R.T.R.R.R.R.T.T.L.L.L.T.}.E.P.P.P.J.i.F / B { 6.8.e.e.e.e.8.( O.' | 7.D a >.>.>.>.>.d B.T.E.XX].T.K.K.K.M.M.K.K.L.L.L.T.T.",
"R.T.R.R.R.R.T.P.T.L.L.T.T.T.|.}.U.P.P.L.d.F ' q | q.e.e.e.e.e.e.6.~ +.O.~ X.4.4 >.>.>.>.;.c J.T.R.].OX|.E.T.K.K.K.K.L.L.T.L.T.T.",
"R.R.R.R.R.T.T.P.L.T.T.R.E.}.+XW.R.U.U.V.L ' ! q _ #.q.e.e.e.w.q.X.! +.+.] _ 7.S ;.>.>.-.d d.T.R.E.W.XX=XOX}.R.T.K.K.L.L.T.T.T.T.",
"}.}.}.}.}.].W.].].].}.}.+X=X+XE.R.U.P.i.^ / ! O.] ~ / X.6.6...| [ V ] +.@./  ._ 6 &.2 p Y T.W.R.W.].XX=X;X=XOX}.E.E.E.E.W.`.}.}.",
"XX}.W.E.R.R.E.}.XX@X%X=X-X-X=X|.E.U.V.M ! q ] +.+.+.] V (  .#.8.w.#.! o.@.] B V 0 & u t.V.U.T.`.}.OX=X$X@XoXXX|.}.}.OXOX$X$X%X@X",
"}.E.}.R.T.T.E.E.}.%X=X+XXX}.oX@X}.P.h.} [ q +.+.@.@.@./ #.e.e.e.e.e.| ) O.+.V ! ] C d.L.P.P.R.|.#X#XXX}.W.R.P.P.T.R.W.|.@X;X=X|.",
"}.}.].R.P.T.R.E.XX+X}.].W.E.R.W.XXY.Q 8.5.~ +.+.@.@.O.^ 6.e.e.e.e.e.0.[ / / ! V ] _ i.L.U.`.|.XX}.E.R.P.P.L.K.K.L.P.R.E.}.XX$XOX",
"XX|.W.E.R.T.E.|..X].E.E.R.T.L.T.E.I.W q.4.~ +.+.@.@.O.( 8.e.e.e.e.e.e.6.B | 8.4.~ ] Q L.W.}.}.T.T.T.L.K.K.K.K.K.L.L.R.R.R.W.|.OX",
"W.}.}.}.].}.}.W.E.R.R.R.T.L.L.L.K.g.F e.4.~ +.+.@.@.] ) w.e.e.e.e.e.e.4...w.e.9.) ] W Y.E.T.P.T.P.P.L.K.M.K.K.K.K.L.P.R.E.E.W.W.",
"R.R.R.R.T.R.E.R.R.T.T.T.T.L.L.K.K.a.F e.5.~ +.4.+.O.` { w.e.e.e.e.e.e. .6.e.e.9.) ] E H.K.K.L.P.P.T.L.K.K.K.K.K.K.L.P.T.R.R.E.R.",
"T.P.P.P.L.P.T.T.L.T.L.L.L.K.K.K.K.a.C #.X.q ' ' ~ ~ V _ w.e.e.e.e.e.9.{ 0.e.e.7.B ^ J H.K.L.L.P.P.P.P.L.K.K.K.K.K.P.P.T.T.T.T.T.",
"T.T.U.U.U.P.P.L.U.L.L.L.H.H.K.K.K.s.b V / 0 Z | 4.5.8.| 4.e.e.e.e.e.6.| e.e.e.X.) B i.Z.K.K.L.L.P.T.L.L.P.K.K.L.L.P.P.U.T.T.T.E.",
"W.T.T.T.U.P.U.P.L.L.L.d.c y.m.M.N.v.G ! @.` [ w.e.e.e.8.' 7.e.w.9.6.) #.e.e.q.| 8.$.s.Z.K.K.L.L.L.T.T.T.P.P.P.U.U.U.U.T.E.E.E.E.",
"`.T.R.T.U.U.P.P.L.L.C.x *.a v c.N.T.h.n ] O.! 4.e.e.e.e.5.| 4.] ) ! V  .e.e.4...8.E c.N.N.K.K.L.L.L.L.R.`.`.E.E.T.E.`.].`.].}.[.",
"|.`.T.T.U.U.U.L.U.L.v.u < ; > v J.T.x.G N o.] / 8.e.e.e.e.| q ` o.O.o.! 5.9.{ 8.$.i.N.N.N.K.K.L.L.T.`.}.|.oXoX.X|.XX|.].E.`.[.oX",
"$X}.`.R.U.U.U.U.P.P.z.r - @ < s P x.N.z.G N ] ' / 8.e.e.e. ./ 4.@.+.+.] ^ ) #.8.W v.N.M.N.N.K.L.E.}.|.[.`.E.].[..X|.[.`.`.].[.|.",
"$XoX[.R.T.U.U.P.L.L.z.r 2 < %.>.;.h y.s.U e 9 ^ ~ Z 8.e.e.| ` 4.@.+.+.+.! ) 9.$.j.E.E.T.L.L.T.E.E.R.T.R.T.E.E.E.`.`.`.E.`.`.].[.",
"|.oX|.E.T.U.P.T.T.E.I.j ;.>.>.>.>.-.s a s ;.&.7 9 0 ^ 5.q.| ] 4.@.@.O.` q #.X.T C.K.L.T.`..X+X}.R.E.E.E.E.T.T.E.E.`.`.`.`.E.`.`.",
"].].}.}.[.].[.|.[.`.T.H 3 >.>.>.>.>.>.>.&.>.>.&.% 8 9 9 A B V ^ / ' ~ V ! B J V.L.T.L.T.L.T.W.|.oX.X|.|.].E.T.T.E.E.E.`.E.`.E.`.",
"E.T.T.E.`.E.T.T.P.L.K.r.> -.>.>.>.>.>.>.>.>.>.-.r % 2 3 4 4 4 4 4 6 8 ~ ~ n g.L.L.P.T.E.T.L.H.g.R A. X=X$X.XW.R.E.E.E.E.E.E.E.E.",
"T.T.U.U.P.L.P.L.L.L.L.s.e ;.>.>.>.>.>.>.>.>.-.h i > -.>.>.>.>.>.>.-.*.= = u u.v.Z.K.J.H.j.u.j w 3 f ^.=X;X=X+X|.].E.E.E.R.R.R.R.",
"U.U.U.U.P.P.P.L.L.L.K.C.K > >.>.>.>.>.>.>.&.f p.m , -.-.;.,.:.-.>.>.>.*., %.a j x U c h a s 1 # - f ^.%X|.}.|..XXX}.W.E.E.R.R.T.",
"U.U.U.U.P.P.P.L.L.L.K.Z.d.e s >.>.>.>.>.&.d j.!.d %.-.2./.*X).2.-.>.>.>.2 3 >.&.-.-.-.-.>.>.%.; - j '.|.`.R.E.W.].].[.`.R.R.T.T.",
"T.L.T.T.P.L.J.T.K.T.Z.Z.K.i.e > &.&.-.5 g j.^.P -.-.2.:X3X3X3X>X1.>.>.>.>.5 &.>.>.>.>.>.>.>.>.-.3 Y }.|.E.E.R.R.E.W.W.].E.R.R.U.",
"T.T.K.L.P.P.L.K.Z.T.T.T.R.`.!.P t r t H F.].j.4 -.:./.2X3X>X_.:X3.&.>.>.&.5 *.>.>.>.>.>.>.>.>.;.j V.W.|.R.R.R.R.R.R.R.E.`.E.U.U.",
"L.L.L.L.T.K.T.L.T.T.W.`..X&X$X^.j.g.z.J.'.U.z 3 3 s _.2X_.n C E t &.>.>.>.*.2 >.>.>.>.>.>.>.*.d d.P.U.].E.P.P.R.U.R.R.U.E.W.R.U.",
"T.T.T.T.L.T.T.T.T.`.|.@X=X=X$X}.`.T.P.R.P.z.i : 1 =.~.<XE . o o % &.&.>.>.*.3 &.>.>.>.>.=.p i f.J.P.U.[.E.P.P.P.U.P.U.U.P.R.E.R.",
"T.T.R.R.E.E.`.`.}.XXoXoX.X[.}.}.E.T.T.T.M.x.u % , >.<.!.+ . o X f 1.<.s -.2 * % > 3 > % u U z.L.P.P.W.}.T.P.P.T.P.P.L.T.T.T.L.T.",
"L.L.L.T.L.P.T.E.E.E.E.E.E.T.T.T.T.T.Z.N.N.c.y & $ -.>.f % $ % I ).,X,X~.,.p H K l l K i.z.H.P.K.L.T.}.R.P.P.P.P.L.T.T.L.L.L.L.L.",
"L.P.L.L.L.L.P.T.T.T.P.P.T.P.L.L.K.Z.Z.N.N.N.K G y a >.>.>.-.I >X3X3X2X<XS.j U.U.P.L.U.P.P.P.T.T.`.].R.L.P.P.U.P.T.T.L.T.T.L.T.L.",
"L.Z.L.L.P.T.T.T.P.T.P.P.L.L.K.K.K.K.Z.N.Z.Z.m.c.y.% >.>.>.-.S.3X<X_.(._.Q.!.=X=X$X@XoXoXXXXX|.}.W.P.L.P.P.P.P.U.P.P.T.L.L.L.L.L.",
"L.T.T.T.P.T.T.T.P.L.L.L.K.K.K.Z.T.m.M.N.N.N.Z.Z.s.r -.>.>.-.~.1XQ.O M n J ^.XXoX@X@X$X=X$X|.E.T.L.L.L.P.L.P.P.P.T.L.L.T.T.T.L.L.",
"L.Z.Z.Z.Z.Z.L.P.U.P.L.K.K.K.K.Z.Z.Z.M.M.N.M.N.M.a.y % 2 -.=.2.).+   o o K H.K.K.L.U.W.}.@X+XW.T.P.P.P.L.L.P.P.P.L.T.L.T.L.L.T.L.",
"Z.M.M.M.Z.Z.Z.K.L.L.L.L.L.K.K.Z.N.N.N.N.N.N.M.M.x.y.G y r r e n o . O k k.m.n.M.N.N.K.P.E.XXXXT.P.L.L.L.L.P.L.L.L.T.L.L.L.T.K.K.",
"M.M.M.M.C.N.C.Z.K.K.L.K.K.K.K.Z.N.N.N.M.M.M.M.M.Z.T.T.z.u.t.u.r.k k r.k.n.n.n.m.m.N.N.K.L.T.}.}.L.L.L.L.L.L.L.P.L.L.T.T.L.L.N.n.",
"M.M.M.m.m.M.M.C.Z.K.K.K.K.K.Z.N.N.Z.N.N.N.M.Z.T.T.T.N.M.m.m.m.m.M.n.m.n.n.n.n.n.m.M.K.K.K.K.T.W.R.K.K.L.L.L.L.L.L.T.T.K.K.K.N.N.",
"M.m.m.n.m.M.m.M.C.Z.K.K.C.Z.Z.N.N.N.N.N.N.T.T.T.N.m.M.m.m.m.m.n.n.n.n.m.n.n.m.m.N.m.K.K.K.K.K.R.W.L.L.L.L.L.P.P.L.K.L.L.K.K.M.M.",
"M.K.K.K.K.K.M.M.M.M.Z.Z.N.K.N.N.N.N.M.T.R.T.M.M.M.m.M.m.m.m.m.m.n.n.n.n.n.m.m.M.N.K.M.K.K.K.L.L.W.R.K.L.L.L.L.L.L.K.K.L.K.K.K.m.",
"R.T.T.P.T.P.P.T.L.K.Z.Z.N.N.N.N.N.K.E.E.K.M.m.m.m.M.m.M.m.M.m.m.m.m.m.m.M.m.M.N.n.K.K.K.K.L.K.K.T.W.P.K.L.K.K.L.L.T.L.L.L.L.R.E.",
"M.m.m.m.n.n.m.M.L.W.T.P.K.K.K.R.`.].T.Z.M.m.m.M.M.m.M.M.M.M.M.m.m.M.M.M.M.N.N.N.K.K.K.K.K.K.K.L.K.R.W.L.K.L.L.L.K.L.T.`.`.R.T.K.",
"m.n.n.n.n.n.n.b.n.N.P.].}.|.OX=X@X`.T.K.N.M.M.M.m.N.M.M.M.M.M.M.M.M.M.N.N.N.N.T.K.K.K.K.L.K.L.K.K.L.E.}.R.L.L.P.R.}.}.E.T.K.K.M.",
"M.M.n.n.n.l.l.n.n.M.K.P.}.=X%X@XXX|.[.E.T.T.Z.N.M.M.m.M.m.M.m.M.M.M.N.Z.Z.Z.N.Z.L.K.K.K.K.K.K.L.L.K.L.}.oX}.W.}.XX}.T.K.K.K.K.n.",
"C.M.m.n.n.n.l.l.n.M.K.`.oX}.T.P.L.K.T.K.K.T.T.T.N.N.m.n.n.n.n.n.n.M.N.N.K.Z.Z.K.L.L.K.K.K.L.K.L.K.L.K.T.oX=X$X@XR.P.K.K.K.K.K.K."
};
