/* XPM */
static char *_5a60a2536cf4984b54645cb014282ebn0oVTLuGpm9ez55N[] = {
/* columns rows colors chars-per-pixel */
"64 64 203 2 ",
"   c #1F1A1B",
".  c #231F20",
"X  c #1A3525",
"o  c #2A2C2A",
"O  c #363335",
"+  c #413E3E",
"@  c #054D23",
"#  c #095429",
"$  c #065C29",
"%  c #165130",
"&  c #1C593A",
"*  c #344E36",
"=  c #23593D",
"-  c #07662E",
";  c #0A6A32",
":  c #166639",
">  c #166D3C",
",  c #196B3D",
"<  c #077032",
"1  c #097335",
"2  c #0D7D3C",
"3  c #12733B",
"4  c #117C3E",
"5  c #1D7A3E",
"6  c #256939",
"7  c #3B663D",
"8  c #22773F",
"9  c #455638",
"0  c #5A563A",
"q  c #6D533C",
"w  c #76593E",
"e  c #55653D",
"r  c #373B45",
"t  c #2B4E44",
"y  c #354A49",
"u  c #275847",
"i  c #36564E",
"p  c #365659",
"a  c #1D6946",
"s  c #197645",
"d  c #147C42",
"f  c #24674B",
"g  c #23734B",
"h  c #296554",
"j  c #326F54",
"k  c #33685A",
"l  c #385C67",
"z  c #3E5E7C",
"x  c #366A65",
"c  c #3A6967",
"v  c #3D6677",
"b  c #484445",
"n  c #414652",
"m  c #565252",
"M  c #695647",
"N  c #755B42",
"B  c #7B5E42",
"V  c #745D4B",
"C  c #685C57",
"Z  c #6E6E4C",
"A  c #7D6244",
"S  c #7E6449",
"D  c #6E615C",
"F  c #434E63",
"G  c #43576A",
"H  c #595A67",
"J  c #4A5B7A",
"K  c #5A5F70",
"L  c #42686F",
"P  c #467766",
"I  c #446476",
"U  c #5A6474",
"Y  c #586478",
"T  c #4B7179",
"R  c #567576",
"E  c #686468",
"W  c #766C67",
"Q  c #6C7174",
"!  c #805F41",
"~  c #846445",
"^  c #8A6747",
"/  c #8C6947",
"(  c #84664A",
")  c #86694D",
"_  c #8B6C4D",
"`  c #916C47",
"'  c #946E49",
"]  c #977049",
"[  c #9C724A",
"{  c #826952",
"}  c #8D6E50",
"|  c #8D7354",
" . c #937454",
".. c #9A7957",
"X. c #957758",
"o. c #9D7C59",
"O. c #A2764D",
"+. c #A67A4E",
"@. c #A87B4F",
"#. c #AA7C50",
"$. c #A07E5B",
"%. c #8D7763",
"&. c #0D843E",
"*. c #0A8A3F",
"=. c #11823F",
"-. c #0E8741",
";. c #0B8C41",
":. c #128442",
">. c #1C8146",
",. c #0B9444",
"<. c #26824C",
"1. c #3C855A",
"2. c #568B6B",
"3. c #689178",
"4. c #A4825C",
"5. c #A9855E",
"6. c #A78561",
"7. c #AB8760",
"8. c #AE8961",
"9. c #B28C63",
"0. c #B79065",
"q. c #B99166",
"w. c #BD9569",
"e. c #C0976A",
"r. c #C49A6C",
"t. c #C89D6E",
"y. c #445D86",
"u. c #4A6686",
"i. c #566787",
"p. c #58758B",
"a. c #4A6693",
"s. c #556B94",
"d. c #586E98",
"f. c #55719D",
"g. c #5B729B",
"h. c #5A7699",
"j. c #626F8A",
"k. c #6C788C",
"l. c #697A99",
"z. c #4E6CA3",
"x. c #4D6FAE",
"c. c #516EA7",
"v. c #4E70AF",
"b. c #5A75A7",
"n. c #5C74A4",
"m. c #5372AC",
"M. c #4F72B0",
"N. c #5375B2",
"B. c #5778B3",
"V. c #5C7CB5",
"C. c #647CA6",
"Z. c #637DAE",
"A. c #607FB7",
"S. c #617FB8",
"D. c #789985",
"F. c #708892",
"G. c #6682A6",
"H. c #6B82AD",
"J. c #7485A5",
"K. c #6581B4",
"L. c #6A84B4",
"P. c #6F88B7",
"I. c #6482B9",
"U. c #6986BB",
"Y. c #6D89BD",
"T. c #7289B2",
"R. c #718CBF",
"E. c #738EC0",
"W. c #7691C1",
"Q. c #7B94C3",
"!. c #7F98C5",
"~. c #888686",
"^. c #8CA797",
"/. c #8496AE",
"(. c #8597BB",
"). c #A39FA1",
"_. c #98AEA1",
"`. c #ACB1AD",
"'. c #B4B6B5",
"]. c #819AC6",
"[. c #869EC8",
"{. c #889FC9",
"}. c #8CA2CB",
"|. c #9BAAC3",
" X c #91A6CD",
".X c #94A9CF",
"XX c #96ABD0",
"oX c #9AAED1",
"OX c #9EB1D3",
"+X c #A3B5D6",
"@X c #A7B8D7",
"#X c #ABBAD7",
"$X c #ABBBD9",
"%X c #B1BFDA",
"&X c #B2C1DC",
"*X c #B8C6DF",
"=X c #BFCBE2",
"-X c #C7CAC8",
";X c #D6D7D6",
":X c #E9E7E8",
">X c #F1EFF1",
",X c #F5F4F5",
"<X c #FEFEFE",
/* pixels */
"V.A.V.B.N.N.v.N.V.R.}.!.U.I.I.I.I.I.S.I.I.S.I.W.{.R.B.M.M.x.x.x.M.M.N.B.V.V.I.I.I.U.U.I.I.I.I.I.U.U.I.U.W.XX$X}.R.I.V.B.V.I.V.I.",
"S.V.V.V.B.B.V.U.W.Q.W.Y.I.U.U.I.I.I.U.I.I.I.I.Y.}.oXU.B.M.x.x.M.x.M.M.N.N.V.V.V.I.I.U.U.I.I.I.I.I.I.I.U.U.W.OXXXY.I.B.N.V.V.V.V.",
"A.V.V.V.S.Y.Q.W.Y.U.U.U.U.U.U.U.Y.R.Y.U.I.I.U.U.}.%X+XW.I.N.N.M.M.M.M.M.M.N.V.I.S.I.I.U.U.I.I.I.I.I.I.U.U.U.W.XX!.K.V.V.V.I.I.V.",
"I.I.Y.R.W.R.U.U.U.U.U.U.Y.Y.Y.R.E.Y.Y.Y.Y.U.U.Y.}.&X@XXX}.!.E.E.U.I.V.V.B.N.N.V.A.I.I.U.Y.Y.Y.U.U.U.I.I.I.U.Y.Q.}.].W.E.I.I.I.I.",
"W.W.R.U.I.I.U.U.Y.U.Y.Y.Y.R.Y.Y.Y.U.Y.U.U.Y.Y.].@XXXY.I.I.V.V.I.I.I.I.U.Y.U.I.I.U.E.E.W.W.Q.W.R.U.U.U.U.U.E.Q.!.}.XXOXOXXX}.}.!.",
"I.I.I.I.I.U.U.Y.Y.Y.Y.R.Y.Y.Y.Y.U.Y.U.Y.Y.U.!. X{.Y.V.V.N.N.M.M.N.M.N.N.N.V.U.Y.!..XOXOX+X+XOX.X{.}.[.{.{.}.XXOXOX@X@X+XOX}.Q.U.",
"V.V.I.U.Y.Y.Y.Y.Y.R.R.R.R.Y.Y.Y.Y.U.Y.U.R.!.{.Q.U.I.V.V.B.N.N.M.N.v.M.N.B.B.V.I.!.oX$X&X$X+X.X!.E.E.E.W.!.}.oX+X&X&XOX}.W.I.I.B.",
"V.I.I.U.Y.W.!.].}.}.}.{.[.[.].[.!.!.].].].!.E.Y.U.U.I.V.V.B.N.B.B.V.V.B.V.V.U.!. X}.}.!.W.E.R.U.U.I.I.U.U.Y.E.W.W.[.}.}.!.E.I.V.",
" X[.[.{. XXX X[.!.E.E.Y.E.E.W.{..X+XoX[.E.Y.Y.P.L.L.K.g.u.y.u.f.b.K.I.I.R.[.].R.Y.U.U.U.U.I.I.I.U.I.U.I.I.I.I.I.I.I.I.V.I.W.!.}.",
".X$X%X%XXXQ.E.R.R.Y.R.R.Y.Y.E.Y.E.Q.{.{.].E.P.g.G F F t u = = * F T.}..X{.R.A.B.V.A.A.A.I.I.I.I.I.I.I.I.I.I.I.V.N.N.N.N.M.N.I.E.",
"U.E.{.oXoX XQ.E.R.R.R.Y.R.Y.Y.Y.U.Y.E.E.].{.l.r o O Q j *.*.,.=.i (. XR.A.B.B.N.N.V.A.S.I.I.U.I.I.U.U.U.I.I.V.B.N.N.N.N.N.B.B.V.",
"Y.Y.Y.R.Q.{. X[.Q.E.R.E.E.R.Y.E.E.Y.Y.Y.E.H.n .   b -X_.:.,.,.,.5 Y J.p.A.S.B.N.B.A.S.S.I.I.I.I.I.U.U.U.I.I.I.V.N.N.N.N.N.B.V.I.",
"U.Y.E.E.E.R.E.].{.[.!.W.E.E.E.Y.E.Y.E.E.!.k.o + o Q ,X-Xg *.,.,.&.u n y j.!.E.E.U.A.I.I.I.I.I.I.I.U.U.U.Y.U.U.I.I.B.B.B.B.V.I.I.",
"Y.Y.E.Y.E.E.E.E.E.W.].].!.!.].!.].[.[.{.{.k.E ~.~.;X<X-X<.*.*.,.,.&.& % l m.V.U.W.Q.W.Y.I.I.I.U.U.U.U.U.U.I.I.I.I.V.I.V.V.V.I.I.",
"U.E.Y.E.E.E.E.E.E.E.E.E.E.E.E.Q.E.W.E.E.L.Y '.:X>X<X>XD.& % * P <.*.2 ; u z.B.V.b.n.j.i.d.C.I.I.I.I.I.I.I.I.I.V.V.B.N.B.B.I.I.U.",
"E.Y.Y.E.E.E.E.E.E.E.R.E.E.R.Y.R.E.Y.R.E.H.k 3.;X:X;X^.= X . O '._.>.2 3 h a.V.c.G u & u t G d.I.U.I.I.I.I.I.I.I.I.I.I.V.V.I.I.U.",
"Y.Y.Y.E.E.E.E.E.E.E.R.R.R.Y.Y.R.R.R.G.J.l.g =.1.2.1.=.X .   O ;X:X2.2 2 h b.n.l , -.,.,.&., y s.I.I.I.I.I.I.S.I.I.S.I.I.U.U.U.U.",
"Y.Y.E.Y.Y.E.E.E.R.R.Y.R.Y.U.U.L.d.G F i t : *.,.*.*.&.* m b ~.>X<X3.*.,.x n.l , ,.,.,.,.,.;.s p g.I.I.K.S.S.I.I.I.I.I.U.U.U.U.U.",
"Y.Y.Y.E.E.Y.E.Y.R.R.Y.R.U.U.n.G u , =.*.&.> ;.,.,.,.&.Q ).`.:X<X:X2.*.:.z u.a ;.,.,.,.,.,.,.,., G V.I.I.S.A.S.S.A.I.I.I.U.U.U.U.",
"U.E.E.E.Y.E.E.E.R.Y.R.Y.U.g.p , *.,.*.,.*.3 =.,.,.,.*.2.;X<X<X>X_.s *.& J p -.,.,.,.,.,.,.,.,.;.u s.I.I.S.S.A.A.S.I.A.I.I.U.U.U.",
"Y.Y.Y.E.E.E.E.E.R.R.R.Y.C.p 4 ,.,.,.,.,.,.=.3 *.,.,.,.:.3.'.'.D.<.*.=.u G s ,.,.,.,.,.,.,.,.,.,.2 G Z.U.A.A.A.A.I.V.I.I.I.U.Y.Y.",
"Y.E.E.E.E.E.Q.E.W.R.R.L.I 3 ,.,.,.,.,.,.,.,.3 4 ,.,.,.,.*.>.<.*.*.,.*.= i *.,.,.,.,.,.,.,.,.,.,.&.f l.Y.U.I.S.A.V.K.I.I.U.Y.Y.R.",
"E.E.E.E.E.E.E.Y.Y.Y.U.d.f ;.,.,.,.,.,.,.,.,.*.3 2 *.,.,.,.,.,.,.;.*.=.% & ,.,.,.;.d s :.;.,.;.< - : F.|.Q.Y.U.I.I.I.U.U.Y.R.R.R.",
"E.E.E.W.Q.E.Y.E.Y.Y.R.T :.,.,.,.,.,.-.d s g s 3 : 6 &.*.,.*.5 6 7 9 9 q * , -.d h T p.p.x s -.$ # ; R #X+X{.E.Y.I.I.U.Y.R.R.R.W.",
"}. X}.{.[.[.[.[.].[.(.c 1 ; *.,.:.s v p.d.n.d.l 0 ~ 0 7 e e A w o.5.' B q ~ M * n s.Z.E.Z.h.x : 1 =.R #X=X&XOX}.Q.W.Q.!.!.!.[.{.",
"oX{.].Q.W.E.Q.[.oX@X|.P - @ 1 g T h.L.I.U.Y.Z.H ~ ' w [ +.@.@./ 4.t.e.5._ ^ [ [ B b J Z.Y.R.J.p.j j F.%X+XoXXX}.}. XOXOX+X$X$X@X",
"[.].].W.R.E.E.Q.}.#X+XP < $ h F.(.W.U.U.U.S.d.C ~ w ] @.#.#.@./ ..r.r.r.w.4./ ' @.` 0 J Z.E.Q. X|./.].{.!.W.E.Y.E.W.[.}.@X*X&X}.",
"{.[.[.W.Y.E.W.].oX+X}.p.g c G.!.XX!.I.I.Z.A.U 6...! @.@.#.@.@./  .r.r.r.r.t.5.) ' @.[ m i.]. X X}.!.E.Y.Y.U.I.U.I.U.W.Q.[.XX$XOX",
"OX X].Q.E.E.Q. X X].].T.l.L.Y.Y.W.}.E.I.I.b.W 0.) B ] +.#.#.[ ~ S 5.e.e.r.t.r.5.A / ` q H (.{.Q.R.Y.U.U.I.I.I.V.I.U.E.W.Q.[. XoX",
"].{.{.[.[.{.[.].R.R.R.R.R.U.U.I.I.U.Q.E.I.s.%.9.} 4._ / O.` ) o.5.| 4.w.r.e.5...N q  .o.C h.Y.R.Y.Y.I.I.V.I.I.I.I.U.E.E.W.Q.!.!.",
"W.E.E.E.W.W.W.E.R.R.R.R.Y.U.I.I.I.I.I.Q.R.Q 7.$.4.r.q._ B } 9.r.r.w.....4.] / / [ ~ 4.t.| i.U.Y.E.Y.U.I.I.V.S.S.I.U.U.W.W.E.W.W.",
"E.E.Y.Y.Y.Y.E.E.R.R.R.R.U.U.I.I.I.V.I.I.R.Q 9.X.8.r.r.4.} w.r.r.r.e.e. .w ` +.4.#.' } w.4.K I.U.U.Y.Y.U.I.S.I.I.I.U.U.E.E.E.E.E.",
"E.E.Y.Y.E.U.Y.Y.Y.U.U.U.I.I.I.I.V.V.V.U.K.W 0. .w.r.r.4.4.r.r.r.r.r.r.8.~ +.4.@.#.O.~ q.6.U A.Y.Y.Y.Y.Y.U.S.U.U.U.Y.Y.R.R.E.W.E.",
"W.E.E.E.Y.E.U.U.U.I.U.U.I.I.V.V.V.V.U.W.T.W .._ w.r.e.4.o.r.r.r.r.r.r.8.( +.@.@.#.@.^ 6.7.Y A.U.Y.Y.R.Y.Y.Y.Y.Y.R.Y.R.E.Q.Q.Q.Q.",
"!.W.E.E.E.Y.Y.U.U.U.I.I.I.I.V.V.V.E.Q.U.C.m w ) w.r.r.o.4.r.r.e.r.r.t.0.~ +.@.4.#.#.~  .X.i.S.U.U.Y.Y.E.].].Q.W.W.Q.].[.].[.{.{.",
"}.].E.E.E.E.Y.Y.U.U.I.I.I.S.I.V.W.E.V.V.b.D [ ) w.r.r...5.r.r.r.e.r.r.q.^ +.#.#.#.#.! w M i.I.U.U.R.[.{. XoXoXoX X X X].Q.].{.oX",
"$X}.!.E.E.Y.Y.Y.Y.U.I.I.I.V.I.Q.Q.I.V.V.V.E ] ~ 7.r.9.S ..e.r.r.r.r.r.w.^ O.@.@.#.#.! ` C f.I.I.W.{. X[.].Q.].{. X X[.].].[.{. X",
"$XoX].W.E.Y.E.U.U.U.I.U.U.E.].Q.I.V.I.V.V.i.` ' } 7._ ( ~ X.w.r.r.r.q.4.w ! / ' [ [ B ' E I.E.!.].W.R.W.W.W.W.Q.].].].].].].[.[.",
" XOX X!.E.Y.Y.R.W.W.].].!.E.I.I.U.I.I.I.I.n.D [ / w / @.O./ } q.e.4. ...5.5.o. .^ N ~ ^ k.}.OX}.E.W.W.Q.Q.W.E.Q.Q.].].Q.Q.].].].",
"].].}.}.{.{.}.}.{.!.W.U.I.I.V.V.V.I.E.I.V.B.i.S [ ! w +.@.+./ ~ |  .5.r.r.t.r.e.4.B ' C C.R.!.}.oXoXXX X[.W.R.E.W.Q.Q.].Q.Q.Q.].",
"W.W.W.Q.!.Q.W.Y.U.U.I.I.I.K.V.V.V.U.I.B.N.c.y.y 0 w ~ ^ O.@.@.^ ) e.r.r.r.r.r.8.( B { j.Y.U.U.E.]. X$X$X$X X].E.W.Q.Q.Q.W.Q.Q.Q.",
"E.W.R.R.Y.U.Y.U.U.U.I.I.V.I.I.V.S.V.B.N.V.u.u 1 > Z 9. ./ +.@.] } e.r.r.r.e.4. .4.S K A.E.R.Y.Y.W.].XX%X*X%X+X X[.!.Q.W.W.W.W.E.",
"E.R.Y.R.Y.Y.Y.U.U.I.I.I.I.I.V.I.U.I.V.E.C.h &.,.,.8 Z 9.} ' @.O._ e.r.r.0.X.X.8.o.m d.U.Y.Y.R.Y.E.].+X+X X}. X X X{.].Q.W.W.E.E.",
"R.Y.Y.Y.Y.U.U.U.U.U.I.I.I.I.U.U.E.W.[.}.F.d ,.,.,.,.8 Z 5.} / ' ~ 5.9...| 4.9.{ j = G Z.U.U.Y.Y.R.!.oX X].Q.Q.].[.[.{.].W.E.E.E.",
"E.Y.Y.Y.U.Y.U.U.U.I.I.U.U.Y.W.{.}.}.].Q.T &.*.,.,.,.g K %.5.~ w q A ( N 6.6.Z s *.=.f J Z.U.Y.Y.Y.E.}. XQ.W.Q.W.Q.].Q.[.].E.E.E.",
"Y.Y.Y.Y.Y.U.U.U.U.U.Y.R.Q.{.OXOX{.W.U.L.L *.,.,.,.-.P ].l.E V ^ ' ' ' N D K f ;.,.*.=.u g.U.U.U.Y.E.!.}.W.E.E.E.E.W.W.Q.].E.E.E.",
"Y.Y.U.U.U.U.U.Y.U.R.W.]..X$X$X}.Q.Y.U.P.P *.,.,.,.4 i.W.{.Z.i.H C C K J s.c.x ;.,.,.,., u.U.U.U.Y.Y.R.{.W.R.Y.R.R.E.E.E.W.].E.R.",
"W.E.E.R.Y.Y.R.E.W.]. X+X&X*X@X}.!.R.R.R.c *.,.,.,.a a.S.E.{.U.N.v.z.m.m.N.m.h -.,.,.,.=.G U.U.U.U.Y.Y.{.W.Y.Y.Y.R.R.Y.R.E.E.Q.E.",
"Y.E.W.W.W.!.].{.}..XOXXX.X}.}.}.!.Q.E.I.v - $ ;.,.a a.N.V.U.Q.U.B.N.N.B.N.z.h ,.,.,.,.d I I.U.U.U.Y.Q.{.E.U.Y.Y.Y.E.Y.Y.E.Y.Y.Y.",
"U.U.U.U.U.Y.W.W.W.W.!.Q.W.W.W.Y.I.I.I.I.u.: $ 1 ;.a a.M.N.B.S.Q.E.S.A.Z.A.y.s ,.,.,.,.d u.I.U.U.U.E.}.Q.Y.U.Y.Y.Y.U.Y.Y.U.U.U.Y.",
"U.U.U.U.U.U.U.E.E.R.Y.Y.Y.U.U.I.I.I.V.I.z.a # # d a y.v.v.N.V.I.E.[. X.X(.x ;.,.,.,.;.h C.E.E.E.].{.E.Y.Y.E.E.Y.Y.U.Y.Y.Y.Y.Y.U.",
"I.I.U.U.Y.Y.E.Y.Y.Y.R.Y.U.U.I.I.I.V.I.V.V.x $ - ;.a y.v.N.B.V.I.R.{.#X%XF.g ,.,.,.,.:.k. XXX}.[.Q.Y.U.U.Y.U.U.Y.Y.E.Y.Y.U.U.U.U.",
"U.Y.U.Y.E.E.W.E.Y.U.U.I.U.I.I.I.V.I.V.V.K.a.f *.,.s z v.N.V.E.{. XoX.XJ.h &.1 - < -.P |.$X}.Q.E.U.U.U.U.U.Y.Y.Y.U.E.Y.E.Y.Y.U.U.",
"U.U.I.I.I.I.I.U.Y.U.U.I.I.I.I.I.K.V.V.V.V.V.v 3 ;.1 u.V.S.E.].!.E.U.n.p -.< @ @ # k C.{.+X+X].E.U.U.U.I.U.U.U.Y.Y.U.Y.Y.Y.Y.U.U.",
"V.V.V.V.V.V.I.I.U.U.U.U.I.I.V.I.V.K.V.V.V.V.V.z a f f.W.!.E.I.V.B.N.v , ,.1 # & l c.U.E.!.XXXXE.Y.U.U.U.U.U.Y.Y.U.U.U.Y.Y.Y.U.I.",
"V.V.V.V.V.V.V.I.I.I.I.I.I.I.I.V.I.V.V.V.V.B.V.V.c.h.P.U.I.I.U.V.V.N.z h h h l u.m.V.V.S.U.E.{.[.U.U.U.U.U.U.U.U.U.Y.U.E.U.I.V.V.",
"V.B.B.B.B.V.V.V.V.I.I.I.I.V.I.V.A.V.V.V.V.V.S.E.W.Y.S.B.B.B.B.B.B.B.m.z.z.z.v.N.B.V.V.V.U.U.U.[.E.U.U.U.U.U.U.U.U.Y.U.U.I.I.V.V.",
"V.B.V.B.B.B.V.V.V.I.I.I.V.I.I.V.V.V.A.V.S.Y.W.U.S.B.B.B.N.B.N.N.M.N.N.N.N.N.B.B.V.V.I.I.I.I.I.E.!.U.I.I.I.U.U.U.U.U.U.I.I.I.V.V.",
"V.V.I.I.I.V.V.B.V.V.I.I.I.I.V.V.V.V.A.S.W.Y.A.B.B.V.B.B.B.B.N.B.N.N.N.N.N.B.B.V.V.I.I.V.I.U.I.U.!.E.I.U.U.U.U.U.U.U.U.U.I.I.V.V.",
"W.W.Y.R.R.R.R.Y.U.I.V.V.V.V.V.V.A.S.].].S.V.V.B.B.B.V.B.B.B.B.B.B.B.B.B.B.B.B.V.V.V.S.I.U.I.I.I.Y.].U.U.I.I.U.U.U.U.U.U.U.Y.W.W.",
"V.B.B.N.N.N.B.V.U.W.W.U.I.I.I.Y.].[.E.S.V.B.B.V.V.B.V.V.V.V.V.B.B.B.V.V.V.V.A.V.V.I.I.I.U.I.I.I.I.W.!.U.I.I.U.I.U.U.E.!.].Q.Y.I.",
"B.N.N.N.N.M.M.N.N.V.Y.}.}.}.OX&X@X].R.S.S.V.B.B.B.V.V.B.B.V.V.V.V.V.V.V.V.A.I.I.I.V.I.I.I.I.U.U.I.U.Q.{.W.Y.U.Y.W.{.}.Q.U.I.V.V.",
"B.B.N.N.N.N.M.M.N.B.V.Y.}.&X&XOXXX X[.].E.Y.S.S.V.B.B.B.B.B.B.V.V.V.A.A.A.V.S.I.U.I.S.I.I.I.I.I.U.I.U.{.oX{.!.}.XX[.E.I.I.V.I.V.",
"I.V.B.N.M.N.M.v.N.V.I.[.XX}.W.U.Y.U.S.U.S.E.W.U.S.V.B.B.N.M.N.N.B.B.V.V.A.I.S.S.U.U.I.I.I.I.U.I.I.I.U.E.oX$X$XOX!.Y.I.I.I.I.I.I."
};
