/* XPM */
static char *_350f18ad3a44039c28fbf98568c8005qcrO8aTAYBZArjbp[] = {
/* columns rows colors chars-per-pixel */
"64 64 205 2 ",
"   c #1F191B",
".  c #231F20",
"X  c #1E2A22",
"o  c #292627",
"O  c #38373E",
"+  c #124B2A",
"@  c #055325",
"#  c #085C2B",
"$  c #1B5636",
"%  c #1D5B3B",
"&  c #244631",
"*  c #25563B",
"=  c #3A5737",
"-  c #06632D",
";  c #0B6A33",
":  c #176738",
">  c #1B633D",
",  c #156C3A",
"<  c #087234",
"1  c #0C7437",
"2  c #0D7D3C",
"3  c #12743B",
"4  c #1B733C",
"5  c #127A3D",
"6  c #2C693B",
"7  c #4B5637",
"8  c #58583A",
"9  c #674F3A",
"0  c #6A553C",
"q  c #77593E",
"w  c #44653B",
"e  c #62653F",
"r  c #343944",
"t  c #275945",
"y  c #2E504E",
"u  c #374E58",
"i  c #375659",
"p  c #1D6C44",
"a  c #1E6E4A",
"s  c #177341",
"d  c #1C7546",
"f  c #157C43",
"g  c #236749",
"h  c #23754A",
"j  c #2A6354",
"k  c #276C52",
"l  c #2C6A55",
"z  c #337159",
"x  c #3C4E61",
"c  c #385C66",
"v  c #346A62",
"b  c #3A6863",
"n  c #3B7063",
"m  c #4A494A",
"M  c #4E4B51",
"N  c #5C5D5B",
"B  c #665242",
"V  c #745B43",
"C  c #7A5E42",
"Z  c #645B58",
"A  c #446F4F",
"S  c #576F47",
"D  c #796247",
"F  c #7D6045",
"G  c #6F625E",
"H  c #736359",
"J  c #44596B",
"K  c #5A5C68",
"L  c #4D5B73",
"P  c #495E79",
"I  c #535D76",
"U  c #476968",
"Y  c #57626C",
"T  c #477868",
"R  c #456A77",
"E  c #576577",
"W  c #4F747C",
"Q  c #656369",
"!  c #656773",
"~  c #6C7178",
"^  c #846445",
"/  c #8A6645",
"(  c #8D6947",
")  c #846649",
"_  c #84694A",
"`  c #8A6B4C",
"'  c #916B46",
"]  c #946D48",
"[  c #996F49",
"{  c #9C734B",
"}  c #8B6E51",
"|  c #8E7153",
" . c #8D765F",
".. c #937454",
"X. c #977859",
"o. c #9C7B59",
"O. c #A1764C",
"+. c #A5794E",
"@. c #A87B4F",
"#. c #AA7C50",
"$. c #A17F5B",
"%. c #8D7765",
"&. c #0D843E",
"*. c #0A8B3F",
"=. c #12823F",
"-. c #0E8640",
";. c #0C8C41",
":. c #138343",
">. c #178644",
",. c #0B9444",
"<. c #29834E",
"1. c #3D845A",
"2. c #50856B",
"3. c #578B6C",
"4. c #649176",
"5. c #9B805A",
"6. c #A5825D",
"7. c #AA855F",
"8. c #A38260",
"9. c #AB8760",
"0. c #AD8961",
"q. c #B38D64",
"w. c #B79066",
"e. c #B99166",
"r. c #BD9569",
"t. c #C0976A",
"y. c #C49A6C",
"u. c #4C5F83",
"i. c #4C6285",
"p. c #4D6987",
"a. c #536382",
"s. c #576B86",
"d. c #56758A",
"f. c #4D6791",
"g. c #566B95",
"h. c #5A7398",
"j. c #637187",
"k. c #637899",
"l. c #526DA1",
"z. c #4E71AF",
"x. c #5B75A3",
"c. c #5474AD",
"v. c #5B76A9",
"b. c #4F72B0",
"n. c #5475B2",
"m. c #5778B3",
"M. c #5C7CB5",
"N. c #647AA5",
"B. c #647DAB",
"V. c #607FB7",
"C. c #607FB8",
"Z. c #67838F",
"A. c #7C9D89",
"S. c #788397",
"D. c #6B82AC",
"F. c #758AA8",
"G. c #7E93AD",
"H. c #6581B5",
"J. c #6B84B4",
"K. c #6F88B7",
"L. c #6583B9",
"P. c #6986BB",
"I. c #6D8ABD",
"U. c #758BB4",
"Y. c #718DBF",
"T. c #7D91B5",
"R. c #7F98B4",
"E. c #7A92BF",
"W. c #738EC0",
"Q. c #7691C1",
"!. c #7B94C3",
"~. c #7F98C5",
"^. c #959393",
"/. c #8AA495",
"(. c #8EA497",
"). c #8292AD",
"_. c #8698BB",
"`. c #A39FA1",
"'. c #98A5BC",
"]. c #AFB3B0",
"[. c #829AC6",
"{. c #899FC7",
"}. c #869EC8",
"|. c #889FC9",
" X c #8AA1CA",
".X c #8CA2CB",
"XX c #99A9C5",
"oX c #91A6CD",
"OX c #94A9CF",
"+X c #96ABD0",
"@X c #9AAED1",
"#X c #9DB1D3",
"$X c #9EB1D3",
"%X c #A3B5D5",
"&X c #A7B8D7",
"*X c #ABBBD9",
"=X c #B0BFDB",
"-X c #B3C2DD",
";X c #B8C6DF",
":X c #C1C4C2",
">X c #D1CED0",
",X c #DADADA",
"<X c #E8E7E8",
"1X c #F8F6F7",
"2X c #FCFBFC",
/* pixels */
"M.M.M.M.n.n.b.n.M.W.}.~.I.P.L.L.L.C.C.L.L.C.L.W.}.W.m.n.z.z.z.z.b.n.n.m.M.C.C.L.L.P.I.L.L.L.L.L.P.P.P.P.W.+X&X XW.L.M.m.M.L.L.M.",
"L.M.M.M.M.m.M.I.Q.!.W.I.P.P.P.L.L.L.P.P.L.L.C.W..X@XI.n.z.z.z.z.z.z.b.n.m.M.C.C.L.P.P.P.L.L.P.L.L.P.P.P.P.W.@X@XW.L.m.m.M.M.M.L.",
"L.M.M.M.L.I.Q.Q.I.P.P.P.P.P.P.I.P.W.W.L.P.L.P.P.|.=X%X!.L.m.n.n.z.n.z.n.n.n.M.M.C.L.C.L.P.L.L.P.L.P.L.L.P.W.Q.@X!.L.M.M.M.L.L.M.",
"L.L.I.Q.Q.I.I.P.P.I.I.I.I.I.I.W.W.W.P.W.W.L.P.W.OX-X%XOX|.~.W.W.P.L.M.M.M.n.m.M.C.L.P.W.W.W.P.P.P.L.L.P.L.P.W.!..X}.W.W.P.L.L.L.",
"Q.Q.Y.I.P.P.P.I.I.P.I.I.I.I.I.I.I.I.I.P.I.P.W.[.%X+XW.C.C.M.M.C.L.L.P.P.P.P.L.P.I.W.W.W.Q.!.Q.W.I.P.P.W.L.W.!.~.|.@X$X$X+X X X~.",
"L.L.M.L.L.P.I.I.I.W.I.I.W.I.W.I.I.P.P.W.I.I.!.OX}.W.M.M.m.n.n.z.n.b.n.b.n.M.L.I.~.+X@X%X%X%X#X+X X}.}.}.}..X@X$X$X&X&X&X#X X!.I.",
"M.L.L.P.I.I.I.I.W.W.Q.W.W.I.I.I.I.I.P.I.W.!.}.!.P.L.C.M.M.n.n.n.n.n.n.n.m.M.M.L.!.@X=X=X*X%X.X[.Q.W.W.Q.~. X+X$X-X-X#X XQ.P.L.m.",
"M.L.L.P.I.Q.!.}. X|. X}.}.}.}.}.[.~.[.}.[.~.W.K.I.L.C.C.M.m.m.m.m.n.M.M.m.M.I.[..XOX|.~.!.W.W.P.L.P.P.P.W.W.W.W.!.}. X X~.W.L.M.",
".X}.[. XoX+X.X}.!.Q.W.W.W.W.Q.}.+X%X@X}.W.W.I.I.I.P.P.H.C.L.L.L.L.L.L.L.W.}.[.W.I.P.W.L.P.P.L.P.L.L.L.P.L.P.W.L.L.L.L.M.L.W.~.oX",
"+X*X-X-X+X~.Q.W.W.W.W.W.I.W.I.W.W.!.|.|.[.Q.Y.Y.W.W.K.P.K.I.I.I.W.!..XOX}.W.M.m.M.M.C.L.L.P.L.L.P.P.P.L.L.L.M.M.m.n.n.m.n.m.M.W.",
"I.Q..X+X#X.X!.W.W.W.W.I.W.W.W.I.I.I.I.W.~. X.X{.K.h.p.W R d.U..X#X%XoXQ.C.M.m.m.m.M.C.C.L.L.L.P.L.P.P.L.L.L.M.M.n.n.n.b.n.m.M.M.",
"I.I.I.W.!. XoX XQ.W.I.W.I.I.W.W.W.I.Y.Y.W.!.[.S.U h f ; ; d T XX%XoX}.!.W.M.m.m.m.M.C.L.L.L.L.L.P.L.L.W.P.L.M.M.m.n.n.n.n.m.L.L.",
"I.I.W.I.W.W.Q.~. X}.~.Q.W.W.W.W.Y.Y.W.W.!.U.Y g &.,.,.- @ ; n T.[.Q.W.Q.!.!.Q.W.P.L.C.L.L.L.L.P.P.L.P.W.W.P.P.L.M.M.M.m.m.M.P.P.",
"P.I.I.Q.W.W.W.W.Q.!.~.[.~.~.~.!.[.}.}.|.R.Y s ,.*.,.,.< # j k.P.L.M.m.n.m.m.M.P.W.~.!.P.L.P.L.P.P.P.P.L.P.P.L.L.L.L.M.M.M.M.L.L.",
"I.Y.W.W.W.W.Q.Q.W.W.W.W.W.W.Q.Q.Q.E.E.K.J > ,.,.,.,.,.*.k h.P.L.M.m.n.n.n.m.m.M.M.P.Q.~.W.P.L.P.L.P.L.L.L.L.L.L.M.M.M.m.M.M.L.W.",
"I.I.Y.Y.W.W.W.W.W.W.W.W.W.W.W.W.Y.Y.Y.h.t ;.,.,.,.,.,.h d.P.P.L.M.M.M.n.m.m.M.M.L.L.L.W.~.W.P.L.P.L.L.L.L.L.L.L.L.L.L.M.M.M.L.P.",
"I.Q.Y.Q.Y.Y.Q.Y.W.W.Y.Y.Y.Y.W.I.W.W.U.J , ,.,.,.,.,.f R P.P.P.P.L.C.M.M.M.C.C.L.L.L.P.L.P.Q.Q.P.L.L.P.L.L.L.L.L.L.L.L.L.L.L.P.I.",
"I.I.Y.Q.Q.W.Y.Q.W.W.Y.Y.I.I.P.W.W.W.F.u 5 ,.,.,.,.-.v B.P.P.L.L.L.L.L.C.L.L.L.L.P.P.L.P.P.P.[.W.L.L.L.L.L.L.L.L.L.L.L.L.P.P.P.P.",
"I.Y.Y.Y.Y.Q.Q.I.Y.Y.Y.Y.I.P.V.B.B.F.k.t ;.,.,.,.,.f p.L.V.C.V.L.L.L.L.P.P.L.L.P.P.L.L.P.P.P.I.[.W.L.L.L.L.m.L.L.M.L.L.L.P.P.I.P.",
"I.I.Y.Y.Q.Q.Y.Y.Y.I.Y.P.g.J M s.L j t $ 5 ;.,.,.,.k v.L.M.M.M.M.C.C.L.P.P.P.P.P.P.P.P.P.I.P.I.W.!.W.P.L.L.L.m.L.L.L.L.L.L.P.P.I.",
"I.Y.Y.Y.I.Q.Q.Q.W.W.K.a.O o m ^.].1.*.*.5 , 2 ,.;.v M.L.V.M.M.M.M.V.V.B.P.P.W.P.P.P.P.P.P.I.I.Y.|.[.I.L.L.H.H.M.M.L.L.L.P.L.I.W.",
"Q.Y.Y.Y.Q.Q.Q.Q.W.W.N.r   o G ].2X/.:.,.,.:.1 3 -.v V.v.h.f.E E ! Q ! Q E j.v.P.I.P.P.P.J.B.B.B.Y.OX{.Y.P.L.L.L.L.L.L.P.P.W.P.W.",
"Q.I.Q.Q.Q.Q.Y.I.I.I.u.o X o H <X2X(.>.,.,.,.*.3 3 k I K Q  .5.7.q.q.q.) / _ H s.D.Y.B.p.b l k l v W G.R.E.I.P.L.L.M.L.P.P.W.W.W.",
"Q.Q.Q.Q.Q.Q.Y.Y.Y.K.P N ^.].<X1X<X4.*.,.,.,.,.*.: = V C 6.q.6.o.....} V ^ ] O.` ! h.J g =.,.,.,.;.1 > T Z.T.Q.I.L.L.P.I.W.W.W.Q.",
".X.X.X.X.X}.}.}.[.U.J A ;X1X1X<X(.h *.,.,.,.,.,.3 q { q q q ..7.0.q.e.q.6...^ { ` M : ,.,.,.,.,.,.; @ - > T T..X!.!.!.~.~.~. X X",
"+X.X}.!.Q.Q.!. X+XS.* &.1.A./.3.* + & A <.*.,.,.&.8 q / [ / o.y.y.y.y.y.y.y.$.) { 0 4 *.,.,.,.,.,.;.< @ # 5 z R..XoX@X$X&X*X-X%X",
" X~.[.Q.W.Y.Q.~..X~ , ,.*.*.&.$ o o Z `.].<.,.,.*.7 { 6.6.{ _ w.y.y.y.y.y.t.$.V q F 8 =.,.,.,.,.,.,.,.< < ;.-.b P.Q.~.oX%X;X-X.X",
" X X XQ.I.Q.Q.~.oXE 4 ,.,.,.2 X   . Z :X<X4.*.,.=.e +.@.@.@.' _ 8.9.9.9.q.X.) ] q _ 6.A *.;.f h a p s 5 *.;.,.a h.W.Q.!. X+X&X#X",
"+XoX[.!.Q.Q.!..X.XY , ,.,.,.5 m O m ^.1X1XA.*.,.4 / @.@.@.@.] F X.X.X...| C ' #.{ ^ 7.o.l U d.k.k.h.p.J j j g j x.I.W.!.!. X.X@X",
"[. X X.X[. X X[.E.a.* 3 ;.,.<.(.>X,X2X2X,X1.;.*.w { 6.6.@.O.^ 7.y.y.y.y.t.o./ @.#.[ ` 7.X.j.Y.W.I.W.P.L.M.l.h.x.L.P.I.W.!.!.~.~.",
"Q.Q.Y.Q.Q.Q.!.Q.Q.J.h.J p -.-.3.>X2X2X,X/.>.,.2 8 ( ] { O./ 6.t.y.y.y.y.y.r.` ] #.#.[ ` 9.%.B.I.I.I.I.L.L.L.L.L.L.P.I.W.Q.Q.!.Q.",
"Y.Y.I.I.I.I.I.Q.I.I.I.N.u > ,.&.2.A.A.3.:.*.,.6 ] 6.| _ q { t.y.y.y.y.y.y.y.7.) O.@.@.( ..} E I.I.I.I.P.L.L.L.L.L.P.I.W.W.W.W.W.",
"W.W.W.W.W.I.I.I.I.I.C.g.y & : 3 2 -.-.;.;.,.*.= $.y.t.r.X.X.t.t.y.y.y.y.y.y.t...C { @.O.V C K J.Y.I.W.I.I.P.L.P.P.I.I.I.Q.Q.Q.Q.",
"Q.W.W.W.W.I.I.I.P.K.P.h.u % 1 , 2 ;.-.s : 5 2 8 ] t.y.y.e...q.y.y.y.y.y.y.y.t..._ ` ^ / q ' G B.K.I.I.I.I.I.I.I.Y.I.W.Q.!.!.~.Q.",
"[.Q.Q.W.I.W.I.I.P.P.P.C.v.u.b j j v b x u y & 9 F w.y.y.y.7...r.y.y.y.y.y.y.o.X.t.r.q...0 ] G B.I.I.I.W.~.~.!.E.Q.!.~.}.[.[..X X",
".X[.Q.W.W.I.I.I.I.P.P.P.C.C.v.v.K.B.u.c t p , 7 q X.y.y.y.t.....q.e.t.y.y.7.| e.y.y.y.q.^ { Q V.P.W.[..XoX#X#XoXoXOXoX{.!.~. X@X",
"*X|.[.Q.W.W.I.I.I.P.P.C.M.M.W.Y.k.i p :.,.,.;.w ( ` e.y.y.t.| C / _ ` { $.` 9.y.y.y.t...C / s.P.!.|.OX|.[.Q.E.{.OXoX X[.[. X X.X",
"*X@X[.!.W.W.I.I.P.P.P.P.W.W.Y.a.g 2 ,.,.,.,.,.6 ' / $.y.y.6./ O.@.{ { [ ^ ^ r.y.y.y.9.| } Z N.~.~.Q.Y.Y.D.s.U h.~.[.~.~.[.[.[. X",
"oX@XoX!.W.W.W.W.W.!.[.[.!.W.E % -.,.,.,.,.,.:.* ^ { ^ q.e.` { #.@.#.@.#.{ ` t.y.y.q...7.o.S.@X.X!.Q.K.s.b 4 5 W ~.~.~.~.~.~.[.[.",
"[.}.|.oX|.|.|.|.}.[.W.I.L.g.y 2 ,.,.,.,.,.;.k u B @.' ` } / @.#.#.#.@.6.{ ` r.y.q...7.7.N h.U._.).j.b h 2 *.:.d.!.~.!.~.~.~.~.~.",
"!.!.Q.!.[.!.W.W.I.P.L.L.L.u.% ,.,.,.,.,.,.:.i.g.M ' @./ 9 ' @.@.@.#.#.#.O./ e.q...$.0.S s a l l k f ;.*.- ; a Z.Q.!.!.!.!.!.!.!.",
"W.W.W.W.I.I.I.P.P.P.P.L.M.P % ,.,.,.,.,.,.>.f.L.L B @.] V ^ ( O.@.#.#.#.+.^ o.) o.9.S f ,.,.,.,.,.,.,.< @ @ U _.}.~.!.Q.Q.!.Q.Q.",
"W.Y.I.I.I.I.P.P.P.P.L.L.C.u.t ;.,.,.,.,.,.f Z..X_.Q V F 6.w...) / ( ] ] / 9 ^ C ` Z % ;.,.,.,.,.,.,.,.- @ t F.oX+X.X~.!.Q.Q.Q.Q.",
"Y.Y.Y.I.I.I.I.P.P.P.L.L.L.x.u 3 ,.,.,.,.,.:.3.&X-X'.Y 9 6.t.y.e.6.D q / / ( ( H I f.y 5 ,.,.,.,.,.,.,.2 % p.E.~.[.}. X~.Q.Q.W.Q.",
"W.P.W.P.I.I.P.P.L.P.P.P.P.I.p.t -.,.,.,.,.,.z T.+X#X Xs.K H X.8.9.` V ) C G K g.v.M.a.y 3 *.,.,.,.,.;.k d.Y.!.!.~.!.!. X!.Q.Q.Q.",
"I.W.P.W.I.P.P.P.P.P.P.W.!.|.XX~ t -.,.,.,.&.s d.!.!.{. XD.g.a.P I L L u.f.l.n.M.M.M.V.f.i p s 5 d k R F.Q.Q.Y.Q.Q.Q.Q.Q.[.Q.Q.Y.",
"I.I.P.P.P.P.I.I.W.W.Q.[.OX*X*X_.E t -.,.< @ # v H.I.P.Q..XY.M.n.c.c.n.n.n.m.m.M.m.M.C.C.B.g.p.p.d.N.U..X!.W.Y.Y.Y.Q.Q.Q.Q.~.Q.I.",
"W.W.W.I.W.W.W.W.Q.[.OX%X-X;X*X.XE.p.y s < # < a g.M.M.L.Y.{.W.m.n.c.n.n.n.n.m.m.m.M.M.C.C.P.P.I.I.I.I. XQ.I.I.I.Y.Y.Y.Y.Y.Q.!.Q.",
"W.W.!.Q.W.!.}.}.|.+X@X@XOX|.oX|.~.W.B.J t p f k f.m.b.m.M.I.!.P.m.b.b.m.b.m.m.m.m.m.m.L.L.P.P.P.P.P.!. XW.I.I.W.P.W.W.L.W.P.W.P.",
"P.P.P.P.I.I.W.Q.!.!.!.!.!.W.W.W.C.W.C.M.g.u.c p.c.m.b.b.m.m.L.Q.W.L.L.L.L.L.M.m.L.m.L.L.L.L.P.L.I.Q..X!.I.I.W.P.W.P.W.L.P.W.W.P.",
"P.I.P.P.P.P.I.W.W.I.Y.I.I.I.P.P.W.m.L.M.M.M.M.M.M.m.b.b.b.m.M.P.Q.}.+X+XoX X~.Q.W.P.W.P.I.W.W.W.~.}.Q.I.W.I.I.I.W.P.W.W.W.P.L.W.",
"P.C.P.I.I.W.W.W.W.W.I.I.I.P.P.C.L.L.M.L.M.M.L.M.M.m.m.b.b.m.M.L.W. X%X;X;X;X-X-X-X$X@X@X+X+XoX X!.I.P.I.I.I.I.W.P.W.P.W.L.W.L.L.",
"I.I.W.I.W.W.W.W.W.P.P.P.P.C.C.L.L.M.M.M.m.W.M.C.M.M.n.b.m.M.W.}.oX@X+XoX.XoX+X+X#X$X*X-X&XoX!.W.I.P.P.I.P.I.I.I.W.P.W.W.W.P.W.L.",
"I.C.C.C.C.C.P.I.P.K.P.L.C.P.P.C.C.M.M.C.m.M.M.M.M.L.M.M.L.Q.}.!.W.L.L.L.L.L.L.L.P.I.!..X%X%X~.W.I.P.I.P.P.I.I.I.L.W.P.L.P.W.W.L.",
"V.V.m.V.C.V.C.C.P.P.P.P.P.L.C.C.C.C.M.C.M.M.m.M.m.m.L.Q.!.Q.L.m.m.m.m.n.m.m.m.m.m.L.L.I.!.+X+XW.I.P.P.P.P.I.P.P.W.P.L.W.P.W.L.M.",
"V.m.m.C.V.V.V.C.C.L.P.P.L.L.L.C.C.M.M.M.M.M.m.n.L.W.W.P.P.L.L.L.M.m.b.b.b.m.m.m.m.m.L.L.P.W. X XI.P.P.P.P.P.I.P.L.W.W.W.P.L.L.M.",
"M.M.M.M.M.M.M.H.C.L.L.L.L.L.C.M.M.L.M.M.M.M.W.W.W.W.M.M.m.m.m.M.m.M.n.n.n.n.n.n.m.M.L.L.L.L.W.~.W.P.P.P.P.P.P.I.L.W.W.L.L.L.M.M.",
"M.m.m.m.m.M.m.M.M.L.L.L.C.C.M.V.M.M.M.M.W.W.W.W.M.M.m.m.m.m.n.n.m.b.n.m.m.n.m.m.M.m.L.L.L.L.L.Q.~.P.L.L.P.P.P.P.W.L.P.P.L.L.M.M.",
"M.L.L.M.L.L.M.M.M.C.C.C.L.M.C.M.m.M.M.W.W.W.M.m.M.M.m.M.m.m.n.m.m.n.n.n.n.m.m.M.M.L.M.L.L.L.L.P.~.Q.L.P.P.P.P.P.L.L.L.P.L.L.L.m.",
"Q.W.W.I.W.I.I.Y.P.L.C.C.M.L.M.M.m.W.!.!.M.m.m.M.M.m.M.m.M.m.m.m.m.n.m.m.M.m.M.M.m.L.L.L.L.P.P.L.W.~.I.P.L.P.P.P.L.W.P.P.L.W.Q.Q.",
"M.m.m.m.n.n.m.M.I.!.Q.I.P.L.P.W.~.|.W.M.M.m.M.m.m.m.M.M.M.M.M.M.M.M.m.M.M.M.L.M.L.L.L.L.L.L.L.P.L.Q.~.W.L.P.L.L.P.P.W.~.~.!.W.L.",
"m.n.n.n.n.n.n.z.n.M.I.}..X.X#X-X&X[.W.L.M.M.M.M.M.M.M.M.M.M.M.M.M.M.M.M.M.L.L.L.L.L.L.L.P.L.P.L.L.P.Q. XQ.I.I.I.Q. X X!.W.L.L.m.",
"M.m.m.n.n.b.b.n.n.m.M.Y.oX*X*X$X.X.X[.Q.Q.W.L.M.M.M.m.m.M.m.M.M.M.M.L.M.M.M.M.L.L.L.L.L.L.L.L.P.L.P.P. X@X X~..X+X XW.L.L.L.L.m.",
"M.M.m.n.n.n.b.b.n.M.L.}.#X.XQ.I.W.L.W.W.L.W.Q.W.M.M.m.m.b.m.b.n.m.m.M.M.L.L.L.L.L.W.L.L.P.L.P.L.P.L.L.W.+X-X*X#X!.I.L.L.L.L.L.L."
};
