/* XPM */
static char *_ff736ef4ebe464ca6b784c171c9cc064JVjfniYdWopNmYs[] = {
/* columns rows colors chars-per-pixel */
"64 64 208 2 ",
"   c #1F1A1C",
".  c #231F20",
"X  c #1C3225",
"o  c #2A2627",
"O  c #2F2E33",
"+  c #363336",
"@  c #065426",
"#  c #0F502B",
"$  c #09592B",
"%  c #1D593B",
"&  c #2F5338",
"*  c #24583B",
"=  c #07662E",
"-  c #18643A",
";  c #156D3A",
":  c #087334",
">  c #0D7D3C",
",  c #13733B",
"<  c #19773C",
"1  c #137A3E",
"2  c #2A693B",
"3  c #22773D",
"4  c #505339",
"5  c #68523A",
"6  c #75583E",
"7  c #4B623D",
"8  c #63603D",
"9  c #255442",
"0  c #275B48",
"q  c #32594F",
"w  c #394E54",
"e  c #2E5D56",
"r  c #375758",
"t  c #1B6744",
"y  c #1B6C43",
"u  c #197645",
"i  c #1A7446",
"p  c #147C42",
"a  c #276645",
"s  c #24644C",
"d  c #236C4D",
"f  c #2F6D49",
"g  c #22744C",
"h  c #266D52",
"j  c #2A6855",
"k  c #33665C",
"l  c #3B5868",
"z  c #37666B",
"x  c #3B656C",
"c  c #3B6572",
"v  c #49474B",
"b  c #484C57",
"n  c #495755",
"m  c #5C5957",
"M  c #68574B",
"N  c #765C45",
"B  c #7B5E42",
"V  c #665D59",
"C  c #4F6942",
"Z  c #7D6145",
"A  c #79664A",
"S  c #776354",
"D  c #435968",
"F  c #555C6F",
"G  c #4F5970",
"H  c #485B75",
"J  c #665F64",
"K  c #43646C",
"L  c #476678",
"P  c #59657A",
"I  c #696668",
"U  c #796D65",
"Y  c #626676",
"T  c #716C73",
"R  c #787779",
"E  c #805F41",
"W  c #846445",
"Q  c #896646",
"!  c #876A46",
"~  c #8E6A46",
"^  c #856649",
"/  c #87694B",
"(  c #8A6B4C",
")  c #956D48",
"_  c #946D49",
"`  c #97704A",
"'  c #9B724A",
"]  c #876D54",
"[  c #8B7453",
"{  c #947554",
"}  c #997857",
"|  c #977A59",
" . c #9D7C59",
".. c #A2764D",
"X. c #A5794E",
"o. c #A97B4F",
"O. c #AA7C50",
"+. c #A27F5B",
"@. c #9A7D60",
"#. c #0C843E",
"$. c #0A8A3F",
"%. c #10803E",
"&. c #0E8540",
"*. c #0B8C41",
"=. c #118442",
"-. c #1D8246",
";. c #0B9444",
":. c #29824D",
">. c #2D8350",
",. c #348254",
"<. c #538A69",
"1. c #5B8F71",
"2. c #6F977F",
"3. c #A5825D",
"4. c #AA865F",
"5. c #A98561",
"6. c #AE8961",
"7. c #B48D64",
"8. c #B99166",
"9. c #BE9569",
"0. c #C0976A",
"q. c #C59A6C",
"w. c #485E87",
"e. c #4B6686",
"r. c #566889",
"t. c #4D7182",
"y. c #577289",
"u. c #4A6591",
"i. c #4B6A96",
"p. c #516A94",
"a. c #5A6D92",
"s. c #556E9B",
"d. c #537092",
"f. c #5C749B",
"g. c #667789",
"h. c #757884",
"j. c #66799A",
"k. c #4C6FAF",
"l. c #4E71AF",
"z. c #5C75A3",
"x. c #5271AC",
"c. c #5C77A9",
"v. c #4F72B0",
"b. c #5375B2",
"n. c #5876B1",
"m. c #5778B3",
"M. c #5C7CB5",
"N. c #647CA5",
"B. c #687CA3",
"V. c #627BAA",
"C. c #607FB6",
"Z. c #617FB8",
"A. c #799B86",
"S. c #758791",
"D. c #6B81AA",
"F. c #798AA6",
"G. c #6581B5",
"H. c #6982B3",
"J. c #6482B9",
"K. c #6986BB",
"L. c #6D89BD",
"P. c #768CB4",
"I. c #718CBF",
"U. c #7992BF",
"Y. c #738EC0",
"T. c #7691C1",
"R. c #7B94C3",
"E. c #7F98C5",
"W. c #869492",
"Q. c #8CA596",
"!. c #818FAA",
"~. c #8D98A9",
"^. c #8496B7",
"/. c #9AA9B1",
"(. c #A7A7A6",
"). c #A6B6AC",
"_. c #B5BCB8",
"`. c #B7C1BB",
"'. c #859BC2",
"]. c #829AC6",
"[. c #869DC8",
"{. c #889FC9",
"}. c #8CA2CB",
"|. c #91A6CD",
" X c #94A9CF",
".X c #95A9CF",
"XX c #99ABCD",
"oX c #96ABD0",
"OX c #99ADD1",
"+X c #9AAED1",
"@X c #9EB1D3",
"#X c #9EB1D4",
"$X c #AAB6CB",
"%X c #A3B5D5",
"&X c #A3B5D6",
"*X c #A7B8D7",
"=X c #AAB9D6",
"-X c #ACBCD9",
";X c #B0BFDB",
":X c #B3C2DD",
">X c #B8C6DF",
",X c #BAC8E0",
"<X c #C8C7C7",
"1X c #D7D6D6",
"2X c #E6E5E6",
"3X c #F2EFF1",
"4X c #F6F4F4",
"5X c #FEFEFE",
/* pixels */
"M.C.M.m.b.b.l.b.M.Y.}.E.K.J.J.J.J.J.M.J.J.M.J.T.[.Y.b.v.v.k.v.k.v.v.b.b.M.M.J.J.Z.L.L.Z.J.J.J.J.J.J.K.K.T.oX-X}.Y.J.M.M.M.M.J.M.",
"Z.M.M.M.m.m.M.J.T.R.T.L.J.K.K.J.J.J.K.K.J.J.J.K.}.+XY.b.v.v.k.k.l.l.l.v.m.M.M.J.J.K.K.K.J.J.J.J.K.J.J.K.K.T.+X+XY.M.m.M.m.M.J.M.",
"C.M.M.M.J.L.R.T.L.K.K.K.K.K.K.K.K.Y.Y.J.K.J.K.K.{.:X@XT.J.b.v.v.l.l.l.v.v.m.m.M.Z.Z.Z.M.K.K.J.Z.K.J.J.K.J.K.T.oXE.M.M.M.M.M.M.J.",
"J.J.K.Y.T.Y.J.K.K.K.K.K.K.L.L.I.Y.K.K.Y.K.K.K.Y.}.:X&XoX}.E.T.K.K.J.J.M.m.b.b.M.Z.Z.K.Y.L.L.L.K.J.J.J.J.K.K.L.R.}.[.T.L.K.J.J.J.",
"R.T.I.K.J.J.K.K.L.K.L.L.L.L.I.L.Y.J.K.J.K.K.Y.].*XoXY.J.M.M.J.J.J.J.J.K.L.J.J.J.Y.Y.Y.Y.R.R.Y.Y.Y.J.K.K.K.Y.R.].[.oX#X#XoX}.[.].",
"J.Z.J.J.J.K.K.L.L.L.L.L.I.L.L.L.J.Y.K.Y.K.Y.T..X[.Y.J.m.b.v.v.v.b.v.b.v.b.M.J.I.].|.+X+X%X%X+X.X{.[.[.[.[.}.oX+X&X&X=X%X#X}.E.K.",
"M.J.J.J.L.L.L.L.L.Y.T.I.I.L.L.L.Y.K.K.Y.Y.R.E.T.K.J.J.b.m.b.b.b.x.b.b.b.b.m.M.J.R.+X;X;X&X&X|.].Y.Y.Y.E.E.}.+X%X:X-X+X}.T.K.J.M.",
"M.J.J.J.L.T.E.].}.}.}.[.[.[.].[.E.R.E.[.].R.Y.Y.K.J.J.M.M.m.b.b.m.m.m.M.m.J.K.].|.|.{.E.E.Y.Y.K.K.J.K.J.K.Y.Y.Y.E.[.}.}.].Y.M.M.",
"|.[.[.}.|..X|.[.R.T.Y.Y.I.Y.R.[.oX&X+X[.Y.Y.Y.J.L.K.J.Z.Z.Z.Z.J.J.J.J.J.Y.].].Y.K.K.K.K.K.K.J.J.K.J.K.J.J.J.J.J.J.J.M.J.J.Y.E.}.",
".X-X;X-X.XR.Y.Y.I.L.L.L.L.L.L.L.Y.R.[.[.E.Y.Y.Y.L.I.I.L.L.L.L.L.Y.R.}..X}.L.M.M.M.M.J.J.J.Z.J.J.J.J.J.K.J.J.J.M.b.b.b.b.b.b.M.Y.",
"K.Y.{.+X+X|.R.Y.I.I.I.Y.I.L.L.Y.Y.J.Y.Y.E.{.|.{.].R.R.Y.Y.Y.R.}.#X%X}.T.G.m.b.b.b.M.M.J.Z.K.K.Z.J.K.K.J.J.J.M.m.b.b.b.b.b.b.M.M.",
"L.L.L.Y.R.{.|.[.R.Y.I.I.I.I.I.L.K.Y.K.Y.Y.R.}.#X%X%X+XoX+X%X;X;X%X}.[.R.L.M.k.u.u.s.M.Z.J.J.Z.K.J.K.K.K.J.J.J.M.b.b.b.b.b.b.J.J.",
"K.L.L.Y.I.Y.Y.].{.[.E.T.Y.Y.I.L.Y.Y.Y.Y.E.[..X%X-X,X,X,X-X-X+X[.E.R.T.T.T.D.j y t t z p.C.J.Z.J.J.K.K.K.L.L.J.J.M.m.m.m.m.M.J.J.",
"L.L.L.Y.Y.Y.Y.Y.Y.T.].].].E.].E.].[.].[.{.|..X%X=X&XoX{.[.].Y.K.J.M.m.b.x.i.d = $ : =.t L c.K.K.K.K.K.K.K.J.J.J.J.J.M.M.M.M.J.J.",
"L.L.Y.Y.Y.Y.Y.Y.Y.Y.Y.Y.Y.Y.R.Y.Y.T.Y.Y.Y.R.}.oX[.R.R.R.Y.Y.L.J.M.m.b.b.b.x.z $ $ > ;.$.t D V.K.J.J.J.J.J.J.J.M.M.M.m.m.M.M.J.K.",
"L.L.Y.L.Y.Y.Y.Y.Y.Y.I.I.Y.I.I.I.Y.K.Y.Y.T.[.R.Y.Y.Y.Y.Y.L.K.K.Z.M.m.m.b.b.m.s.s > ;.;.;.*.t L Z.J.J.J.J.J.J.J.J.J.J.J.M.M.J.J.K.",
"L.Y.Y.Y.L.Y.Y.Y.Y.Y.L.L.Y.L.Y.K.Y.Y.Y.E.[.T.Y.L.L.L.L.K.K.K.K.Z.J.M.M.M.M.M.M.L -.;.;.;.;.=.q a.J.J.J.J.J.J.M.J.J.J.J.J.J.K.K.K.",
"L.L.L.Y.Y.Y.Y.Y.I.Y.I.I.L.K.K.Y.Y.Y.[.[.Y.L.L.L.L.L.L.K.K.Z.K.J.J.J.J.J.J.J.K.z.j ;.;.;.;.;.; K G.J.J.J.J.J.J.J.J.J.J.J.K.K.K.K.",
"L.L.I.L.I.Y.L.Y.L.I.L.L.L.Y.J.V.c.N.D.N.H.L.Y.K.L.K.K.Z.Z.C.Z.M.J.J.J.J.K.J.J.J.L &.;.;.;.;.%.r N.J.J.J.J.M.M.J.M.M.J.J.K.K.K.K.",
"L.L.Y.Y.I.Y.Y.L.Y.L.Y.K.c.t.x j t h g h k L f.K.L.L.K.Z.C.M.M.M.M.J.J.K.J.K.K.K.d.i ;.;.;.;.$.q D.L.J.J.M.J.M.J.J.J.J.J.J.K.K.L.",
"L.L.L.Y.Y.Y.Y.Y.I.I.I.y.j - $ = @ #.;.;.*.=.s e.Z.K.C.c.s.p.i.s.l.M.G.J.K.K.K.K.c.g ;.;.;.;.$.* B.{.L.J.G.J.M.M.J.M.J.J.J.K.L.L.",
"I.Y.Y.Y.I.Y.R.T.U.I.t.i *.= @ $ : $.;.;.;.;.#.a r.V.Y J S S M S U Y r.z.J.K.L.L.V.h ;.;.;.$.$.0 j.XX].L.J.G.J.J.M.J.J.K.K.L.I.L.",
"Y.Y.Y.Y.T.Y.Y.L.L.z.y *.;.#.: $.;.;.;.;.;.;.;.1 b V ( ..' ) B } 7.6. .U Y f.H.L.N.g ;.;.$.> , & K g.^.}.T.L.K.J.J.J.J.K.L.K.I.L.",
"Y.Y.Y.T.R.Y.L.L.L.f.h p 1 1 p #.=.#.;.;.;.;.;.; 4 ' ) Q / { [ [ { } 6.8.6.S P z.d.u #., , , %.$.1 f R h.g.P.R.K.J.J.K.L.I.T.T.R.",
"}.|.}.{.[.[.].[.[.'.D.g.S.S.g.P K k g =.;.*.3 C W Q B 4.9.q.q.9.8.3.{ { 3.6.N m q %.; #.$.$.;.;.>.).<XI + b !.{.T.T.R.R.E.].[.}.",
"XX{.].R.Y.Y.R.{..X%X-X:X:X,X=X}.U.H.f.x i f [ 3.N 6 B 4.q.q.q.q.q.q.9.{ N B B ) 4 - #.$.;.;.;.;.2.4X<XR + o b ^.}.|.+X@X&X-X:X%X",
"[.].].T.Y.Y.Y.R.}.=X;X%XoX}.+X%X}.Y.L.f.V | 5.{ W ..' ^ 6.9.0.q.q.q.7./ ) ~ 6 ) 8 1 ;.;.;.;.;.$.Q.4X2XT .   O a.Y.T.].|.*X,X-X|.",
"{.{.[.T.Y.Y.T.E.+X%X}.[.E.R.T.]..X].V.T +.+.( ~ o.O.' B / { {  .5.3./ _ o.o.' 6 2 ;.;.;.$.;.$.$.1.2X5X<XI + O e.J.L.T.R.[.oX*X@X",
"+X.X].R.Y.Y.R.|.|.[.E.R.I.I.L.L.T.'.Y @.+.^ ' O.o...! } 8.7.4.3.| B ! o.o.O.O.Z 3 ;.;.$.:.I a # f (.3X5X2X(.b u.K.K.Y.T.R.[.}.@X",
"].{.{.{.{.[.{.].R.T.U.I.I.K.K.K.Z.j.M B B ..O.o...Q } 9.q.q.q.q.q. .! o.O.O.3.Z %.;.$.>.)._.I O X f A.`.).1.9 e.J.K.K.T.T.R.E.].",
"Y.Y.Y.Y.Y.Y.T.Y.Y.I.I.I.L.K.J.J.Z.r.~ 6 Q ....' W } 9.q.q.q.q.q.q.8.! ' O.o.O.! 3 ;.$.2.3X<XI o . # %.-.=.*.- H G.K.L.T.T.T.T.T.",
"Y.Y.Y.K.Y.K.Y.Y.K.K.I.K.K.K.G.Z.M.J ) N B / / Z ^ 0.q.q.q.q.q.q.q.q.X.Q ..X...) 2 ;.$.Q.4X2XU .   X $.$.;.;.- l G.K.K.Y.L.Y.Y.I.",
"Y.I.Y.L.L.L.L.G.L L N.C.J.J.J.J.n.I ' Z 6.9.9.8.{ 6.q.q.0.q.q.q.q.q.7.N W ^ / W 2 *.#.2.4X5X1XW.U n #.;.;.*.- H K.L.L.Y.Y.Y.Y.Y.",
"T.T.I.I.L.L.L.D.h , r s.J.J.M.M.n.F ~ Z 7.q.q.q.3. .0.q.q.q.q.q.q.9.} | 7.7.8.5.7 #.;.>._.4X5X4X<X<.;.;.;.#.9 a.I.L.Y.Y.T.R.R.R.",
"E.T.T.I.Y.L.L.f.g ;.p j i.C.M.M.M.r.Z Z | q.q.q.8.] 7.q.q.q.q.q.9. .{ 0.q.q.q. .& #.;.*.,.Q.`.).1.=.;.> 2 0 D V.I.R.E.[.].].{.{.",
"|.E.T.Y.I.Y.I.c.s : : p 0 L c.M.'.B.U 4.{ 9.q.q.q.} { 3.4.5.4.4.{ { 9.q.q.q.7.W 7 *.&.#.$.&.-.-.#.*.< q g.~.^.|.|..X|.].R.[.{.+X",
":X}.R.T.I.I.L.G.e @ @ &.*.i k y.B.p.J 7.| 3.q.q.q.{ B / Q W Q W Z 7.q.q.q.0.] 6 4 # 9 * < $.$.> , - & G P.T.].}..X|.[.].].[.{..X",
"%X@XE.T.T.L.L.K.L @ @ > ;.;.&.u i y 2 [ 6.{ 8.q.0.) ` O.o.o.O...W 6.q.q.q.+.W 5 * % r G K j i , : - * b B.T.T.].E.].E.E.].].].[.",
"}.+X|.R.L.L.L.L.f.0 @ #.;.;.;.;.;.;.*.f 5.| +.0.7.^ ..O.O.O.O.O.) { q.q.4.Q ) 7 #.;.-.k g.F.F.g.K L y.B.T.Y.Y.T.R.].].E.R.E.].].",
"E.}.}.|.}.}.}.}.}.L i *.;.;.;.;.;.;.;.< A 7.( 3.3.Q o.O.O.O.O.O.' / 8.4.^ ' ! 2 ;.;.;.#.y L P.|.XXXXXX|.[.R.Y.Y.R.R.E.R.E.R.E.E.",
"T.R.T.R.R.R.T.L.K.J.x p *.;.;.;.;.;.*.% w ] N Z B ) O.O.o.o.O.o.o.W / ^ ' ..5 % ;.;.;.;.;.y l D.E.oX*X;X=XoX].Y.Y.R.R.R.R.R.R.R.",
"T.I.I.I.I.L.K.L.K.K.c.L d &.*.;.;.1 % l p.F S _ 6 E ' X.o.o...' ~ 5 B ....B w l =.;.;.;.;.*.t L Y.].oX;X,X:X@X}.[.E.R.Y.Y.R.Y.Y.",
"I.I.L.L.L.L.L.K.K.K.M.J.p.x j s 0 r H V.T.U.h.] ) Q B 6 B W ^ ( } ( ~ o.W v u.u.i ;.;.;.;.;.&.q N.].%X%X|.}.}.oX|.}.].R.R.T.Y.Y.",
"I.I.L.L.L.L.K.K.K.H.K.M.K.G.c.z.B.P.].}.@X-X=X~.R ] ) 6 { 7.8.0.q.3.B N v e.m.u.i ;.;.;.;.;.;.% a.E.+X|.].R.R.E.].[.[.].R.Y.Y.Y.",
"L.L.L.L.K.L.K.K.K.J.K.K.K.Y.T.}.}.[.E.E.}.#X|.}.].!.T V ]  .5.5.+.S v b u.b.b.c =.;.;.;.;.;.;.% e.I.|.|.R.Y.R.R.R.R.R.[.R.Y.Y.Y.",
"L.L.L.L.K.K.K.K.K.K.K.T.T.[.#X#X}.Y.K.Y.[.}.T.T.R.E.'.^.j.r.F G H H u.x.b.b.i.d ;.;.;.;.;.;.&.9 a.I.R.}.Y.Y.Y.Y.Y.R.T.T.].Y.Y.Y.",
"L.L.L.L.L.K.K.K.K.T.T.E.|.:X-X}.T.Y.K.Y.[.Y.J.K.K.K.K.T.[.Y.M.b.x.v.b.b.b.x.z &.;.;.;.;.;.;.; w V.I.I.{.R.Y.Y.Y.Y.Y.Y.Y.Y.].Y.Y.",
"T.T.I.L.L.L.I.T.T.E.oX#X:X:X*X}.T.Y.K.T.K.G.G.M.M.M.M.M.Y.[.K.M.b.x.b.b.b.w.t #.;.;.;.;.;.u q p.K.L.L.[.Y.K.K.K.Y.Y.Y.Y.Y.Y.T.Y.",
"L.I.T.T.T.R.E.}.}.|.+X+X|.}.|.}.].R.Y.K.M.M.M.M.M.b.b.m.M.K.R.J.b.l.v.b.i.s $ $ > ;.;.&.; w r.J.K.K.T.}.Y.K.L.L.L.L.L.L.L.L.L.L.",
"K.L.K.L.K.L.Y.T.T.T.R.R.T.T.I.L.K.J.J.M.J.M.Z.M.M.m.v.v.b.m.Z.R.T.J.G.G.c p = $ > *.; 0 l s.J.J.K.T.{.].L.L.L.L.L.L.L.L.L.L.L.L.",
"K.K.K.K.K.L.L.L.T.L.I.L.L.K.L.K.J.J.Z.Z.M.M.M.M.M.b.v.k.v.b.M.J.I.}.}.}.y.i y - t q G a.C.L.Y.Y.'.{.I.L.L.L.L.L.L.L.L.L.L.K.K.K.",
"J.J.K.K.L.L.Y.Y.L.I.L.L.K.K.J.J.J.Z.Z.M.M.J.M.M.M.m.b.v.b.m.M.J.L.}.:X>X$X~.S.W.^./.XX+X+XXX|.[.R.L.K.K.L.L.L.L.L.L.L.L.L.L.K.K.",
"K.L.K.L.L.Y.Y.L.L.K.J.K.K.J.J.J.J.M.M.Z.M.M.M.M.M.m.b.b.b.M.Y.[.|.+XoX|.|.|.|.oX#X%X-X;X=X|.R.Y.K.K.K.K.K.L.L.L.L.L.L.I.L.L.K.K.",
"K.K.J.J.J.J.K.K.L.K.K.J.J.J.J.J.M.J.M.M.M.M.M.M.M.M.M.M.Z.Y.].E.L.K.G.J.J.Z.Z.K.K.L.R.{.%X%XE.Y.L.K.K.L.K.K.K.L.L.L.L.K.L.L.K.K.",
"J.J.m.J.m.J.J.J.K.K.J.J.J.J.J.M.M.M.M.M.M.M.M.M.M.m.J.Y.R.Y.J.M.m.b.b.b.b.m.m.m.M.Z.Z.I.T.oX+XT.K.K.K.K.K.K.L.L.K.L.L.L.L.L.K.Z.",
"b.m.m.m.J.m.m.J.J.J.J.J.J.J.J.J.M.M.M.M.M.M.m.M.Z.Y.Y.K.K.J.J.Z.J.b.v.b.b.b.b.b.m.M.Z.Z.Y.Y.[.].L.K.Z.K.K.K.K.K.K.K.L.L.L.J.M.M.",
"M.M.m.m.m.M.m.J.J.J.J.J.J.J.J.J.M.M.M.M.M.M.J.Y.Y.Y.M.M.m.m.m.m.b.m.b.b.b.v.b.b.b.M.M.J.J.K.Y.E.Y.K.K.K.K.K.K.K.K.L.K.K.J.Z.M.M.",
"m.m.m.b.m.m.m.M.m.J.m.J.J.m.J.m.M.M.M.M.M.Y.Y.Y.M.M.m.m.m.b.b.b.b.v.b.b.b.b.b.m.M.M.J.J.J.J.J.Y.E.J.J.J.K.K.K.K.K.K.K.K.J.Z.M.M.",
"J.M.J.J.J.J.M.m.m.J.J.J.J.m.m.m.M.M.M.Y.T.T.M.m.m.m.m.m.m.b.b.m.b.b.b.b.b.b.m.m.M.J.J.M.J.J.J.J.E.Y.K.K.K.K.J.K.K.K.K.K.J.Z.M.M.",
"T.T.Y.L.L.L.L.L.K.J.m.J.J.J.m.J.M.J.R.R.J.M.m.m.M.m.M.m.m.M.m.b.m.b.m.m.m.m.m.J.M.M.Z.J.J.K.K.J.Y.].K.J.J.J.K.K.K.K.J.K.K.I.Y.R.",
"m.m.b.b.b.b.m.J.K.Y.T.L.J.J.J.L.].].T.M.M.m.M.m.m.M.m.M.M.M.M.m.m.m.m.M.J.m.J.J.M.J.J.J.J.J.J.J.J.Y.E.K.J.K.K.K.K.K.Y.E.].R.I.J.",
"m.b.b.b.v.b.v.b.v.J.L.E.}.}.+X:X%X].Y.J.M.M.m.M.M.m.m.M.M.M.M.M.M.M.M.m.m.J.m.J.Z.J.J.J.J.K.J.J.J.J.R.[.T.L.K.K.Y.[.}.R.L.Z.M.M.",
"M.m.b.b.b.v.v.v.b.m.J.L.}.:X:XoX}.}.[.E.Y.Y.M.M.M.M.m.M.m.m.m.M.M.J.J.M.m.J.J.J.K.J.J.J.J.J.J.K.J.K.K.{.+X{.].}.oX[.I.K.J.J.Z.C.",
"J.M.m.b.b.v.v.v.b.m.K.E.oX}.Y.L.Y.J.Y.J.J.Y.Y.Y.M.M.m.b.b.b.v.b.b.b.M.m.J.M.J.J.J.K.J.J.J.J.J.K.J.J.K.Y.+X-X=X+X].I.J.J.Z.J.Z.C."
};
