/* XPM */
static char *_85c19c241884372df65c24fc5bb7e92jAbmkHHBb0up9iOB[] = {
/* columns rows colors chars-per-pixel */
"64 64 72 1 ",
"  c #4E71AF",
". c #4F71B0",
"X c #5475B2",
"o c #5778B3",
"O c #5C7CB6",
"+ c #607FB7",
"@ c #607FB8",
"# c #6180B7",
"$ c #6583B9",
"% c #6986BB",
"& c #6D89BD",
"* c #718CBF",
"= c #738FC0",
"- c #7691C1",
"; c #7B94C3",
": c #7F98C5",
"> c #7F99C6",
", c #8098C5",
"< c #8098C6",
"1 c #8199C6",
"2 c #829AC7",
"3 c #849BC7",
"4 c #839CC7",
"5 c #849CC7",
"6 c #849CC8",
"7 c #859CC8",
"8 c #849DC8",
"9 c #879EC9",
"0 c #889FC9",
"q c #889FCA",
"w c #88A0C9",
"e c #89A1CA",
"r c #8BA1CA",
"t c #8BA2CB",
"y c #8DA3CB",
"u c #8CA3CC",
"i c #8DA3CC",
"p c #8DA4CC",
"a c #8FA5CC",
"s c #8FA5CD",
"d c #91A7CD",
"f c #91A6CE",
"g c #94A8CE",
"h c #94A8CF",
"j c #94A9CF",
"k c #96AAD0",
"l c #97ABD0",
"z c #98ACD0",
"x c #98ACD1",
"c c #9BAED2",
"v c #9CAFD2",
"b c #9CB0D3",
"n c #9DB0D3",
"m c #9EB1D4",
"M c #A0B3D4",
"N c #A2B3D5",
"B c #A2B4D6",
"V c #A6B7D7",
"C c #A6B8D7",
"Z c #A7B9D8",
"A c #A9B9D8",
"S c #ABBBD9",
"D c #ABBCDA",
"F c #ADBDDA",
"G c #AEBEDB",
"H c #B0BFDB",
"J c #B0BFDC",
"K c #B0C0DB",
"L c #B4C3DD",
"P c #B8C6DF",
"I c #B9C6DF",
"U c #BDCAE1",
/* pixels */
"O@OooXXXO*7,&%$$$$$$#$%;,=X... ...XoO###$%%%$$$$%%%%-xDr=%OOO$#O",
"#OOOooO%-;-&%$%%$$$%$$O=uz=X..  ...XoO##%%%%$$%$$%$%%;zz=+OooOO$",
"#OOO$&-=*%%%&%%%&==%%%%%tGm;%oX.....XXO###$%%$$$$%$%$%;j:$OOO$$O",
"$$&-=*&%%%&&&&&-==%&%%%-dKBk7;-=%%#OoXoO+$$&==&%$$$%%%*;r7-&%%$$",
";==%$%%&&%&&&=&&&&&&%%&7Bz=$##O$$$$==%$$&==-;;;==%&%&=;,yjmmjuq,",
"$##$%%&&&=&&*&=&&%&%=-;jt%#OoX..X..XXO$=,dxVBmzkq,2:qpxmBCCVmp;&",
"O#$%%%&&==--==&&%&%==;7;&$OOooXXXXXXXXO$;mFJDBp,;=-;,pxmDFmy;%+o",
"#$$&*;,77qq7222782,2>;-&%%$OOooooXOoOO-:rdq,;=-%$%%%%=--;qqq,*%#",
"rr7rjjj,;;===-;7kmm7--$&=%$OO#O$$$$$-8;-&&%&%%$%%##%%%%#####%=;p",
"jZKKk,-*=-==&&&&-;77:-=-=%===%===;tj7-OOOOO$$$$$$%%%%$@OooXXXX@=",
"%;yzzy:===&&==-=&&&-:rtw;;;;-;;pzmk-OoXXoO#$$%$%%%%%$#@OoXXXXoO@",
"%&*=;rd7;===&=%==&=&-;umVBzkkBGGBj7;=$OXoo#$$$$$$$%&%$#ooXXXXo@$",
"&&***=;,77;;=-==--=-:yjBGUPFDVxt:;----*-%$#$$$$%%%%%&%%$@OOoo@$%",
"&&*===*--;:7;,,;,787rpjBDmkd8:=%$Ooooo$$-;==$$$%%%%%%%%$#@OO@O#$",
"&&====-=-=====;;----=;dkr:;;===%OooXoooo#%;;-%$%$%%$%$$$@OOoOO$%",
"*=&===========&=&==&;7;-=-=&%=$O#OoXooo#$$$-;;%$%$$$$$$$$@@@O#$=",
"&**=======%=%=%====:2;=%%=%%%%$$$#OOO##$$$$$%;-%$$$$$$$$$$$$%%%&",
"&&*===-*=====%=%%=2>==%===%%$$=$$$##$$$$%%%%%%;-%$$#$#$$$$$%%%%%",
"&****-=*==%=%%%%%;:=&&=%%%=%$#O%$$%%%$%%%%%%%%%:=$$$$#$#@$$$%%%&",
"&***=*-*%===%%%=;;=%&=&==%$$OOOOO$#%%%%%$%%%%%%=,=%$####@$$$$$%=",
"*****---===%=%%;7=%&&=%=$%$OOOOO##%%%&%%%%%%%&&=77&$$+@@@@#$%%&=",
"****=----=%=%%;r;&&&&&%%=$$OOOOOO$$%%&&%%%&%%&==;dq=%$#+@@$%%&&&",
"===---**=%=%==py=&&%%&&&$=%OOOOOO$$%%%&&=&=&=&&=;qBd;&%$$#%%%===",
"---;;-**%==-;dB,-==%%%%%=%=-OOOO$$%%%%%%%&--=&=-;;xHBq;&$%%&====",
"urr7w4,,r7ruxUv;-=%%%%%$==$O$OOO#$$%%%%%%%%&--;;;7xKUFxy,;;,,,qy",
"kyr;-;:rjVFKKUDd;=&%%%%=%%%OOO$$$%=%=%%%%$%%%=-:pVFFVvxpyugMASSV",
"72,-**-;pDFCxjxBp-&%$$%%%%$OOO$#%%=%=%%%$$$%%&:jZVx7;;==*=qgVIFg",
"py7-%--:xmp7;;-,k:%$$$$%%-$OOO$===%%$%=#$$$%=:dj7;==%%$$%**;3xSv",
"xj7;--:pj4;;;-&*;8-$$$$%%%%#$$%===$$%%%$$%%=:dq;**%$$$$$$&*;;,dm",
"777w58r4;-*-*&%%%%;-%$%%%%%$%%%%$$==%$$O#%;:--&**&%$#$$$$%&-;::,",
"---;;;----**&&$$$#$;;--=-%%%%%%$%%=$=OOO$--%$%%&**&$#$$$%%&-----",
"**%&&&***&&&%$$$O$$$;:;==%=%%%%=%%$=OOO=-&$#$$%&&&&%$O$$%%&=*===",
"*-**=&&&=%%%%%$#@O@$&;ry,-**&&&*=%%%%%;-$O@$O$%%-%=%%%$%&&&&==--",
";-*==&&&%%%%###OOO&=;7pjBj5;;;-*==&;w8&OO$@@O=%%%=%=&%&&&-=-;:;;",
":;==&=&&%%%$%##OO=-%&-,jMDFVzy0,-:rk8=$O@OOOO$%%%%==27:-;;:8:8wr",
"p:;==&*&%$%$$###-=OO$$&-,yBIUKVVmZbt;*##O@OO@$O%=-2qpxkkdkd8;:rz",
"Dy:*=&&&=%$$##%;;$O@##%&*;7mIUUSmzzpu7;-%OOOOOO=-7fq2;2tjjw,47uk",
"Zm4;&==%%%$=&=;;$@++##%&&*;5MHzq2:;-=-;:>;;====;;-=---;;:82:,,77",
"dvd:--=;;;;;;=%+%$$$$%%$%&*;zMq;;;-=$-%%$%==;tcu;;;;;--;;,,,;:,7",
",5rr7877,;==%+O$@%&$OOO$%%&*ff**==%-%%%%%=$%==>6zzkft;==;;4;::::",
";;;;:;;*&%%$$#+OO%$oXoO$$%%,d*&%$$$$$$$%%====O$=7jVFDj,-;;-;;;;;",
"===*&&&%%%$$$#+++@Oo+#$&**;d;++$O$$O#OO%$%$=====-,zFPKmt7:;;-;--",
"=*&&&%&%%%$##$#$$$#&;,qdgzv,+ooOOOOOOOOOO$$%====-8BVdpjjkr:;;---",
"***&&&&%%$%$$$%&=;3yxDFFLHd*+XoooOoOOOOOO$$$$O=$=:zj,;;,87w,;--=",
"==&&&&%%%$%%%*;quy,;pBdyjvx;%@oXoooOXOOOO#O==O==&-pd;;-;;;:,;==&",
"&&&&&&&%%%&=;rxvq=%&rr--;,qy*@+oXXXXXXoOOOOOO=$-&=;r;=-*-;-:;;&=",
"&&%&&&&%&=-5kFFu;&$=7=%%%%%;q*+oXXXXooOOOOO==-=O&&-7;***=-*-;:;=",
"====&===;,jBKKVd,====++O+O+@*3&OXXXXXXXXOOOOOOO=&&&8;&&=&&**=&;;",
"*=---;:,rdzzjppy,;*%@++OOoXo+&;&oXXoXoooOOO+@$%%%%;r=&=&=&&&==&&",
"%%&&&*-;;;:;;--&&&@@++O+Oo XXX@*=$++$@OoOOO$$$%%&-r;&&&&&&=&%%=%",
"%%%%%%&==***&&%$%@@+OOOOXO  .XO%=,jxdq,;==&&====:7-&&**&==%%%=%%",
"%%%%%===*&&&&$%$@@+@++++OXX.XXO%-yVLLULJDBvxkju7;=%%&&&=&&&=%%&%",
"%&&=*===*%%%%$$$@+O+++@@+oXXXO*qdxxyddgxjBVHDd;=%%%&&&&&======$%",
"%%$$#$%&&&%$$$$$@+OOOOOO++O+$-,;=%%$%$$$&=;uBB7=&%%%%&&&%%%%%=%%",
"OOO@O@#$%%%%$$$++OOOOOOOoO$*;*%+oXoXoXooOO$&-fk;&%%%%&%%%=%=%=%$",
"OOoOOO@#%$$%$$##@@OOOOOO$**%%%@+oXXXXXXooO@$==qq&%%%%%&%%%%%=%OO",
"OooOOOOO##$#$$O+++OOOO%*=&@OoooOooooXXXooOOO=%=-=%%%%%%%%%=$$##O",
"OOoooooO##$$#$@OOO+O@*=&@oOoooXXooXXXXooOO$$$$%=;%$$$$=%%%%%$$OO",
"@@$#%$OOOO#$@@OOOO+&-&+oOOoooooooXXXXXXoO$O$%$$%>=%%%%%%=%%%$O#O",
"==&%==&=%$$O@@OO+%;;%OoOOoOOoOoooXXoOOOO$O$$$%%$=>%%%%%%$%%%==--",
"OoooXXoO&=-&%$%=,3*@OooOOoOOOOoOOooOO@O###$$$%$%$-;=$$%$===;;;=#",
"oooXXXX.XO=,qdvFDq=%+OOOoOOOOOOOOOOOO@O%$$$$$$%$$%;7;==%=88;=##O",
"OoXXX.XXXo$=dFFBjq3;*&@+OOoooOoOOO@@@@#$$$$$$%$%%%%7x7>ud2=$O=##",
"@OoXX..XXo%,ky-&&&%%%*-%+OOXXXXXooO@###$%%%$$$$%$$%-kDDc:==$O###"
};
